<svg width="85" height="86" viewBox="0 0 85 86" fill="none" xmlns="http://www.w3.org/2000/svg">
<g filter="url(#filter0_di)">
<path d="M20.1875 33.1507V51.9243C20.1875 54.4195 18.1794 56.4141 15.6214 56.4141C13.082 56.4141 10.625 54.4039 10.625 51.9243V33.1507C10.625 30.7022 13.082 28.6921 15.6214 28.6921C18.1289 28.6921 20.1875 30.7022 20.1875 33.1507ZM21.9805 58.6032C21.9805 61.2618 24.1719 63.4016 26.8945 63.4016H30.1989L30.2494 73.3072C30.2494 79.2884 39.4134 79.2417 39.4134 73.3072V63.4016H45.5892V73.3072C45.5892 79.2572 54.8037 79.2728 54.8037 73.3072V63.4016H58.1559C58.799 63.3996 59.4354 63.2738 60.0288 63.0316C60.6221 62.7893 61.1607 62.4352 61.6138 61.9896C62.067 61.544 62.4258 61.0156 62.6697 60.4345C62.9136 59.8535 63.0379 59.2312 63.0355 58.6032V29.5221H21.9805V58.6032ZM63.1523 27.9477H21.7972C21.7972 21.0094 26.0472 14.9789 32.3558 11.8353L29.1842 6.11348C28.7194 5.31979 29.8988 4.8166 30.2972 5.49616L33.5166 11.2673C39.3098 8.75391 45.9691 8.8836 51.4967 11.2673L54.7002 5.51173C55.1145 4.81401 56.278 5.33276 55.8131 6.12904L52.6416 11.8353C58.8997 14.9789 63.1497 21.012 63.1497 27.9477H63.1523ZM34.8128 18.9499C34.8128 18.4987 34.6292 18.0659 34.3024 17.7468C33.9757 17.4277 33.5325 17.2484 33.0703 17.2484C32.1247 17.2484 31.3783 18.0266 31.3783 18.9499C31.3783 19.8733 32.1433 20.6514 33.0703 20.6514C34.0505 20.6514 34.8128 19.8733 34.8128 18.9499ZM53.6403 18.9499C53.6425 18.5061 53.4662 18.0791 53.1492 17.7609C52.8323 17.4426 52.4001 17.2586 51.9456 17.2484C51.4835 17.2484 51.0403 17.4277 50.7135 17.7468C50.3867 18.0659 50.2031 18.4987 50.2031 18.9499C50.2031 19.4012 50.3867 19.834 50.7135 20.1531C51.0403 20.4722 51.4835 20.6514 51.9456 20.6514C52.8753 20.6514 53.6403 19.8733 53.6403 18.9499ZM69.3786 28.6947C66.8711 28.6947 64.8125 30.6555 64.8125 33.1533V51.9269C64.8125 54.4221 66.8711 56.4167 69.3786 56.4167C71.9366 56.4167 74.375 54.4065 74.375 51.9269V33.1533C74.375 30.6581 71.918 28.6947 69.3786 28.6947Z" fill="#E12E8B"/>
</g>
<defs>
<filter id="filter0_di" x="-4" y="0" width="93" height="91" filterUnits="userSpaceOnUse" color-interpolation-filters="sRGB">
<feFlood flood-opacity="0" result="BackgroundImageFix"/>
<feColorMatrix in="SourceAlpha" type="matrix" values="0 0 0 0 0 0 0 0 0 0 0 0 0 0 0 0 0 0 127 0"/>
<feOffset dy="4"/>
<feGaussianBlur stdDeviation="2"/>
<feColorMatrix type="matrix" values="0 0 0 0 0 0 0 0 0 0 0 0 0 0 0 0 0 0 0.25 0"/>
<feBlend mode="normal" in2="BackgroundImageFix" result="effect1_dropShadow"/>
<feBlend mode="normal" in="SourceGraphic" in2="effect1_dropShadow" result="shape"/>
<feColorMatrix in="SourceAlpha" type="matrix" values="0 0 0 0 0 0 0 0 0 0 0 0 0 0 0 0 0 0 127 0" result="hardAlpha"/>
<feOffset dy="4"/>
<feGaussianBlur stdDeviation="2"/>
<feComposite in2="hardAlpha" operator="arithmetic" k2="-1" k3="1"/>
<feColorMatrix type="matrix" values="0 0 0 0 0 0 0 0 0 0 0 0 0 0 0 0 0 0 0.25 0"/>
<feBlend mode="normal" in2="shape" result="effect2_innerShadow"/>
</filter>
</defs>
</svg>
