<svg width="393" height="308" viewBox="0 0 393 308" fill="none" xmlns="http://www.w3.org/2000/svg">
<g clip-path="url(#clip0)">
<path d="M280.761 69.729H277.969C277.418 69.729 276.971 70.1506 276.971 70.6707V106.047C276.971 106.567 277.418 106.989 277.969 106.989H280.761C281.312 106.989 281.758 106.567 281.758 106.047V70.6707C281.758 70.1506 281.312 69.729 280.761 69.729Z" fill="#3F3D56"/>
<path d="M262.577 0H136.392C127.015 0 119.414 7.17877 119.414 16.0342V291.349C119.414 300.204 127.015 307.383 136.392 307.383H262.577C271.953 307.383 279.554 300.204 279.554 291.349V16.0342C279.554 7.17877 271.953 0 262.577 0Z" fill="#3F3D56"/>
<path d="M257.265 8.00647H238.895V10.0935C238.895 11.3926 238.624 12.679 238.098 13.8791C237.571 15.0793 236.799 16.1697 235.826 17.088C234.854 18.0064 233.699 18.7347 232.428 19.2314C231.157 19.728 229.794 19.9833 228.419 19.9826H169.998C168.623 19.9833 167.261 19.728 165.99 19.2314C164.719 18.7347 163.564 18.0064 162.591 17.088C161.618 16.1697 160.846 15.0793 160.32 13.8791C159.793 12.679 159.522 11.3926 159.522 10.0935V8.00647H142.323C138.95 8.00647 135.715 9.272 133.33 11.5247C130.944 13.7773 129.604 16.8326 129.604 20.0184V287.386C129.604 290.572 130.944 293.627 133.33 295.88C135.715 298.132 138.95 299.398 142.323 299.398H257.265C260.638 299.398 263.873 298.132 266.258 295.88C268.643 293.627 269.983 290.572 269.983 287.386V20.0389C269.986 18.4598 269.659 16.8956 269.021 15.4359C268.384 13.9761 267.447 12.6495 266.266 11.5319C265.085 10.4144 263.682 9.52773 262.137 8.92279C260.593 8.31785 258.937 8.00647 257.265 8.00647Z" fill="white"/>
<path d="M204.714 9.17969H185.722C184.792 9.17969 184.037 9.89223 184.037 10.7712V11.8745C184.037 12.7535 184.792 13.466 185.722 13.466H204.714C205.645 13.466 206.399 12.7535 206.399 11.8745V10.7712C206.399 9.89223 205.645 9.17969 204.714 9.17969Z" fill="#E6E8EC"/>
<path d="M212.359 13.7572C213.783 13.7572 214.936 12.6674 214.936 11.323C214.936 9.97871 213.783 8.88892 212.359 8.88892C210.936 8.88892 209.782 9.97871 209.782 11.323C209.782 12.6674 210.936 13.7572 212.359 13.7572Z" fill="#E6E8EC"/>
<path d="M200.462 186.076C217.193 186.076 230.756 173.267 230.756 157.465C230.756 141.664 217.193 128.854 200.462 128.854C183.731 128.854 170.168 141.664 170.168 157.465C170.168 173.267 183.731 186.076 200.462 186.076Z" fill="white"/>
<path d="M240.307 153.47C240.307 161.033 237.932 168.426 233.483 174.715C229.033 181.003 222.71 185.904 215.311 188.798C207.913 191.692 199.772 192.449 191.918 190.974C184.064 189.498 176.849 185.856 171.187 180.508C165.525 175.16 161.669 168.346 160.107 160.928C158.545 153.51 159.347 145.821 162.412 138.834C165.477 131.847 170.666 125.874 177.325 121.673C183.983 117.471 191.811 115.229 199.819 115.229C205.136 115.229 210.401 116.218 215.314 118.14C220.226 120.062 224.689 122.879 228.449 126.43C232.209 129.981 235.191 134.197 237.225 138.836C239.26 143.476 240.307 148.448 240.307 153.47ZM195.139 173.711L225.173 145.345C225.416 145.116 225.609 144.844 225.741 144.545C225.872 144.245 225.94 143.924 225.94 143.6C225.94 143.276 225.872 142.955 225.741 142.655C225.609 142.356 225.416 142.084 225.173 141.855L221.478 138.39C221.236 138.161 220.948 137.979 220.632 137.855C220.315 137.73 219.976 137.666 219.633 137.666C219.29 137.666 218.95 137.73 218.634 137.855C218.317 137.979 218.03 138.161 217.788 138.39L193.291 161.526L181.854 150.698C181.363 150.237 180.698 149.978 180.006 149.978C179.314 149.978 178.649 150.237 178.158 150.698L174.463 154.209C173.975 154.673 173.701 155.3 173.701 155.954C173.701 156.608 173.975 157.236 174.463 157.699L191.444 173.732C191.687 173.961 191.975 174.144 192.292 174.268C192.609 174.392 192.949 174.456 193.292 174.456C193.635 174.456 193.975 174.392 194.292 174.268C194.609 174.144 194.897 173.961 195.14 173.732L195.139 173.711Z" fill="#EA4C84"/>
<path d="M124.428 60.5991H124.009C123.458 60.5991 123.012 61.0208 123.012 61.5409V70.6839C123.012 71.2041 123.458 71.6257 124.009 71.6257H124.428C124.979 71.6257 125.425 71.2041 125.425 70.6839V61.5409C125.425 61.0208 124.979 60.5991 124.428 60.5991Z" fill="#3F3D56"/>
<path d="M124.647 80.7898H123.921C123.371 80.7898 122.924 81.2114 122.924 81.7315V99.039C122.924 99.5591 123.371 99.9807 123.921 99.9807H124.647C125.198 99.9807 125.644 99.5591 125.644 99.039V81.7315C125.644 81.2114 125.198 80.7898 124.647 80.7898Z" fill="#3F3D56"/>
<path d="M124.559 106.696H123.965C123.414 106.696 122.968 107.117 122.968 107.638V125.11C122.968 125.63 123.414 126.052 123.965 126.052H124.559C125.11 126.052 125.557 125.63 125.557 125.11V107.638C125.557 107.117 125.11 106.696 124.559 106.696Z" fill="#3F3D56"/>
<path d="M90.8911 157.879C90.9603 157.942 91.0492 157.983 91.1446 157.994C91.24 158.006 91.3368 157.988 91.4206 157.943C91.2418 157.946 91.0635 157.924 90.8911 157.879Z" fill="url(#paint0_linear)"/>
<path d="M110.905 165.273L110.382 167.961L109.979 170.017L109.246 173.778L102.135 178.479C102.135 178.479 101.495 177.961 100.437 177.144C97.5235 174.878 91.3992 170.264 86.9022 167.787C85.7454 167.091 84.4939 166.546 83.1819 166.168L110.905 165.273Z" fill="#FEB9B9"/>
<path d="M105.689 167.273C105.689 167.273 113.979 168.617 114.464 165.273C114.95 161.929 110.197 160.122 106.169 159.897C102.142 159.672 77.9677 161.241 77.9677 161.241C77.9677 161.241 73.7036 166.612 89.1037 167.511L105.689 167.273Z" fill="#3F3D56"/>
<path d="M123.818 56.9342H80.4496V105.503H123.818V56.9342Z" fill="#2F2E41"/>
<path opacity="0.1" d="M123.818 57.1545H80.4496V105.724H123.818V57.1545Z" fill="black"/>
<path d="M29.622 140.078C28.9079 140.248 27.9953 140.9 26.9803 141.844C22.6095 145.931 16.3494 155.521 16.3494 155.521C8.34584 146.517 17.2024 139.403 20.9775 136.958C21.8954 136.367 22.5119 136.041 22.5119 136.041L29.622 140.078Z" fill="#FEB9B9"/>
<path d="M110.429 72.2631C110.429 72.2631 112.562 86.3628 119.908 89.7202C127.254 93.0775 110.429 99.3522 110.429 99.3522L87.4429 91.2887C87.4429 91.2887 100.478 87.2585 97.8696 75.3955L110.429 72.2631Z" fill="#FEB9B9"/>
<path d="M85.7822 157.09L85.2623 159.769L84.8399 161.833L84.1067 165.594L76.9966 170.291C76.9966 170.291 76.3557 169.777 75.2985 168.961C72.3846 166.695 66.2608 162.081 61.7568 159.604C60.6006 158.907 59.3489 158.362 58.0365 157.985L85.7822 157.09Z" fill="#FEB9B9"/>
<path d="M79.6319 160.393C79.6319 160.393 87.072 160.443 87.5196 157.09C87.9672 153.737 83.4649 151.939 79.6319 151.714C75.7988 151.489 52.5097 153.163 52.5097 153.163C52.5097 153.163 49.2057 159.496 63.8547 160.393L79.6319 160.393Z" fill="#2F2E41"/>
<path d="M131.797 213.071C131.472 212.92 131.146 212.764 130.826 212.613L129.951 211.571L118.485 197.839V198.077C118.408 200.371 117.582 218.543 111.142 220.222C104.27 222.011 95.9803 222.46 92.2013 210.375C88.4222 198.289 81.5173 171.878 74.4264 170.31L84.9746 162.141C84.9746 162.141 91.9583 169.855 94.8038 177.24C94.6971 176.782 89.8744 155.499 93.8324 151.733H128.438C128.438 151.733 133.78 166.104 137.442 173.222C140.292 178.749 144.571 191.817 147.326 200.66C150.053 209.393 140.471 217.103 131.797 213.071Z" fill="#3F3D56"/>
<path opacity="0.1" d="M130.811 155.746C125.469 158.732 102.017 157.516 94.3875 157.03L92.3088 156.888C92.0855 156.888 92.3428 156.769 92.3428 156.769L92.5566 154.737L98.2437 141.086L128.694 124.409C128.077 126.166 127.873 128.854 127.922 131.931C128.062 141.821 130.811 155.746 130.811 155.746Z" fill="black"/>
<path d="M130.811 155.072C125.469 158.058 102.017 156.842 94.3874 156.356L92.3087 156.218L91.9639 156.191L92.3427 156.099L94.2172 155.641L98.2431 140.422L128.693 123.749C128.077 125.506 127.872 128.194 127.921 131.271C128.062 141.151 130.811 155.072 130.811 155.072Z" fill="#EFEFEF"/>
<path opacity="0.1" d="M127.902 131.262C121.71 132.61 108.083 136.567 102.847 146.123C99.3557 152.485 96.4175 155.214 94.3679 156.356L92.2892 156.218C92.3028 156.179 92.3141 156.139 92.3231 156.099L94.1976 155.64L98.2236 140.422L128.674 123.749C128.064 125.496 127.853 128.184 127.902 131.262Z" fill="black"/>
<path opacity="0.1" d="M22.512 136.051L29.622 140.078C28.9079 140.248 27.9953 140.901 26.9803 141.844C26.3877 140.211 22.6696 137.931 20.9775 136.959C21.895 136.376 22.512 136.051 22.512 136.051Z" fill="black"/>
<path opacity="0.1" d="M91.0221 156.48C90.9442 156.518 90.8555 156.533 90.7685 156.521C90.6815 156.51 90.6004 156.473 90.5366 156.416C90.6943 156.459 90.8578 156.481 91.0221 156.48Z" fill="black"/>
<path d="M107.112 88.8257C107.112 88.8257 100.711 89.4952 96.2094 85.0189C96.2094 85.0189 77.2684 90.1697 70.8537 101.806C64.439 113.443 20.8317 136.275 20.8317 136.275C20.8317 136.275 28.4176 140.303 27.7035 142.316L56.381 126.648C56.381 126.648 66.5796 119.713 69.4111 118.144C72.2427 116.576 87.8997 106.953 91.2168 133.138C94.5338 159.324 91.2168 156.191 91.2168 156.191C91.2168 156.191 95.9568 157.76 102.829 145.224C109.701 132.689 131.025 129.781 131.025 129.781L132.21 116.58C132.21 116.58 136.44 107.828 133.182 104.196C132.194 103.12 131.538 101.81 131.283 100.407C130.744 97.0542 131.283 91.4675 138.83 86.8259C150.442 79.6613 154.943 73.8455 154.943 73.8455C154.943 73.8455 155.181 69.5892 148.071 67.5753C140.962 65.5615 112.051 54.595 112.051 54.595L111.08 58.4018L133.891 73.607C133.891 73.607 122.517 82.3216 113.494 82.1106C113.493 82.1106 115.169 88.6008 107.112 88.8257Z" fill="#EA4C84"/>
<path opacity="0.1" d="M111.502 78.4001C110.941 76.6059 110.504 74.7797 110.191 72.9326L97.6318 76.0663C98.1855 78.3306 98.0866 80.6937 97.3453 82.9097C99.913 83.5568 102.626 83.4741 105.144 82.6719C107.662 81.8697 109.874 80.3838 111.502 78.4001Z" fill="black"/>
<path d="M101.07 82.6707C108.529 82.6707 114.576 76.9597 114.576 69.9149C114.576 62.87 108.529 57.1591 101.07 57.1591C93.6112 57.1591 87.5643 62.87 87.5643 69.9149C87.5643 76.9597 93.6112 82.6707 101.07 82.6707Z" fill="#FEB9B9"/>
<path opacity="0.1" d="M115.761 172.643C115.761 172.643 123.58 187.193 121.21 191.664L115.761 172.643Z" fill="black"/>
<path d="M108.253 40.4541C112.002 40.8579 115.562 42.3758 119.253 43.2061C120.175 43.4769 121.157 43.5117 122.099 43.3069C123.531 42.8895 124.697 41.4723 126.183 41.5135C127.097 41.541 127.907 42.1283 128.66 42.6921C129.867 43.5647 131.003 44.5215 132.059 45.5543C134.604 48.164 136.182 51.6777 138.503 54.5169C140.825 57.3561 144.135 60.6855 147.433 59.3835C145.189 67.6395 138.193 72.8043 130.243 73.3183C127.072 73.5239 123.823 72.9009 120.753 73.7769C119.989 74.0729 119.181 74.2584 118.358 74.3271C116.591 74.3271 115.168 72.7952 114.065 71.3045C111.481 67.8003 109.437 63.8236 106.528 60.6266C105.557 59.5673 104.435 58.5626 103.075 58.3702C101.715 58.1777 100.467 58.7921 99.2581 59.3839C97.2621 60.361 95.2226 61.3698 93.6734 63.0534C92.1241 64.737 91.1479 67.2225 91.7889 69.4749C92.1337 70.695 92.921 71.7959 92.9349 73.0708C92.9641 75.1072 91.0604 76.5934 90.6864 78.5748C90.6019 79.4071 90.5711 80.2434 90.5941 81.0792C90.429 83.7934 88.5476 86.0141 86.5881 87.7253C85.8209 88.3857 84.9771 89.1013 84.7524 90.1241C84.6017 90.8256 84.7524 91.5634 84.6553 92.2753C84.3688 94.0366 82.5087 94.931 80.8623 95.1605C78.9388 95.4295 76.9741 95.2095 75.1704 94.5231C77.4725 93.495 78.8907 90.5694 78.3564 87.9502C77.6232 84.3174 73.7575 81.7076 74.0893 78.011C74.271 76.8767 74.6311 75.7745 75.1578 74.7408C76.0002 72.7432 76.6125 70.6657 76.984 68.5443C77.2753 66.9067 77.4164 65.1684 76.8721 63.6044C76.3866 62.1824 75.3716 61.0498 74.5116 59.8478C73.3463 58.2125 72.4262 56.4328 71.7776 54.5592C71.5426 54.0035 71.4529 53.4024 71.5164 52.8069C71.7111 52.1037 72.1258 51.4722 72.7064 50.995C74.819 48.8977 77.0772 46.7202 79.9087 46.1193C81.2597 45.9075 82.6337 45.8582 83.9978 45.9725C86.3703 46.0428 88.745 45.9477 91.1026 45.688C93.0451 45.4725 96.3277 45.5 97.9745 44.3119C99.5089 43.2016 100.374 41.8075 102.263 41.1014C104.175 40.4317 106.232 40.2098 108.255 40.4545L108.253 40.4541Z" fill="#E25A41"/>
<path d="M359.209 306.619C370.029 306.619 378.801 305.218 378.801 303.49C378.801 301.762 370.029 300.361 359.209 300.361C348.389 300.361 339.617 301.762 339.617 303.49C339.617 305.218 348.389 306.619 359.209 306.619Z" fill="#EA4C84"/>
<path d="M367.312 298.373C368.205 297.684 368.855 296.755 369.178 295.709C369.421 294.655 368.944 293.406 367.872 292.998C366.673 292.566 365.39 293.353 364.422 294.144C363.454 294.935 362.336 295.842 361.065 295.672C361.719 295.113 362.21 294.403 362.487 293.612C362.765 292.821 362.821 291.975 362.65 291.158C362.593 290.819 362.44 290.501 362.207 290.237C361.544 289.565 360.334 289.851 359.541 290.385C357.008 292.064 356.301 295.319 356.287 298.239C356.028 297.186 356.247 296.086 356.238 295.018C356.228 293.95 355.921 292.715 354.952 292.151C354.353 291.848 353.681 291.699 353.003 291.719C351.863 291.678 350.596 291.788 349.816 292.574C348.842 293.55 349.105 295.188 349.943 296.256C350.781 297.323 352.063 298.009 353.242 298.75C354.184 299.281 354.988 300.007 355.593 300.872C355.666 300.993 355.724 301.121 355.767 301.254H362.886C364.491 300.486 365.979 299.518 367.31 298.375L367.312 298.373Z" fill="#EA4C84"/>
<path d="M92.8377 308C99.9785 308 105.767 307.076 105.767 305.935C105.767 304.795 99.9785 303.87 92.8377 303.87C85.6969 303.87 79.9082 304.795 79.9082 305.935C79.9082 307.076 85.6969 308 92.8377 308Z" fill="#EFEFEF"/>
<path d="M98.1852 302.558C98.7744 302.103 99.2038 301.49 99.4166 300.8C99.5104 300.453 99.476 300.087 99.3193 299.762C99.1626 299.437 98.8929 299.172 98.5549 299.011C97.7637 298.725 96.9181 299.245 96.2785 299.767C95.6388 300.289 94.9021 300.888 94.0631 300.775C94.495 300.406 94.8182 299.938 95.0014 299.416C95.1845 298.894 95.2213 298.336 95.1081 297.796C95.0704 297.573 94.9693 297.363 94.8155 297.189C94.38 296.746 93.5806 296.934 93.0568 297.286C91.3847 298.396 90.9184 300.541 90.9088 302.47C90.7386 301.775 90.8831 301.049 90.8766 300.344C90.8701 299.64 90.6676 298.826 90.0275 298.453C89.6327 298.253 89.1891 298.154 88.7413 298.167C87.9889 298.14 87.1529 298.213 86.6382 298.732C85.9951 299.376 86.1688 300.457 86.7218 301.162C87.2748 301.866 88.1204 302.319 88.8989 302.807C89.5212 303.157 90.0521 303.635 90.4521 304.205C90.5002 304.285 90.5391 304.369 90.5679 304.457H95.2657C96.325 303.95 97.307 303.311 98.1852 302.556V302.558Z" fill="#EFEFEF"/>
<path d="M19.716 308C26.8568 308 32.6455 307.076 32.6455 305.935C32.6455 304.795 26.8568 303.87 19.716 303.87C12.5752 303.87 6.7865 304.795 6.7865 305.935C6.7865 307.076 12.5752 308 19.716 308Z" fill="#EFEFEF"/>
<path d="M25.0635 302.558C25.6527 302.103 26.082 301.49 26.2949 300.8C26.3886 300.453 26.3543 300.087 26.1976 299.762C26.0409 299.437 25.7712 299.172 25.4332 299.011C24.642 298.725 23.7964 299.245 23.1568 299.767C22.5171 300.289 21.7804 300.888 20.9414 300.775C21.3732 300.406 21.6965 299.938 21.8797 299.416C22.0628 298.894 22.0996 298.336 21.9864 297.796C21.9487 297.573 21.8476 297.363 21.6938 297.189C21.2583 296.746 20.4589 296.934 19.9351 297.286C18.263 298.396 17.7967 300.541 17.7871 302.47C17.6169 301.775 17.7614 301.049 17.7549 300.344C17.7484 299.64 17.5459 298.826 16.9058 298.453C16.511 298.253 16.0674 298.154 15.6196 298.167C14.8672 298.14 14.0312 298.213 13.5165 298.732C12.8734 299.376 13.0471 300.457 13.6001 301.162C14.1531 301.866 14.9987 302.319 15.7772 302.807C16.3995 303.157 16.9304 303.635 17.3304 304.205C17.3785 304.285 17.4174 304.369 17.4462 304.457H22.144C23.2032 303.95 24.1853 303.311 25.0635 302.556V302.558Z" fill="#EFEFEF"/>
<path d="M393 306.821H0V307.57H393V306.821Z" fill="#2F2E41"/>
<path d="M373.816 20.7775C373.816 20.7775 332.79 18.4396 337.624 45.5905C337.624 45.5905 336.649 50.3901 341.268 52.5668C341.268 52.5668 341.342 50.5558 345.478 51.2413C346.951 51.4718 348.447 51.5397 349.936 51.4437C351.946 51.3188 353.857 50.5807 355.384 49.3406C355.384 49.3406 366.917 44.84 371.399 27.0403C371.399 27.0403 374.717 23.1565 374.586 22.1576L367.663 24.9508C367.663 24.9508 370.03 29.6677 368.15 33.5868C368.15 33.5868 367.926 25.1194 366.595 25.3036C366.328 25.3406 363 26.9371 363 26.9371C363 26.9371 367.068 35.1512 363.998 41.1248C363.998 41.1248 365.163 31.0009 361.728 27.5309L356.855 30.2183C356.855 30.2183 361.611 38.7043 358.385 45.63C358.385 45.63 359.213 35.0089 355.827 30.8718L351.413 34.1251C351.413 34.1251 355.881 42.4864 353.157 48.2306C353.157 48.2306 352.802 35.87 350.458 34.9361C350.458 34.9361 346.594 38.1573 346.004 39.4733C346.004 39.4733 349.064 45.5477 347.164 48.7505C347.164 48.7505 345.999 40.5133 345.044 40.4673C345.044 40.4673 341.195 45.9248 340.795 49.6708C340.795 49.6708 340.961 44.1071 344.113 39.952C344.113 39.952 340.391 40.5549 338.217 42.8307C338.217 42.8307 338.817 38.9745 345.063 38.634C345.063 38.634 348.245 34.4924 349.093 34.244C349.093 34.244 342.885 33.7505 339.119 35.3301C339.119 35.3301 342.432 31.6902 350.233 33.3466L354.594 29.9827C354.594 29.9827 346.418 28.9287 342.949 30.0933C342.949 30.0933 346.939 26.8721 355.768 29.219L360.514 26.5406C360.514 26.5406 353.542 25.1231 349.39 25.6203C349.39 25.6203 353.776 23.3885 361.908 25.809L365.318 24.3697C365.318 24.3697 360.212 23.4218 358.716 23.27C357.22 23.1183 357.142 22.7317 357.142 22.7317C360.377 22.2223 363.699 22.5713 366.736 23.7397C366.736 23.7397 373.938 21.2056 373.816 20.7775Z" fill="#EA4C84"/>
<path d="M317.604 6.4034C317.604 6.4034 299.089 5.34939 301.252 17.6179C301.252 17.6179 300.817 19.7855 302.899 20.7701C302.899 20.7701 302.933 19.8497 304.804 20.1672C305.469 20.2728 306.144 20.3038 306.816 20.2593C307.725 20.2025 308.589 19.8662 309.277 19.3019C309.277 19.3019 314.49 17.2679 316.517 9.22409C316.517 9.22409 318.013 7.47098 317.954 7.01985L314.826 8.28071C314.826 8.28071 315.893 10.4113 315.055 12.183C315.055 12.183 314.953 8.35843 314.353 8.44644C314.232 8.44644 312.726 9.18667 312.726 9.18667C312.726 9.18667 314.568 12.9002 313.179 15.5971C313.179 15.5971 313.705 11.0229 312.151 9.45357L309.949 10.6873C309.949 10.6873 312.098 14.5204 310.641 17.65C310.641 17.65 311.016 12.8504 309.486 10.9821L307.493 12.4548C307.493 12.4548 309.51 16.2328 308.282 18.829C308.282 18.829 308.117 13.2423 307.059 12.8191C307.059 12.8191 305.315 14.2733 305.047 14.8716C305.047 14.8716 306.431 17.6327 305.573 19.0638C305.573 19.0638 305.047 15.3409 304.599 15.3215C304.599 15.3215 302.859 17.789 302.679 19.4631C302.766 17.9014 303.283 16.3881 304.18 15.0732C303.176 15.2527 302.25 15.7054 301.515 16.3756C301.515 16.3756 301.788 14.6315 304.609 14.4797C304.609 14.4797 306.07 12.607 306.431 12.4918C306.431 12.4918 303.625 12.271 301.924 12.9853C301.924 12.9853 303.42 11.3424 306.943 12.088L308.892 10.5693C308.892 10.5693 305.195 10.1046 303.627 10.617C303.627 10.617 305.43 9.16282 309.421 10.2213L311.565 9.01107C311.565 9.01107 308.412 8.37159 306.536 8.59983C306.536 8.59983 308.519 7.59188 312.193 8.68208L313.728 8.03314C313.728 8.03314 311.42 7.60504 310.741 7.53595C310.062 7.46686 310.03 7.29209 310.03 7.29209C311.492 7.06228 312.994 7.22162 314.366 7.75226C314.366 7.75226 317.661 6.59504 317.604 6.4034Z" fill="#3F3D56"/>
<path d="M32.0786 193.697C32.0786 193.697 13.5635 192.643 15.7267 204.912C15.7267 204.912 15.2913 207.079 17.3735 208.064C17.3735 208.064 17.4074 207.144 19.2784 207.461C19.9429 207.567 20.6183 207.598 21.2905 207.553C22.1994 207.496 23.0636 207.16 23.7511 206.596C23.7511 206.596 28.9645 204.562 30.9914 196.518C30.9914 196.518 32.4871 194.765 32.4283 194.314L29.3002 195.575C29.3002 195.575 30.3674 197.705 29.5292 199.477C29.5292 199.477 29.4269 195.652 28.8277 195.74C28.7058 195.74 27.2001 196.48 27.2001 196.48C27.2001 196.48 29.042 200.194 27.6534 202.891C27.6534 202.891 28.1794 198.317 26.6254 196.747L24.423 197.981C24.423 197.981 26.5718 201.814 25.1149 204.944C25.1149 204.944 25.4902 200.144 23.9601 198.276L21.9672 199.749C21.9672 199.749 23.9845 203.527 22.7566 206.123C22.7566 206.123 22.5912 200.536 21.5335 200.113C21.5335 200.113 19.7892 201.567 19.521 202.165C19.521 202.165 20.9048 204.927 20.0474 206.358C20.0474 206.358 19.521 202.635 19.0729 202.615C19.0729 202.615 17.3334 205.083 17.1531 206.757C17.2403 205.195 17.7576 203.682 18.654 202.367C17.6502 202.547 16.7239 202.999 15.9888 203.669C15.9888 203.669 16.2618 201.925 19.083 201.774C19.083 201.774 20.5447 199.901 20.9052 199.786C20.9052 199.786 18.0989 199.565 16.3981 200.279C16.3981 200.279 17.8938 198.636 21.4168 199.382L23.3658 197.863C23.3658 197.863 19.669 197.398 18.1015 197.911C18.1015 197.911 19.9041 196.457 23.8948 197.515L26.0389 196.305C26.0389 196.305 22.8864 195.665 21.0106 195.894C21.0106 195.894 22.9935 194.886 26.6676 195.976L28.2025 195.327C28.2025 195.327 25.8947 194.899 25.2155 194.83C24.5362 194.761 24.504 194.586 24.504 194.586C25.9666 194.356 27.4682 194.515 28.8404 195.046C28.8404 195.046 32.1357 193.889 32.0786 193.697Z" fill="#3F3D56"/>
</g>
<defs>
<linearGradient id="paint0_linear" x1="91.1585" y1="157.998" x2="91.1585" y2="157.879" gradientUnits="userSpaceOnUse">
<stop stop-color="#808080" stop-opacity="0.251"/>
<stop offset="0.54" stop-color="#808080" stop-opacity="0.122"/>
<stop offset="1" stop-color="#808080" stop-opacity="0.102"/>
</linearGradient>
<clipPath id="clip0">
<rect width="393" height="308" fill="white"/>
</clipPath>
</defs>
</svg>
