<svg width="68" height="79" viewBox="0 0 68 79" fill="none" xmlns="http://www.w3.org/2000/svg">
<g filter="url(#filter0_di)">
<path d="M18.8742 69.6405C17.4177 68.7097 16.1268 67.5595 15.0512 66.2341C13.868 64.8662 12.7717 63.4309 11.7684 61.9362C9.41381 58.6226 7.5673 55.001 6.28549 51.1825C4.74567 46.7471 4 42.4958 4 38.3376C4 33.6937 5.04579 29.6397 7.09119 26.2333C8.60742 23.5708 10.8367 21.3458 13.5483 19.7886C16.1762 18.2206 19.1956 17.3626 22.2886 17.3048C23.3713 17.3048 24.5371 17.4556 25.7745 17.7439C26.6633 17.9856 27.7461 18.3671 29.0689 18.8417C30.7518 19.4648 31.6776 19.8463 31.9915 19.9394C32.9773 20.2854 33.8061 20.4362 34.4571 20.4362C34.9511 20.4362 35.6483 20.2854 36.4402 20.0548C36.8857 19.904 37.726 19.6378 38.9288 19.1433C40.12 18.7263 41.0573 18.3693 41.803 18.1032C42.9457 17.7794 44.0516 17.48 45.0373 17.3292C46.206 17.1522 47.3919 17.1053 48.5718 17.1895C50.6163 17.3178 52.6301 17.734 54.5487 18.4247C57.686 19.6378 60.2232 21.5318 62.1116 24.2241C61.3134 24.6966 60.5643 25.2417 59.8746 25.8519C58.3731 27.1305 57.0941 28.6317 56.0862 30.2984C54.7687 32.5761 54.0856 35.142 54.1031 37.7477C54.1516 40.9478 55.0058 43.7665 56.6887 46.2038C57.926 48.0101 59.534 49.5549 61.4144 50.7434C62.3771 51.3666 63.2059 51.7946 64 52.0829C63.6283 53.1918 63.2312 54.2652 62.7626 55.3297C61.6997 57.7168 60.4116 60.0054 58.9142 62.1669C57.5798 64.0275 56.534 65.4136 55.7399 66.3362C54.5025 67.7444 53.3113 68.82 52.1085 69.5696C50.7857 70.4123 49.2228 70.8625 47.6345 70.8625C46.5588 70.9022 45.4834 70.7772 44.4486 70.4921C43.5598 70.2038 42.6803 69.8911 41.8145 69.5341C40.9145 69.137 39.9865 68.8013 39.0373 68.5295C36.6911 67.9506 34.2312 67.9468 31.883 68.5184C30.9204 68.7845 29.9946 69.095 29.0804 69.4764C27.7945 69.9954 26.9404 70.3436 26.4463 70.4921C25.4606 70.7694 24.4379 70.9423 23.4036 71C21.8038 71 20.3124 70.5609 18.8349 69.6716L18.8742 69.6405ZM39.9746 15.0516C37.883 16.0562 35.8861 16.4842 33.903 16.3445C33.5914 14.4262 33.903 12.4635 34.7318 10.3146C35.4374 8.49398 36.48 6.811 37.8092 5.3469C39.2128 3.80564 40.916 2.54233 42.8234 1.6278C44.8549 0.623177 46.7918 0.0798376 48.6433 0C48.8834 2.00925 48.6433 3.98523 47.8746 6.12088C47.1631 8.00878 46.1225 9.76664 44.7972 11.3192C43.4445 12.8626 41.7845 14.1308 39.9146 15.0494L39.9746 15.0516Z" fill="#E12E8B"/>
</g>
<defs>
<filter id="filter0_di" x="0" y="0" width="68" height="79" filterUnits="userSpaceOnUse" color-interpolation-filters="sRGB">
<feFlood flood-opacity="0" result="BackgroundImageFix"/>
<feColorMatrix in="SourceAlpha" type="matrix" values="0 0 0 0 0 0 0 0 0 0 0 0 0 0 0 0 0 0 127 0"/>
<feOffset dy="4"/>
<feGaussianBlur stdDeviation="2"/>
<feColorMatrix type="matrix" values="0 0 0 0 0 0 0 0 0 0 0 0 0 0 0 0 0 0 0.25 0"/>
<feBlend mode="normal" in2="BackgroundImageFix" result="effect1_dropShadow"/>
<feBlend mode="normal" in="SourceGraphic" in2="effect1_dropShadow" result="shape"/>
<feColorMatrix in="SourceAlpha" type="matrix" values="0 0 0 0 0 0 0 0 0 0 0 0 0 0 0 0 0 0 127 0" result="hardAlpha"/>
<feOffset dy="4"/>
<feGaussianBlur stdDeviation="2"/>
<feComposite in2="hardAlpha" operator="arithmetic" k2="-1" k3="1"/>
<feColorMatrix type="matrix" values="0 0 0 0 0 0 0 0 0 0 0 0 0 0 0 0 0 0 0.25 0"/>
<feBlend mode="normal" in2="shape" result="effect2_innerShadow"/>
</filter>
</defs>
</svg>
