<svg width="36" height="35" viewBox="0 0 36 35" fill="none" xmlns="http://www.w3.org/2000/svg">
<g filter="url(#filter0_d)">
<path fill-rule="evenodd" clip-rule="evenodd" d="M31.4139 1.42776C31.7892 1.90379 32 2.54933 32 3.22243C32 3.89553 31.7892 4.54108 31.4139 5.0171L15.3996 25.3246C15.0242 25.8005 14.5151 26.0678 13.9843 26.0678C13.4535 26.0678 12.9445 25.8005 12.5691 25.3246L4.56193 15.1708C4.19728 14.6921 3.99551 14.0509 4.00008 13.3853C4.00464 12.7197 4.21516 12.0831 4.58631 11.6124C4.95746 11.1418 5.45953 10.8748 5.98439 10.869C6.50926 10.8632 7.01491 11.1191 7.39245 11.5815L13.9843 19.9406L28.5834 1.42776C28.9588 0.951876 29.4678 0.68454 29.9986 0.68454C30.5294 0.68454 31.0385 0.951876 31.4139 1.42776Z" fill="#FAD655" fill-opacity="0.65"/>
</g>
<defs>
<filter id="filter0_d" x="0" y="0.68454" width="36" height="33.3832" filterUnits="userSpaceOnUse" color-interpolation-filters="sRGB">
<feFlood flood-opacity="0" result="BackgroundImageFix"/>
<feColorMatrix in="SourceAlpha" type="matrix" values="0 0 0 0 0 0 0 0 0 0 0 0 0 0 0 0 0 0 127 0"/>
<feOffset dy="4"/>
<feGaussianBlur stdDeviation="2"/>
<feColorMatrix type="matrix" values="0 0 0 0 0 0 0 0 0 0 0 0 0 0 0 0 0 0 0.25 0"/>
<feBlend mode="normal" in2="BackgroundImageFix" result="effect1_dropShadow"/>
<feBlend mode="normal" in="SourceGraphic" in2="effect1_dropShadow" result="shape"/>
</filter>
</defs>
</svg>
