<svg width="36" height="34" viewBox="0 0 36 34" fill="none" xmlns="http://www.w3.org/2000/svg">
<g filter="url(#filter0_d)">
<path fill-rule="evenodd" clip-rule="evenodd" d="M31.4139 0.949213C31.7892 1.42524 32 2.07078 32 2.74388C32 3.41699 31.7892 4.06253 31.4139 4.53856L15.3996 24.846C15.0242 25.3219 14.5151 25.5892 13.9843 25.5892C13.4535 25.5892 12.9445 25.3219 12.5691 24.846L4.56193 14.6923C4.19728 14.2135 3.99551 13.5723 4.00008 12.9068C4.00464 12.2412 4.21516 11.6045 4.58631 11.1339C4.95746 10.6632 5.45953 10.3963 5.98439 10.3905C6.50926 10.3847 7.01491 10.6406 7.39245 11.1029L13.9843 19.462L28.5834 0.949213C28.9588 0.47333 29.4678 0.205994 29.9986 0.205994C30.5294 0.205994 31.0385 0.47333 31.4139 0.949213Z" fill="#EA4C84" fill-opacity="0.71"/>
</g>
<defs>
<filter id="filter0_d" x="0" y="0.205994" width="36" height="33.3832" filterUnits="userSpaceOnUse" color-interpolation-filters="sRGB">
<feFlood flood-opacity="0" result="BackgroundImageFix"/>
<feColorMatrix in="SourceAlpha" type="matrix" values="0 0 0 0 0 0 0 0 0 0 0 0 0 0 0 0 0 0 127 0"/>
<feOffset dy="4"/>
<feGaussianBlur stdDeviation="2"/>
<feColorMatrix type="matrix" values="0 0 0 0 0 0 0 0 0 0 0 0 0 0 0 0 0 0 0.25 0"/>
<feBlend mode="normal" in2="BackgroundImageFix" result="effect1_dropShadow"/>
<feBlend mode="normal" in="SourceGraphic" in2="effect1_dropShadow" result="shape"/>
</filter>
</defs>
</svg>
