<svg width="36" height="34" viewBox="0 0 36 34" fill="none" xmlns="http://www.w3.org/2000/svg">
<g filter="url(#filter0_d)">
<path fill-rule="evenodd" clip-rule="evenodd" d="M31.4139 0.906275C31.7892 1.3823 32 2.02784 32 2.70095C32 3.37405 31.7892 4.01959 31.4139 4.49562L15.3996 24.8031C15.0242 25.279 14.5151 25.5463 13.9843 25.5463C13.4535 25.5463 12.9445 25.279 12.5691 24.8031L4.56193 14.6494C4.19728 14.1706 3.99551 13.5294 4.00008 12.8638C4.00464 12.1982 4.21516 11.5616 4.58631 11.0909C4.95746 10.6203 5.45953 10.3533 5.98439 10.3475C6.50926 10.3418 7.01491 10.5976 7.39245 11.06L13.9843 19.4191L28.5834 0.906275C28.9588 0.430392 29.4678 0.163055 29.9986 0.163055C30.5294 0.163055 31.0385 0.430392 31.4139 0.906275Z" fill="#CE7AF6" fill-opacity="0.6"/>
</g>
<defs>
<filter id="filter0_d" x="0" y="0.163055" width="36" height="33.3832" filterUnits="userSpaceOnUse" color-interpolation-filters="sRGB">
<feFlood flood-opacity="0" result="BackgroundImageFix"/>
<feColorMatrix in="SourceAlpha" type="matrix" values="0 0 0 0 0 0 0 0 0 0 0 0 0 0 0 0 0 0 127 0"/>
<feOffset dy="4"/>
<feGaussianBlur stdDeviation="2"/>
<feColorMatrix type="matrix" values="0 0 0 0 0 0 0 0 0 0 0 0 0 0 0 0 0 0 0.25 0"/>
<feBlend mode="normal" in2="BackgroundImageFix" result="effect1_dropShadow"/>
<feBlend mode="normal" in="SourceGraphic" in2="effect1_dropShadow" result="shape"/>
</filter>
</defs>
</svg>
