<svg width="36" height="34" viewBox="0 0 36 34" fill="none" xmlns="http://www.w3.org/2000/svg">
<g filter="url(#filter0_d)">
<path fill-rule="evenodd" clip-rule="evenodd" d="M31.4139 0.917414C31.7892 1.39344 32 2.03898 32 2.71209C32 3.38519 31.7892 4.03073 31.4139 4.50676L15.3996 24.8142C15.0242 25.2901 14.5151 25.5574 13.9843 25.5574C13.4535 25.5574 12.9445 25.2901 12.5691 24.8142L4.56193 14.6605C4.19728 14.1817 3.99551 13.5405 4.00008 12.875C4.00464 12.2094 4.21516 11.5727 4.58631 11.1021C4.95746 10.6314 5.45953 10.3645 5.98439 10.3587C6.50926 10.3529 7.01491 10.6088 7.39245 11.0711L13.9843 19.4302L28.5834 0.917414C28.9588 0.441531 29.4678 0.174194 29.9986 0.174194C30.5294 0.174194 31.0385 0.441531 31.4139 0.917414Z" fill="#7AB6F6"/>
</g>
<defs>
<filter id="filter0_d" x="0" y="0.174194" width="36" height="33.3832" filterUnits="userSpaceOnUse" color-interpolation-filters="sRGB">
<feFlood flood-opacity="0" result="BackgroundImageFix"/>
<feColorMatrix in="SourceAlpha" type="matrix" values="0 0 0 0 0 0 0 0 0 0 0 0 0 0 0 0 0 0 127 0"/>
<feOffset dy="4"/>
<feGaussianBlur stdDeviation="2"/>
<feColorMatrix type="matrix" values="0 0 0 0 0 0 0 0 0 0 0 0 0 0 0 0 0 0 0.25 0"/>
<feBlend mode="normal" in2="BackgroundImageFix" result="effect1_dropShadow"/>
<feBlend mode="normal" in="SourceGraphic" in2="effect1_dropShadow" result="shape"/>
</filter>
</defs>
</svg>
