<svg width="36" height="274" viewBox="0 0 36 274" fill="none" xmlns="http://www.w3.org/2000/svg">
<g filter="url(#filter0_d)">
<path fill-rule="evenodd" clip-rule="evenodd" d="M31.4139 0.502766C31.7892 0.824785 32 1.26148 32 1.71681C32 2.17214 31.7892 2.60884 31.4139 2.93085L15.3996 16.6683C15.0242 16.9902 14.5151 17.171 13.9843 17.171C13.4535 17.171 12.9445 16.9902 12.5691 16.6683L4.56193 9.79956C4.19728 9.4757 3.99551 9.04194 4.00008 8.5917C4.00464 8.14146 4.21516 7.71077 4.58631 7.39239C4.95746 7.07401 5.45953 6.89342 5.98439 6.88951C6.50926 6.8856 7.01491 7.05868 7.39245 7.37148L13.9843 13.0261L28.5834 0.502766C28.9588 0.180845 29.4678 0 29.9986 0C30.5294 0 31.0385 0.180845 31.4139 0.502766Z" fill="#F1A09D"/>
</g>
<g filter="url(#filter1_d)">
<path fill-rule="evenodd" clip-rule="evenodd" d="M31.4139 56.0913C31.7892 56.4133 32 56.85 32 57.3053C32 57.7606 31.7892 58.1973 31.4139 58.5194L15.3996 72.2568C15.0242 72.5787 14.5151 72.7595 13.9843 72.7595C13.4535 72.7595 12.9445 72.5787 12.5691 72.2568L4.56193 65.3881C4.19728 65.0642 3.99551 64.6304 4.00008 64.1802C4.00464 63.73 4.21516 63.2993 4.58631 62.9809C4.95746 62.6625 5.45953 62.4819 5.98439 62.478C6.50926 62.4741 7.01491 62.6472 7.39245 62.96L13.9843 68.6146L28.5834 56.0913C28.9588 55.7693 29.4678 55.5885 29.9986 55.5885C30.5294 55.5885 31.0385 55.7693 31.4139 56.0913Z" fill="#7AB6F6"/>
</g>
<g filter="url(#filter2_d)">
<path fill-rule="evenodd" clip-rule="evenodd" d="M31.4139 119.701C31.7892 120.023 32 120.46 32 120.915C32 121.37 31.7892 121.807 31.4139 122.129L15.3996 135.867C15.0242 136.188 14.5151 136.369 13.9843 136.369C13.4535 136.369 12.9445 136.188 12.5691 135.867L4.56193 128.998C4.19728 128.674 3.99551 128.24 4.00008 127.79C4.00464 127.34 4.21516 126.909 4.58631 126.591C4.95746 126.272 5.45953 126.092 5.98439 126.088C6.50926 126.084 7.01491 126.257 7.39245 126.57L13.9843 132.224L28.5834 119.701C28.9588 119.379 29.4678 119.198 29.9986 119.198C30.5294 119.198 31.0385 119.379 31.4139 119.701Z" fill="#EA4C84" fill-opacity="0.71"/>
</g>
<g filter="url(#filter3_d)">
<path fill-rule="evenodd" clip-rule="evenodd" d="M31.4139 184.29C31.7892 184.612 32 185.048 32 185.504C32 185.959 31.7892 186.396 31.4139 186.718L15.3996 200.455C15.0242 200.777 14.5151 200.958 13.9843 200.958C13.4535 200.958 12.9445 200.777 12.5691 200.455L4.56193 193.586C4.19728 193.263 3.99551 192.829 4.00008 192.379C4.00464 191.928 4.21516 191.498 4.58631 191.179C4.95746 190.861 5.45953 190.68 5.98439 190.676C6.50926 190.672 7.01491 190.845 7.39245 191.158L13.9843 196.813L28.5834 184.29C28.9588 183.968 29.4678 183.787 29.9986 183.787C30.5294 183.787 31.0385 183.968 31.4139 184.29Z" fill="#FAD655" fill-opacity="0.65"/>
</g>
<g filter="url(#filter4_d)">
<path fill-rule="evenodd" clip-rule="evenodd" d="M31.4139 248.878C31.7892 249.2 32 249.637 32 250.092C32 250.547 31.7892 250.984 31.4139 251.306L15.3996 265.044C15.0242 265.365 14.5151 265.546 13.9843 265.546C13.4535 265.546 12.9445 265.365 12.5691 265.044L4.56193 258.175C4.19728 257.851 3.99551 257.417 4.00008 256.967C4.00464 256.517 4.21516 256.086 4.58631 255.768C4.95746 255.449 5.45953 255.269 5.98439 255.265C6.50926 255.261 7.01491 255.434 7.39245 255.747L13.9843 261.401L28.5834 248.878C28.9588 248.556 29.4678 248.375 29.9986 248.375C30.5294 248.375 31.0385 248.556 31.4139 248.878Z" fill="#CE7AF6" fill-opacity="0.6"/>
</g>
<defs>
<filter id="filter0_d" x="0" y="0" width="36" height="25.171" filterUnits="userSpaceOnUse" color-interpolation-filters="sRGB">
<feFlood flood-opacity="0" result="BackgroundImageFix"/>
<feColorMatrix in="SourceAlpha" type="matrix" values="0 0 0 0 0 0 0 0 0 0 0 0 0 0 0 0 0 0 127 0"/>
<feOffset dy="4"/>
<feGaussianBlur stdDeviation="2"/>
<feColorMatrix type="matrix" values="0 0 0 0 0 0 0 0 0 0 0 0 0 0 0 0 0 0 0.25 0"/>
<feBlend mode="normal" in2="BackgroundImageFix" result="effect1_dropShadow"/>
<feBlend mode="normal" in="SourceGraphic" in2="effect1_dropShadow" result="shape"/>
</filter>
<filter id="filter1_d" x="0" y="55.5885" width="36" height="25.171" filterUnits="userSpaceOnUse" color-interpolation-filters="sRGB">
<feFlood flood-opacity="0" result="BackgroundImageFix"/>
<feColorMatrix in="SourceAlpha" type="matrix" values="0 0 0 0 0 0 0 0 0 0 0 0 0 0 0 0 0 0 127 0"/>
<feOffset dy="4"/>
<feGaussianBlur stdDeviation="2"/>
<feColorMatrix type="matrix" values="0 0 0 0 0 0 0 0 0 0 0 0 0 0 0 0 0 0 0.25 0"/>
<feBlend mode="normal" in2="BackgroundImageFix" result="effect1_dropShadow"/>
<feBlend mode="normal" in="SourceGraphic" in2="effect1_dropShadow" result="shape"/>
</filter>
<filter id="filter2_d" x="0" y="119.198" width="36" height="25.171" filterUnits="userSpaceOnUse" color-interpolation-filters="sRGB">
<feFlood flood-opacity="0" result="BackgroundImageFix"/>
<feColorMatrix in="SourceAlpha" type="matrix" values="0 0 0 0 0 0 0 0 0 0 0 0 0 0 0 0 0 0 127 0"/>
<feOffset dy="4"/>
<feGaussianBlur stdDeviation="2"/>
<feColorMatrix type="matrix" values="0 0 0 0 0 0 0 0 0 0 0 0 0 0 0 0 0 0 0.25 0"/>
<feBlend mode="normal" in2="BackgroundImageFix" result="effect1_dropShadow"/>
<feBlend mode="normal" in="SourceGraphic" in2="effect1_dropShadow" result="shape"/>
</filter>
<filter id="filter3_d" x="0" y="183.787" width="36" height="25.171" filterUnits="userSpaceOnUse" color-interpolation-filters="sRGB">
<feFlood flood-opacity="0" result="BackgroundImageFix"/>
<feColorMatrix in="SourceAlpha" type="matrix" values="0 0 0 0 0 0 0 0 0 0 0 0 0 0 0 0 0 0 127 0"/>
<feOffset dy="4"/>
<feGaussianBlur stdDeviation="2"/>
<feColorMatrix type="matrix" values="0 0 0 0 0 0 0 0 0 0 0 0 0 0 0 0 0 0 0.25 0"/>
<feBlend mode="normal" in2="BackgroundImageFix" result="effect1_dropShadow"/>
<feBlend mode="normal" in="SourceGraphic" in2="effect1_dropShadow" result="shape"/>
</filter>
<filter id="filter4_d" x="0" y="248.375" width="36" height="25.171" filterUnits="userSpaceOnUse" color-interpolation-filters="sRGB">
<feFlood flood-opacity="0" result="BackgroundImageFix"/>
<feColorMatrix in="SourceAlpha" type="matrix" values="0 0 0 0 0 0 0 0 0 0 0 0 0 0 0 0 0 0 127 0"/>
<feOffset dy="4"/>
<feGaussianBlur stdDeviation="2"/>
<feColorMatrix type="matrix" values="0 0 0 0 0 0 0 0 0 0 0 0 0 0 0 0 0 0 0.25 0"/>
<feBlend mode="normal" in2="BackgroundImageFix" result="effect1_dropShadow"/>
<feBlend mode="normal" in="SourceGraphic" in2="effect1_dropShadow" result="shape"/>
</filter>
</defs>
</svg>

