<svg width="346" height="323" viewBox="0 0 346 323" fill="none" xmlns="http://www.w3.org/2000/svg">
<g clip-path="url(#clip0)">
<path opacity="0.1" d="M106.839 82.1864C118.593 70.5154 137.007 68.1147 153.781 69.0474C206.478 71.9719 254.022 100.394 295.157 132.506C310.049 144.143 324.712 156.681 334.379 172.707C354.059 205.323 348.221 250.508 320.859 277.379C311.548 286.519 300.263 293.53 288.693 299.742C268.093 310.786 245.865 319.655 222.483 322.178C205.808 323.979 188.948 322.518 172.355 320.007C126.043 312.988 80.5827 297.452 42.4797 270.926C25.7705 259.285 10.0194 244.808 3.1277 225.973C-3.76403 207.138 0.633128 183.288 17.6982 172.141C24.7542 167.53 33.1926 165.451 41.4531 163.494C53.6146 160.615 65.9712 157.759 76.9418 151.926C88.2752 145.882 101.696 134.196 99.4546 120.82C97.0353 106.45 95.1122 93.8574 106.839 82.1864Z" fill="#EA4C84"/>
<path d="M97.3774 294.425C97.3774 294.425 81.6366 293.366 83.4844 305.694C83.4844 305.694 83.1183 307.873 84.884 308.863C84.884 308.863 84.9114 307.95 86.4992 308.259C87.0644 308.363 87.6385 308.394 88.2101 308.351C88.9836 308.291 89.7186 307.951 90.3043 307.384C90.3043 307.384 94.7288 305.343 96.4638 297.261C96.4638 297.261 97.7401 295.495 97.6888 295.044L95.03 296.309C95.03 296.309 95.9368 298.454 95.225 300.231C95.225 300.231 95.1395 296.409 94.6262 296.481C94.5235 296.481 93.2574 297.223 93.2574 297.223C93.2574 297.223 94.8212 300.954 93.6407 303.664C93.6407 303.664 94.089 299.077 92.7681 297.491L90.8758 298.71C90.8758 298.71 92.6997 302.567 91.4609 305.71C91.4609 305.71 91.7792 300.885 90.4823 299.008L88.7713 300.488C88.7713 300.488 90.4823 304.284 89.4557 306.891C89.4557 306.891 89.3188 301.279 88.4291 300.855C88.4291 300.855 86.9474 302.315 86.7182 302.915C86.7182 302.915 87.8953 305.671 87.1664 307.12C87.1664 307.12 86.7182 303.378 86.352 303.362C86.352 303.362 84.8737 305.84 84.7198 307.537C84.7198 307.537 84.7848 305.01 85.9927 303.125C85.9927 303.125 84.5658 303.397 83.7308 304.433C83.7308 304.433 83.9601 302.682 86.3589 302.521C86.3589 302.521 87.5805 300.641 87.9056 300.526C87.9056 300.526 85.5102 300.304 84.0764 301.019C84.0764 301.019 85.3494 299.368 88.3436 300.117L90.0169 298.588C90.0169 298.588 86.879 298.106 85.5479 298.637C85.5479 298.637 87.0775 297.177 90.4686 298.255L92.289 297.039C92.289 297.039 89.6131 296.393 88.0185 296.627C88.0185 296.627 89.7021 295.614 92.8092 296.711L94.1266 296.061C94.1266 296.061 92.1658 295.633 91.591 295.564C91.0161 295.495 90.9887 295.319 90.9887 295.319C92.2304 295.088 93.5051 295.247 94.6707 295.778C94.6707 295.778 97.4356 294.62 97.3774 294.425Z" fill="#EA4C84"/>
<path opacity="0.1" d="M86.5402 312.044C92.6955 312.044 97.6854 311.101 97.6854 309.938C97.6854 308.774 92.6955 307.831 86.5402 307.831C80.3849 307.831 75.395 308.774 75.395 309.938C75.395 311.101 80.3849 312.044 86.5402 312.044Z" fill="#EA4C84"/>
<path d="M127.6 261.942C127.6 261.942 118.72 261.342 119.767 268.292C119.712 268.645 119.759 269.008 119.901 269.329C120.042 269.65 120.271 269.914 120.554 270.081C120.554 270.081 120.554 269.565 121.464 269.741C121.783 269.798 122.107 269.814 122.429 269.79C122.865 269.758 123.28 269.567 123.61 269.248C123.61 269.248 126.104 268.101 127.076 263.536C127.076 263.536 127.795 262.542 127.761 262.29L126.262 263.005C126.262 263.005 126.772 264.209 126.371 265.215C126.371 265.215 126.32 263.047 126.029 263.097C125.971 263.097 125.252 263.517 125.252 263.517C125.252 263.517 126.132 265.62 125.468 267.149C125.468 267.149 125.721 264.557 124.975 263.67L123.921 264.358C123.921 264.358 124.948 266.53 124.263 268.303C124.263 268.303 124.441 265.582 123.709 264.523L122.754 265.356C122.754 265.356 123.723 267.497 123.131 268.969C123.131 268.969 123.055 265.803 122.546 265.562C122.185 265.9 121.862 266.285 121.584 266.709C121.584 266.709 122.244 268.261 121.834 269.083C121.834 269.083 121.584 266.973 121.375 266.965C121.375 266.965 120.544 268.361 120.458 269.316C120.498 268.431 120.745 267.573 121.173 266.828C120.693 266.931 120.251 267.189 119.9 267.569C119.9 267.569 120.027 266.579 121.379 266.491C121.379 266.491 122.063 265.432 122.251 265.367C122.251 265.367 120.91 265.245 120.092 265.647C120.092 265.647 120.811 264.714 122.487 265.138L123.432 264.278C123.432 264.278 121.663 264.007 120.913 264.305C120.913 264.305 121.776 263.483 123.685 264.083L124.712 263.395C123.926 263.202 123.12 263.125 122.316 263.166C122.316 263.166 123.264 262.592 125.026 263.211L125.759 262.829C125.759 262.829 124.653 262.584 124.332 262.546C124.01 262.508 123.99 262.409 123.99 262.409C124.69 262.279 125.409 262.369 126.067 262.669C126.067 262.669 127.624 262.038 127.6 261.942Z" fill="#EA4C84"/>
<path opacity="0.1" d="M121.481 271.874C124.951 271.874 127.764 271.343 127.764 270.689C127.764 270.034 124.951 269.504 121.481 269.504C118.012 269.504 115.199 270.034 115.199 270.689C115.199 271.343 118.012 271.874 121.481 271.874Z" fill="#EA4C84"/>
<path d="M75.1932 267.971C75.1932 267.971 64.4723 267.252 65.735 275.643C65.67 276.069 65.7271 276.506 65.8979 276.893C66.0687 277.281 66.3446 277.598 66.6863 277.799C66.6863 277.799 66.7068 277.176 67.7881 277.386C68.1723 277.459 68.5628 277.481 68.9516 277.451C69.4779 277.413 69.9783 277.182 70.3751 276.794C70.3751 276.794 73.3898 275.402 74.5601 269.913C74.5601 269.913 75.4293 268.712 75.395 268.384L73.5848 269.248C73.5848 269.248 74.2042 270.704 73.7183 271.924C73.7183 271.924 73.6567 269.309 73.3111 269.37C73.2392 269.37 72.3701 269.875 72.3701 269.875C72.3701 269.875 73.4343 272.417 72.6301 274.259C72.6301 274.259 72.9347 271.132 72.0381 270.054L70.7652 270.884C70.7652 270.884 72.0073 273.51 71.1656 275.651C71.1656 275.651 71.3811 272.367 70.4983 271.086L69.3451 272.092C69.3451 272.092 70.512 274.68 69.8002 276.454C69.8002 276.454 69.7044 272.631 69.0919 272.344C69.0919 272.344 68.0824 273.338 67.9284 273.747C67.9284 273.747 68.7291 275.624 68.233 276.614C68.233 276.614 67.9284 274.068 67.6786 274.057C67.6786 274.057 66.6726 275.743 66.5699 276.901C66.617 275.829 66.9156 274.79 67.4357 273.889C66.8552 274.01 66.3197 274.32 65.8958 274.779C65.8958 274.779 66.0532 273.587 67.6855 273.479C67.6855 273.479 68.5136 272.203 68.7394 272.122C68.7394 272.122 67.114 271.973 66.1319 272.459C66.1319 272.459 66.9977 271.335 69.0337 271.843L70.1732 270.83C70.1732 270.83 68.0379 270.502 67.1311 270.865C67.1311 270.865 68.1748 269.867 70.4812 270.593L71.7233 269.764C71.7233 269.764 69.8994 269.328 68.8147 269.485C68.8147 269.485 69.961 268.797 72.086 269.542L72.9723 269.099C72.9723 269.099 71.6378 268.804 71.2614 268.758C70.885 268.712 70.8473 268.59 70.8473 268.59C71.6933 268.433 72.5615 268.542 73.3556 268.904C73.3556 268.904 75.2239 268.105 75.1932 267.971Z" fill="#EA4C84"/>
<path opacity="0.1" d="M67.8053 279.967C71.9951 279.967 75.3916 279.325 75.3916 278.533C75.3916 277.741 71.9951 277.1 67.8053 277.1C63.6154 277.1 60.2189 277.741 60.2189 278.533C60.2189 279.325 63.6154 279.967 67.8053 279.967Z" fill="#EA4C84"/>
<path d="M165.525 73.8833C162.692 75.1104 159.492 76.781 158.756 80.0724C158.522 81.3427 158.583 82.659 158.934 83.8952C159.35 85.493 160.045 86.983 160.979 88.2794C161.913 89.5758 163.067 90.6531 164.375 91.4491C167.629 93.4025 171.671 93.5096 174.641 95.9409C176.457 97.4399 177.691 99.6584 178.09 102.141C178.251 103.181 178.265 104.263 178.607 105.249C179.52 107.891 182.395 108.919 184.927 109.072C186.145 109.152 187.48 109.156 188.411 110.039C188.783 110.432 189.099 110.886 189.348 111.385C191.319 114.898 193.359 118.648 193.379 122.804C193.379 126.061 192.147 129.157 190.707 131.978C188.828 135.66 186.518 139.276 186.087 143.485C185.581 148.455 187.798 153.248 188.086 158.23C188.223 160.883 187.82 163.537 186.907 165.991C185.995 168.446 184.596 170.637 182.816 172.401" stroke="#444053" stroke-miterlimit="10"/>
<path d="M154.058 30.4028C156.234 48.11 155.865 70.3778 141.633 72.5606C127.401 74.7435 104.7 56.0117 102.51 38.3083C100.32 20.6049 110.107 4.48036 124.339 2.29754C138.57 0.114723 151.882 12.6994 154.058 30.4028Z" fill="#EA4C84"/>
<path d="M149.733 78.7535C149.733 78.7535 147.406 79.931 147.053 77.4003C147.025 77.1749 147.011 76.9474 147.012 76.7198C147.003 75.9361 146.872 75.1601 146.626 74.4261C146.539 74.1659 146.441 73.9107 146.331 73.6616C145.838 72.5328 145.175 71.5074 144.371 70.6301L149.846 65.9586C149.846 65.9586 148.881 69.7279 149.801 70.6339C149.936 70.7632 150.109 70.8313 150.287 70.825C150.453 70.8239 150.618 70.7889 150.773 70.7218C150.961 70.6492 151.132 70.5919 151.29 70.546C153.141 70.0184 153.001 71.3373 153.001 71.3373C154.462 74.1967 149.733 78.7535 149.733 78.7535Z" fill="#EA4C84"/>
<path d="M150.287 70.8021L146.632 74.4147C146.546 74.1545 146.448 73.8993 146.338 73.6501C147.327 72.8397 148.843 71.4864 149.801 70.6224C149.938 70.7476 150.111 70.8116 150.287 70.8021Z" fill="#444053"/>
<path d="M149.733 78.7535C149.733 78.7535 147.406 79.9309 147.053 77.4002C147.993 77.015 148.855 76.428 149.592 75.6723C150.568 74.5675 151.512 72.0712 151.283 70.523C153.134 69.9955 152.994 71.3143 152.994 71.3143C154.462 74.1967 149.733 78.7535 149.733 78.7535Z" fill="#EA4C84"/>
<path opacity="0.1" d="M149.733 78.7535C149.733 78.7535 147.406 79.9309 147.053 77.4002C147.993 77.015 148.855 76.428 149.592 75.6723C150.568 74.5675 151.512 72.0712 151.283 70.523C153.134 69.9955 152.994 71.3143 152.994 71.3143C154.462 74.1967 149.733 78.7535 149.733 78.7535Z" fill="black"/>
<path opacity="0.1" d="M114.23 11.8239C114.23 11.8239 107.332 15.7193 108.355 21.809C108.355 21.809 109.539 20.5551 110.75 20.257C111.36 20.1433 111.936 19.8709 112.434 19.4618C112.434 19.4618 111.842 16.0977 114.23 11.8239Z" fill="white"/>
<path d="M159.441 118.339C159.163 120.418 158.622 122.443 157.832 124.352C157.624 124.887 157.394 125.43 157.148 125.965C150.705 139.781 132.798 153.275 119.425 151.249C106.938 149.357 97.2953 139.754 94.6981 127.995C94.5715 127.422 94.4585 126.848 94.3559 126.252C93.9326 123.562 93.8841 120.815 94.2121 118.109C95.7794 105.249 105.504 95.6312 117.57 93.7083C118.635 93.533 119.708 93.4232 120.783 93.3795C121.303 93.3528 121.83 93.3451 122.361 93.3528C123.716 93.3622 125.069 93.4694 126.412 93.6739C127.155 93.7886 127.915 93.9071 128.674 94.0562C128.739 94.0562 128.801 94.0829 128.866 94.0906C133.488 94.8562 138.046 96.0427 142.495 97.6382C143.864 98.1466 145.188 98.6894 146.461 99.3087C147.348 99.7254 148.21 100.173 149.041 100.647C152.775 102.765 155.831 105.414 157.675 108.72C157.86 109.049 158.017 109.382 158.188 109.73L158.26 109.89C158.89 111.277 159.299 112.777 159.468 114.321C159.617 115.656 159.607 117.006 159.441 118.339Z" fill="#EA4C84"/>
<path opacity="0.1" d="M159.441 118.339C159.163 120.418 158.622 122.443 157.832 124.352C157.624 124.887 157.394 125.43 157.148 125.965C150.705 139.781 132.798 153.275 119.425 151.249C106.938 149.357 97.2953 139.754 94.6981 127.995C94.5715 127.422 94.4585 126.848 94.3559 126.252C93.9326 123.562 93.8841 120.815 94.2121 118.109C95.7794 105.249 105.504 95.6312 117.57 93.7083C118.635 93.533 119.708 93.4232 120.783 93.3795C121.303 93.3528 121.83 93.3451 122.361 93.3528C123.716 93.3622 125.069 93.4694 126.412 93.6739C127.155 93.7886 127.915 93.9071 128.674 94.0562C128.739 94.0562 128.801 94.0829 128.866 94.0906C133.488 94.8562 138.046 96.0427 142.495 97.6382C143.864 98.1466 145.188 98.6894 146.461 99.3087C147.348 99.7254 148.21 100.173 149.041 100.647C152.775 102.765 155.831 105.414 157.675 108.72C157.86 109.049 158.017 109.382 158.188 109.73L158.26 109.89C158.89 111.277 159.299 112.777 159.468 114.321C159.617 115.656 159.607 117.006 159.441 118.339Z" fill="black"/>
<path d="M165.066 113.786C164.863 113.763 164.663 113.719 164.467 113.652C163.787 113.45 163.081 113.384 162.38 113.457C162.125 113.473 161.871 113.509 161.62 113.564C160.877 113.711 160.153 113.96 159.465 114.306C159.13 114.466 158.804 114.65 158.489 114.856L156.72 109.936L156.696 109.863L155.93 107.73C156.488 108.104 157.07 108.43 157.672 108.705C158.513 109.087 159.448 109.382 159.944 109.026C160.089 108.912 160.193 108.744 160.238 108.552C160.283 108.372 160.297 108.184 160.279 107.998C160.279 107.776 160.262 107.577 160.262 107.39C160.31 105.265 161.415 105.758 161.415 105.758C162.685 105.41 163.917 106.454 164.892 107.711C165.036 107.902 165.172 108.094 165.299 108.277C165.933 109.214 166.488 110.215 166.955 111.266C166.955 111.266 167.345 114.095 165.066 113.786Z" fill="#EA4C84"/>
<path d="M162.394 113.457C162.139 113.474 161.885 113.509 161.634 113.564C161.292 112.482 160.676 110.888 160.197 109.661C160.166 109.569 160.132 109.489 160.101 109.401C160.07 109.313 159.998 109.141 159.957 109.019C160.103 108.905 160.207 108.737 160.252 108.545L160.573 109.286L160.7 109.581L162.394 113.457Z" fill="#444053"/>
<path d="M165.066 113.786C164.984 112.671 164.707 111.586 164.252 110.59C163.933 110.018 163.54 109.503 163.085 109.061C162.952 108.925 162.813 108.797 162.668 108.678C161.98 108.028 161.156 107.584 160.272 107.39C160.32 105.265 161.425 105.758 161.425 105.758C162.695 105.41 163.927 106.454 164.902 107.711C165.046 107.902 165.183 108.094 165.309 108.277C165.943 109.214 166.498 110.215 166.966 111.266C166.966 111.266 167.345 114.095 165.066 113.786Z" fill="#EA4C84"/>
<path opacity="0.1" d="M165.066 113.786C164.984 112.671 164.707 111.586 164.252 110.59C163.933 110.018 163.54 109.503 163.085 109.061C162.952 108.925 162.813 108.797 162.668 108.678C161.98 108.028 161.156 107.584 160.272 107.39C160.32 105.265 161.425 105.758 161.425 105.758C162.695 105.41 163.927 106.454 164.902 107.711C165.046 107.902 165.183 108.094 165.309 108.277C165.943 109.214 166.498 110.215 166.966 111.266C166.966 111.266 167.345 114.095 165.066 113.786Z" fill="black"/>
<path opacity="0.1" d="M99.718 131.554C99.718 131.554 101.227 140.025 106.753 140.553C106.753 140.553 105.99 138.944 106.069 137.575C106.137 136.887 106.057 136.191 105.836 135.545C105.836 135.545 102.764 135.274 99.718 131.554Z" fill="white"/>
<path d="M179.37 43.5112C176.588 50.6101 172.998 58.1563 168.745 63.9096C165.484 68.3403 161.822 71.6967 157.839 72.9735C156.12 73.5318 154.312 73.6622 152.542 73.3558C151.347 73.1506 150.182 72.7648 149.079 72.2089C141.308 68.4052 134.426 56.6692 131.412 44.3025C129.328 35.7279 129.095 26.8782 131.723 20.173C138.143 3.82666 154.01 -4.22034 167.184 2.21726C180.359 8.65486 185.786 27.1419 179.37 43.5112Z" fill="#EA4C84"/>
<path opacity="0.1" d="M179.37 43.5112C176.588 50.6101 172.998 58.1563 168.745 63.9096C165.484 68.3403 161.822 71.6967 157.839 72.9735C156.12 73.5318 154.312 73.6622 152.542 73.3558C151.347 73.1506 150.182 72.7648 149.079 72.2089C141.308 68.4052 134.426 56.6692 131.412 44.3025C129.328 35.7279 129.095 26.8782 131.723 20.173C138.143 3.82666 154.01 -4.22034 167.184 2.21726C180.359 8.65486 185.786 27.1419 179.37 43.5112Z" fill="black"/>
<path d="M159.359 77.7979C159.256 81.1008 153.093 82.2361 153.093 82.2361C153.093 82.2361 150.557 81.8768 151.447 79.5181C151.525 79.309 151.618 79.1071 151.724 78.9141C152.087 78.2356 152.342 77.4918 152.477 76.716C152.525 76.437 152.566 76.1617 152.59 75.8865C152.66 75.0436 152.644 74.1946 152.542 73.3558C152.496 72.9523 152.426 72.5526 152.333 72.1592L159.177 71.3564C158.699 71.8608 158.252 72.401 157.839 72.9735C157.275 73.7763 156.785 74.6976 156.953 75.3207C156.981 75.4168 157.025 75.5058 157.084 75.5826C157.143 75.6593 157.214 75.7224 157.295 75.768C157.436 75.8673 157.593 75.9348 157.757 75.9667C157.933 76.005 158.107 76.0548 158.277 76.1158C160.087 76.7428 159.359 77.7979 159.359 77.7979Z" fill="#EA4C84"/>
<path d="M157.281 75.7679L152.491 76.716C152.539 76.4369 152.58 76.1617 152.604 75.8865C153.818 75.7679 155.745 75.5042 156.967 75.3207C157.016 75.5095 157.129 75.6697 157.281 75.7679Z" fill="#444053"/>
<path d="M159.359 77.7979C159.256 81.1008 153.093 82.2362 153.093 82.2362C153.093 82.2362 150.557 81.8768 151.447 79.5181C152.429 79.7355 153.439 79.7355 154.421 79.5181C155.762 79.1359 157.737 77.5723 158.264 76.1158C160.087 76.7428 159.359 77.7979 159.359 77.7979Z" fill="#EA4C84"/>
<path opacity="0.1" d="M159.359 77.7979C159.256 81.1008 153.093 82.2362 153.093 82.2362C153.093 82.2362 150.557 81.8768 151.447 79.5181C152.429 79.7355 153.439 79.7355 154.421 79.5181C155.762 79.1359 157.737 77.5723 158.264 76.1158C160.087 76.7428 159.359 77.7979 159.359 77.7979Z" fill="black"/>
<path opacity="0.1" d="M154.085 4.43834C154.085 4.43834 146.383 3.73494 144.408 9.53031C144.408 9.53031 146.003 9.14803 147.166 9.59147C147.739 9.85397 148.36 9.95885 148.976 9.8973C148.976 9.8973 150.048 6.67468 154.085 4.43834Z" fill="white"/>
<g opacity="0.1">
<path opacity="0.1" d="M75.3745 114.359C75.3129 115.724 76.0794 117.329 76.0794 117.329C70.5564 116.806 69.0439 108.338 69.0439 108.338C72.0894 112.054 75.1418 112.329 75.1418 112.329C75.3633 112.975 75.443 113.671 75.3745 114.359Z" fill="black"/>
<path opacity="0.1" d="M127.832 91.6364L125.276 84.5107C125.834 84.8841 126.416 85.21 127.018 85.4856C127.977 87.1821 128.588 89.0946 128.808 91.0859C128.473 91.2475 128.147 91.4313 127.832 91.6364Z" fill="black"/>
<path opacity="0.1" d="M128.859 94.0754C128.835 94.4156 128.804 94.7711 128.763 95.1228C128.484 97.2017 127.94 99.2253 127.148 101.132C126.939 101.667 126.707 102.21 126.464 102.749C120.941 114.6 106.993 126.21 94.6877 127.98C93.9718 124.748 93.8092 121.394 94.2087 118.094C95.7759 105.234 105.501 95.616 117.567 93.6931C120.498 93.2225 123.474 93.2109 126.409 93.6587C127.216 93.8001 128.038 93.9263 128.859 94.0754Z" fill="black"/>
<path opacity="0.1" d="M134.396 90.566C134.191 90.5437 133.99 90.4988 133.793 90.4322C133.114 90.2305 132.409 90.1645 131.709 90.2372C131.454 90.2534 131.201 90.2891 130.95 90.3443C129.847 90.5735 128.787 91.0104 127.815 91.6364L125.259 84.5107C125.817 84.8841 126.399 85.2099 127.001 85.4855C127.839 85.8678 128.773 86.1621 129.27 85.8066C129.415 85.6918 129.52 85.5243 129.567 85.3326C129.61 85.1519 129.622 84.9641 129.605 84.7783C129.605 84.5566 129.605 84.3616 129.605 84.1743C129.653 82.0488 130.755 82.5381 130.755 82.5381C133.626 81.7506 136.295 88.0468 136.295 88.0468C136.295 88.0468 136.671 90.8718 134.396 90.566Z" fill="black"/>
<path opacity="0.1" d="M131.709 90.2373C131.454 90.2534 131.201 90.2892 130.95 90.3443C130.525 89.0675 129.759 87.0758 129.27 85.8067C129.415 85.6919 129.52 85.5243 129.567 85.3326L131.709 90.2373Z" fill="black"/>
<path opacity="0.1" d="M134.396 90.566C134.31 89.4519 134.032 88.3667 133.578 87.3701C132.893 86.0283 130.987 84.3425 129.591 84.1743C129.639 82.0488 130.741 82.5381 130.741 82.5381C133.612 81.7506 136.281 88.0468 136.281 88.0468C136.281 88.0468 136.671 90.8718 134.396 90.566Z" fill="black"/>
<path opacity="0.1" d="M134.396 90.566C134.31 89.4519 134.032 88.3667 133.578 87.3701C132.893 86.0283 130.987 84.3425 129.591 84.1743C129.639 82.0488 130.741 82.5381 130.741 82.5381C133.612 81.7506 136.281 88.0468 136.281 88.0468C136.281 88.0468 136.671 90.8718 134.396 90.566Z" fill="black"/>
<path opacity="0.1" d="M76.0794 117.329C70.5564 116.806 69.0439 108.338 69.0439 108.338C72.0894 112.054 75.1418 112.329 75.1418 112.329C75.3633 112.975 75.443 113.671 75.3745 114.359C75.3129 115.724 76.0794 117.329 76.0794 117.329Z" fill="black"/>
</g>
<path d="M128.767 93.3337C128.736 93.5669 128.702 93.8001 128.671 94.0409C128.358 95.8721 127.847 97.6539 127.148 99.347C127.083 99.5075 127.018 99.6757 126.946 99.8363C126.796 100.219 126.628 100.601 126.45 100.96C120.872 112.918 106.723 124.627 94.3387 126.252C92.4758 126.52 90.5898 126.52 88.7268 126.252C72.8765 123.847 61.5944 109.007 63.521 93.1119C65.0882 80.252 74.8133 70.6339 86.8824 68.711C87.2554 68.6498 87.6318 68.5963 88.0151 68.5505C90.5789 68.2456 93.1664 68.2879 95.7212 68.6766C101.022 69.4717 106.688 70.7218 111.804 72.6256C112.883 73.0282 113.935 73.4589 114.959 73.9177C115.233 74.0362 115.503 74.17 115.767 74.2999C116.263 74.5331 116.752 74.7854 117.231 75.0339C117.615 75.2289 117.981 75.4353 118.35 75.6418C122.084 77.7596 125.136 80.4088 126.984 83.7155C127.943 85.4107 128.554 87.3219 128.773 89.3121C128.929 90.6472 128.926 91.9993 128.767 93.3337Z" fill="#EA4C84"/>
<path d="M134.396 88.7807C134.191 88.7584 133.99 88.7136 133.793 88.6469C133.114 88.4459 132.409 88.3787 131.709 88.4482C131.454 88.4675 131.201 88.5045 130.95 88.559C130.206 88.7068 129.481 88.9545 128.791 89.2968C128.456 89.4604 128.131 89.6455 127.815 89.8511L125.259 82.7254C125.818 83.0971 126.4 83.4229 127.001 83.7002C127.839 84.0825 128.773 84.3769 129.27 84.0213C129.415 83.9065 129.52 83.739 129.567 83.5473C129.61 83.3666 129.622 83.1788 129.605 82.993C129.605 82.7713 129.605 82.5725 129.605 82.3852C129.653 80.2597 130.755 80.7529 130.755 80.7529C133.626 79.9654 136.295 86.2615 136.295 86.2615C136.295 86.2615 136.671 89.0827 134.396 88.7807Z" fill="#EA4C84"/>
<path d="M131.709 88.4481C131.454 88.4674 131.201 88.5044 130.95 88.559C130.525 87.2783 129.759 85.2905 129.27 84.0213C129.415 83.9065 129.52 83.7389 129.567 83.5472L131.709 88.4481Z" fill="#444053"/>
<path d="M134.396 88.7807C134.31 87.6665 134.032 86.5813 133.578 85.5849C132.893 84.2431 130.987 82.5572 129.591 82.3852C129.639 80.2597 130.741 80.7529 130.741 80.7529C133.612 79.9654 136.281 86.2615 136.281 86.2615C136.281 86.2615 136.671 89.0827 134.396 88.7807Z" fill="#EA4C84"/>
<path opacity="0.1" d="M134.396 88.7807C134.31 87.6665 134.032 86.5813 133.578 85.5849C132.893 84.2431 130.987 82.5572 129.591 82.3852C129.639 80.2597 130.741 80.7529 130.741 80.7529C133.612 79.9654 136.281 86.2615 136.281 86.2615C136.281 86.2615 136.671 89.0827 134.396 88.7807Z" fill="black"/>
<path opacity="0.1" d="M69.0405 106.549C69.0405 106.549 70.553 115.017 76.0794 115.548C76.0794 115.548 75.3129 113.939 75.3779 112.57C75.4459 111.882 75.3662 111.187 75.1452 110.54C75.1452 110.54 72.0895 110.273 69.0405 106.549Z" fill="white"/>
<g opacity="0.1">
<path opacity="0.1" d="M79.1181 34.3594C78.7646 34.9286 78.2956 35.3963 77.7493 35.7241C76.7022 36.439 75.9425 38.0484 75.9425 38.0484C73.205 32.6544 78.6287 26.4806 78.6287 26.4806C77.5987 31.3929 79.1181 34.3594 79.1181 34.3594Z" fill="black"/>
<path opacity="0.1" d="M115.784 74.2847C116.674 74.7053 117.535 75.1525 118.367 75.6265C117.317 75.9276 116.249 76.1485 115.171 76.2879C106.538 77.4347 95.4817 74.4185 86.9132 68.7035C89.8437 68.2327 92.8187 68.2212 95.752 68.6691C101.053 69.4642 106.719 70.7142 111.835 72.618C113.187 73.1264 114.514 73.6693 115.784 74.2847Z" fill="black"/>
<path opacity="0.1" d="M128.216 67.0443C127.503 68.8842 126.438 70.5271 125.095 71.8572C124.788 71.6366 124.468 71.4399 124.137 71.2685L127.959 64.8729C127.997 65.6027 128.083 66.3285 128.216 67.0443Z" fill="black"/>
<path opacity="0.1" d="M131.556 77.0447C131.556 77.0447 129.694 79.002 128.63 76.7351C128.536 76.5303 128.456 76.3182 128.39 76.1005C128.155 75.3606 127.808 74.6714 127.364 74.0629C127.203 73.8412 127.022 73.6271 126.861 73.4283C126.331 72.8255 125.737 72.2978 125.092 71.8572C124.785 71.6366 124.465 71.4399 124.133 71.2685L127.956 64.8729C127.996 65.6029 128.084 66.3286 128.219 67.0443C128.404 68.0458 128.722 69.0627 129.266 69.338C129.431 69.4033 129.611 69.4033 129.776 69.338C129.935 69.2794 130.083 69.1873 130.211 69.0665C130.368 68.9327 130.512 68.8104 130.649 68.711C132.247 67.5642 132.503 68.8448 132.503 68.8448C134.707 71.0353 131.556 77.0447 131.556 77.0447Z" fill="black"/>
<path opacity="0.1" d="M129.773 69.3228L127.36 74.063C127.199 73.8413 127.018 73.6272 126.857 73.4284C127.559 72.3122 128.599 70.4811 129.253 69.3228C129.421 69.3908 129.605 69.3908 129.773 69.3228Z" fill="black"/>
<path opacity="0.1" d="M131.555 77.0448C131.555 77.0448 129.694 79.0021 128.63 76.7352C129.406 76.0277 130.052 75.1593 130.532 74.1777C131.135 72.7862 131.309 70.0797 130.645 68.6958C132.243 67.549 132.5 68.8296 132.5 68.8296C134.707 71.0354 131.555 77.0448 131.555 77.0448Z" fill="black"/>
<path opacity="0.1" d="M131.555 77.0448C131.555 77.0448 129.694 79.0021 128.63 76.7352C129.406 76.0277 130.052 75.1593 130.532 74.1777C131.135 72.7862 131.309 70.0797 130.645 68.6958C132.243 67.549 132.5 68.8296 132.5 68.8296C134.707 71.0354 131.555 77.0448 131.555 77.0448Z" fill="black"/>
<path opacity="0.1" d="M79.1181 34.3594C78.7646 34.9286 78.2956 35.3963 77.7493 35.7241C76.7022 36.439 75.9425 38.0484 75.9425 38.0484C73.205 32.6544 78.6287 26.4806 78.6287 26.4806C77.5987 31.3929 79.1181 34.3594 79.1181 34.3594Z" fill="black"/>
</g>
<path d="M128.216 66.1498C127.504 67.9903 126.438 69.6334 125.095 70.9627C124.19 71.8593 123.182 72.6166 122.097 73.2143C120.563 74.0563 118.935 74.6633 117.255 75.0187C116.571 75.1792 115.886 75.2939 115.161 75.4009C115.113 75.4009 115.072 75.4009 115.024 75.4201C106.791 76.4828 96.3816 73.7571 88.0355 68.539C82.3517 64.9953 77.6295 60.3047 75.1897 54.8687C68.0276 38.8894 72.6232 20.1118 85.4554 12.9211C98.2876 5.73038 114.514 12.8523 121.673 28.8469C124.068 34.1988 126.351 40.1165 127.832 45.9119C127.969 46.4394 128.096 46.9555 128.216 47.4754C129.838 54.3985 130.228 61.0425 128.216 66.1498Z" fill="#EA4C84"/>
<path opacity="0.1" d="M128.216 66.1498C127.504 67.9903 126.438 69.6334 125.095 70.9627C124.19 71.8593 123.182 72.6166 122.097 73.2143C120.563 74.0563 118.935 74.6633 117.255 75.0187C116.571 75.1792 115.886 75.2939 115.161 75.4009C115.113 75.4009 115.072 75.4009 115.024 75.4201C106.791 76.4828 96.3816 73.7571 88.0355 68.539C82.3517 64.9953 77.6295 60.3047 75.1897 54.8687C68.0276 38.8894 72.6232 20.1118 85.4554 12.9211C98.2876 5.73038 114.514 12.8523 121.673 28.8469C124.068 34.1988 126.351 40.1165 127.832 45.9119C127.969 46.4394 128.096 46.9555 128.216 47.4754C129.838 54.3985 130.228 61.0425 128.216 66.1498Z" fill="black"/>
<path d="M131.555 76.1541C131.555 76.1541 129.694 78.1075 128.63 75.8406C128.536 75.6362 128.455 75.4241 128.39 75.206C128.154 74.4666 127.807 73.7775 127.364 73.1685C127.206 72.9487 127.038 72.7381 126.861 72.5377C126.331 71.9338 125.737 71.4048 125.091 70.9627C124.784 70.744 124.464 70.5473 124.133 70.374L127.956 63.9823C127.996 64.711 128.084 65.4355 128.219 66.1498C128.404 67.1514 128.722 68.1683 129.266 68.4435C129.431 68.5107 129.611 68.5107 129.776 68.4435C129.934 68.3846 130.082 68.2939 130.211 68.1759C130.368 68.0421 130.512 67.916 130.649 67.8166C132.247 66.6697 132.503 67.9504 132.503 67.9504C134.707 70.1332 131.555 76.1541 131.555 76.1541Z" fill="#EA4C84"/>
<path d="M129.773 68.4281L127.36 73.1684C127.202 72.9485 127.035 72.738 126.857 72.5376C127.559 71.4214 128.599 69.5902 129.253 68.4281C129.42 68.4982 129.605 68.4982 129.773 68.4281Z" fill="#444053"/>
<path d="M131.555 76.1541C131.555 76.1541 129.694 78.1076 128.63 75.8406C129.406 75.1347 130.052 74.2675 130.532 73.287C131.135 71.8917 131.309 69.189 130.645 67.8013C132.243 66.6544 132.5 67.9351 132.5 67.9351C134.707 70.1332 131.555 76.1541 131.555 76.1541Z" fill="#EA4C84"/>
<path opacity="0.1" d="M131.555 76.1541C131.555 76.1541 129.694 78.1076 128.63 75.8406C129.406 75.1347 130.052 74.2675 130.532 73.287C131.135 71.8917 131.309 69.189 130.645 67.8013C132.243 66.6544 132.5 67.9351 132.5 67.9351C134.707 70.1332 131.555 76.1541 131.555 76.1541Z" fill="black"/>
<path opacity="0.1" d="M78.6253 25.5859C78.6253 25.5859 73.2186 31.7598 75.9459 37.1576C75.9459 37.1576 76.7021 35.5405 77.7527 34.8295C78.2991 34.5036 78.7683 34.0371 79.1214 33.4686C79.1214 33.4686 77.5953 30.4982 78.6253 25.5859Z" fill="white"/>
<path d="M230.329 77.1442C228.539 93.07 214.222 104.156 198.344 101.943C190.638 100.865 182.152 98.8615 175.667 95.2566C171.903 93.1656 168.824 90.5469 166.955 87.2517C165.98 85.569 165.347 83.6677 165.101 81.6819C164.943 80.342 164.943 78.9849 165.101 77.645C165.532 73.7954 167.154 69.7241 169.583 65.7943C177.204 53.4887 192.798 42.5937 204.829 44.2872C220.696 46.5121 232.122 61.2222 230.329 77.1442Z" fill="#EA4C84"/>
<path d="M168.714 88.2188C168.149 87.8493 167.562 87.526 166.955 87.2516C166.107 86.8693 165.172 86.5941 164.683 86.9572C164.608 87.0125 164.543 87.0839 164.493 87.1672C164.442 87.2505 164.407 87.3442 164.389 87.4427C164.348 87.6199 164.335 87.8033 164.348 87.9856C164.348 88.2073 164.372 88.4137 164.372 88.5934C164.348 90.7265 163.236 90.2448 163.236 90.2448C160.375 91.0667 157.648 84.7897 157.648 84.7897C157.648 84.7897 157.234 81.9761 159.513 82.2514C159.715 82.2765 159.915 82.3187 160.111 82.3775C160.794 82.5759 161.503 82.6367 162.206 82.5572C162.458 82.5351 162.71 82.4955 162.958 82.4387C163.697 82.2773 164.415 82.0208 165.1 81.6741C165.439 81.5067 165.767 81.3152 166.083 81.1007L168.714 88.2188Z" fill="#EA4C84"/>
<path d="M164.683 86.9535C164.608 87.0088 164.543 87.0802 164.493 87.1635C164.442 87.2468 164.407 87.3404 164.389 87.439L162.206 82.5534C162.458 82.5314 162.71 82.4918 162.958 82.4349C163.396 83.7156 164.18 85.6996 164.683 86.9535Z" fill="#444053"/>
<path d="M164.372 88.5934C164.348 90.7265 163.236 90.2449 163.236 90.2449C160.375 91.0668 157.648 84.7897 157.648 84.7897C157.648 84.7897 157.234 81.9761 159.513 82.2514C159.605 83.3632 159.892 84.4439 160.358 85.4319C161.056 86.7699 162.972 88.4405 164.372 88.5934Z" fill="#EA4C84"/>
<path opacity="0.1" d="M164.372 88.5934C164.348 90.7265 163.236 90.2449 163.236 90.2449C160.375 91.0668 157.648 84.7897 157.648 84.7897C157.648 84.7897 157.234 81.9761 159.513 82.2514C159.605 83.3632 159.892 84.4439 160.358 85.4319C161.056 86.7699 162.972 88.4405 164.372 88.5934Z" fill="black"/>
<path opacity="0.1" d="M224.707 63.7643C224.707 63.7643 223.119 55.3121 217.589 54.8419C217.589 54.8419 218.366 56.4437 218.315 57.8161C218.254 58.5043 218.341 59.1988 218.568 59.8421C218.568 59.8421 221.624 60.0792 224.707 63.7643Z" fill="white"/>
<path opacity="0.1" d="M175.667 95.2566C171.903 93.1655 168.824 90.5469 166.955 87.2517C166.107 86.8694 165.172 86.5941 164.683 86.9573C164.608 87.0126 164.543 87.084 164.493 87.1673C164.442 87.2506 164.407 87.3442 164.389 87.4428C164.348 87.62 164.334 87.8034 164.348 87.9856C164.348 88.2074 164.372 88.4138 164.372 88.5935C164.348 90.7266 163.236 90.2449 163.236 90.2449C160.375 91.0668 157.648 84.7898 157.648 84.7898C157.648 84.7898 157.234 81.9762 159.513 82.2514C159.715 82.2766 159.915 82.3187 160.111 82.3776C160.794 82.576 161.503 82.6368 162.206 82.5573C162.458 82.5352 162.71 82.4956 162.958 82.4387C163.697 82.2774 164.415 82.0208 165.1 81.6742C164.943 80.3343 164.943 78.9772 165.1 77.6373C165.532 73.7877 167.154 69.7165 169.583 65.7866C173.662 75.5998 176.906 86.7279 175.667 95.2566Z" fill="black"/>
<path opacity="0.1" d="M164.892 107.711C164.17 108.086 163.427 108.409 162.667 108.678C161.975 108.924 161.271 109.129 160.56 109.294L160.087 109.401C159.471 109.527 158.831 109.634 158.185 109.714C157.695 109.783 157.203 109.829 156.696 109.864C147.217 110.552 135.33 106.606 126.96 99.8363C124.65 98.0035 122.571 95.8318 120.78 93.3796C119.842 92.0758 119.027 90.6665 118.35 89.1745C116.415 84.8873 115.281 80.2049 115.017 75.4124C114.993 74.904 114.976 74.4108 114.976 73.9101C114.843 62.8239 119.623 52.5024 128.222 47.4601C129.838 54.3985 130.221 61.0425 128.222 66.1498C128.407 67.1513 128.725 68.1682 129.27 68.4434C129.434 68.5107 129.615 68.5107 129.779 68.4434C129.938 68.3846 130.085 68.2939 130.214 68.1759C130.371 68.0421 130.515 67.9159 130.652 67.8165C132.25 66.6697 132.507 67.9503 132.507 67.9503C134.714 70.1561 131.562 76.1693 131.562 76.1693C131.562 76.1693 129.701 78.1228 128.637 75.8559C128.542 75.6514 128.462 75.4393 128.397 75.2213C128.161 74.4818 127.814 73.7928 127.37 73.1837C127.213 72.9639 127.045 72.7534 126.867 72.553C126.338 71.949 125.743 71.42 125.098 70.978C124.194 71.8746 123.185 72.6319 122.101 73.2296C120.567 74.0716 118.938 74.6786 117.259 75.034C117.642 75.2289 118.008 75.4354 118.378 75.6418C122.111 77.7596 125.163 80.4088 127.011 83.7155C127.849 84.0978 128.784 84.3922 129.28 84.0367C129.425 83.9218 129.53 83.7543 129.578 83.5626C129.62 83.3819 129.633 83.1941 129.615 83.0083C129.615 82.7866 129.615 82.5878 129.615 82.4005C129.663 80.275 130.765 80.7682 130.765 80.7682C133.636 79.9807 136.305 86.2768 136.305 86.2768C136.305 86.2768 136.695 89.098 134.42 88.7961C134.215 88.7737 134.014 88.7289 133.817 88.6623C133.138 88.4613 132.433 88.394 131.733 88.4635C131.478 88.4828 131.225 88.5198 130.974 88.5743C130.23 88.7221 129.505 88.9698 128.814 89.3121C128.965 90.6531 128.957 92.0104 128.79 93.349C128.76 93.5822 128.725 93.8154 128.695 94.0562C128.76 94.0562 128.821 94.083 128.886 94.0906C133.508 94.8563 138.067 96.0427 142.516 97.6382C143.885 98.1466 145.209 98.6895 146.482 99.3088C147.368 99.7254 148.23 100.173 149.062 100.647C152.795 102.765 155.851 105.414 157.695 108.72C158.537 109.103 159.471 109.397 159.968 109.042C160.113 108.928 160.217 108.76 160.262 108.568C160.307 108.387 160.321 108.199 160.303 108.013C160.303 107.792 160.286 107.593 160.286 107.405C160.334 105.28 161.439 105.773 161.439 105.773C162.685 105.41 163.916 106.45 164.892 107.711Z" fill="black"/>
<g opacity="0.1">
<path opacity="0.1" d="M124.681 65.087C124.327 65.6536 123.858 66.1187 123.312 66.4441C122.265 67.159 121.505 68.776 121.505 68.776C118.768 63.382 124.191 57.212 124.191 57.212C123.161 62.1243 124.681 65.087 124.681 65.087Z" fill="black"/>
<path opacity="0.1" d="M167.249 60.4538C167.752 61.5777 168.255 62.7475 168.745 63.8943C165.484 68.3249 161.822 71.6814 157.839 72.9582C157.275 73.761 156.785 74.6823 156.953 75.3054C156.981 75.4015 157.025 75.4905 157.084 75.5673C157.143 75.644 157.214 75.707 157.295 75.7526C157.436 75.8519 157.593 75.9195 157.757 75.9514C157.933 75.9897 158.107 76.0395 158.277 76.1005C160.101 76.7275 159.372 77.7826 159.372 77.7826C159.27 81.0855 153.107 82.2208 153.107 82.2208C153.107 82.2208 150.571 81.8615 151.461 79.5028C151.539 79.2937 151.632 79.0917 151.738 78.8988C152.101 78.2202 152.355 77.4765 152.491 76.7007C152.539 76.4216 152.58 76.1464 152.604 75.8711C152.673 75.0283 152.657 74.1793 152.556 73.3405C151.36 73.1353 150.195 72.7494 149.093 72.1936C141.322 68.3899 134.44 56.6539 131.425 44.2872C144.186 37.5017 160.152 44.6389 167.249 60.4538Z" fill="black"/>
<path opacity="0.1" d="M173.772 97.7644C173.061 99.6076 171.996 101.254 170.654 102.589C170.347 102.368 170.027 102.17 169.696 101.996L173.518 95.6045C173.559 96.3301 173.643 97.0517 173.772 97.7644Z" fill="black"/>
<path opacity="0.1" d="M177.108 107.776C177.108 107.776 175.246 109.73 174.182 107.463C174.087 107.259 174.006 107.047 173.943 106.828C173.71 106.088 173.362 105.4 172.916 104.795C172.761 104.571 172.593 104.359 172.413 104.16C171.882 103.558 171.288 103.031 170.644 102.589C170.337 102.368 170.016 102.17 169.686 101.996L173.508 95.6045C173.548 96.3301 173.633 97.0517 173.761 97.7644C173.953 98.766 174.275 99.7905 174.819 100.058C174.983 100.129 175.165 100.129 175.329 100.058C175.486 100 175.632 99.9093 175.76 99.7905C175.901 99.6633 176.048 99.5446 176.201 99.4349C177.799 98.2652 178.056 99.5687 178.056 99.5687C180.273 101.767 177.108 107.776 177.108 107.776Z" fill="black"/>
<path opacity="0.1" d="M175.342 100.05L172.923 104.787C172.766 104.568 172.6 104.359 172.423 104.16C173.125 103.036 174.169 101.209 174.819 100.047C174.986 100.123 175.174 100.124 175.342 100.05Z" fill="black"/>
<path opacity="0.1" d="M177.108 107.776C177.108 107.776 175.246 109.73 174.182 107.463C174.958 106.762 175.603 105.898 176.081 104.921C176.687 103.525 176.858 100.823 176.198 99.4348C177.796 98.288 178.056 99.5686 178.056 99.5686C180.273 101.763 177.108 107.776 177.108 107.776Z" fill="black"/>
<path opacity="0.1" d="M177.108 107.776C177.108 107.776 175.246 109.73 174.182 107.463C174.958 106.762 175.603 105.898 176.081 104.921C176.687 103.525 176.858 100.823 176.198 99.4348C177.796 98.288 178.056 99.5686 178.056 99.5686C180.273 101.763 177.108 107.776 177.108 107.776Z" fill="black"/>
<path opacity="0.1" d="M124.681 65.087C124.327 65.6536 123.858 66.1187 123.312 66.4441C122.265 67.159 121.505 68.776 121.505 68.776C118.768 63.382 124.191 57.212 124.191 57.212C123.161 62.1243 124.681 65.087 124.681 65.087Z" fill="black"/>
</g>
<path d="M166.452 62.239C173.621 78.2145 179.698 99.431 166.859 106.622C154.02 113.812 127.121 104.259 119.952 88.2723C112.783 72.2853 117.382 53.5153 130.218 46.3246C143.053 39.134 159.283 46.2635 166.452 62.239Z" fill="#EA4C84"/>
<path d="M176.318 109.565C176.318 109.565 174.456 111.515 173.392 109.248C173.301 109.044 173.222 108.833 173.156 108.617C172.923 107.875 172.575 107.184 172.129 106.576C171.972 106.355 171.804 106.145 171.626 105.945C170.831 105.054 169.905 104.322 168.889 103.781L172.714 97.3936C172.714 97.3936 172.889 101.304 174.021 101.832C174.187 101.905 174.372 101.905 174.538 101.832C174.695 101.77 174.841 101.678 174.969 101.56C175.127 101.423 175.274 101.304 175.407 101.205C177.005 100.039 177.265 101.335 177.265 101.335C179.476 103.548 176.318 109.565 176.318 109.565Z" fill="#EA4C84"/>
<path d="M174.542 101.839L172.126 106.576C171.969 106.355 171.801 106.145 171.623 105.945C172.307 104.825 173.368 102.994 174.018 101.832C174.185 101.909 174.373 101.912 174.542 101.839Z" fill="#444053"/>
<path d="M176.318 109.565C176.318 109.565 174.456 111.515 173.392 109.248C174.17 108.544 174.817 107.676 175.298 106.694C175.9 105.299 176.075 102.596 175.411 101.212C177.009 100.047 177.269 101.342 177.269 101.342C179.476 103.548 176.318 109.565 176.318 109.565Z" fill="#EA4C84"/>
<path opacity="0.1" d="M176.318 109.565C176.318 109.565 174.456 111.515 173.392 109.248C174.17 108.544 174.817 107.676 175.298 106.694C175.9 105.299 176.075 102.596 175.411 101.212C177.009 100.047 177.269 101.342 177.269 101.342C179.476 103.548 176.318 109.565 176.318 109.565Z" fill="black"/>
<path opacity="0.1" d="M123.384 58.9934C123.384 58.9934 117.977 65.1672 120.705 70.565C120.705 70.565 121.464 68.9518 122.511 68.2369C123.058 67.911 123.527 67.4445 123.88 66.876C123.88 66.876 122.357 63.9057 123.384 58.9934Z" fill="white"/>
<path d="M173.056 104.863C170.856 106.595 170.712 110.747 172.786 112.669C175.342 115.036 179.161 113.553 182.463 113.95C185.765 114.348 188.664 116.764 190.761 119.658C192.728 122.409 194.134 125.606 194.881 129.027C195.628 132.448 195.698 136.009 195.087 139.463C194.44 142.984 193.088 146.31 192.476 149.839C191.744 154.067 192.103 158.432 192.565 162.71C192.907 165.898 193.331 169.167 194.724 171.976C196.938 176.438 201.253 179.068 205.554 180.769C209.856 182.47 214.407 183.521 218.414 185.964C221.145 187.655 223.54 189.947 225.456 192.701C227.372 195.456 228.767 198.615 229.559 201.989C229.724 202.507 229.736 203.069 229.593 203.595C229.405 204.099 228.803 204.436 228.409 204.115" stroke="#444053" stroke-miterlimit="10"/>
<path d="M161.552 112.344C161.343 113.442 162.059 114.585 163.003 114.963C163.484 115.124 163.991 115.163 164.487 115.077C164.983 114.991 165.456 114.783 165.871 114.466C166.897 113.736 167.818 112.509 169.043 112.555C169.932 112.581 170.682 113.3 171.236 114.084C171.79 114.868 172.235 115.754 172.927 116.378C173.526 116.883 174.218 117.235 174.952 117.41C175.817 117.687 176.727 117.736 177.611 117.551C179.5 117.089 180.886 115.208 182.744 114.608C185.201 113.816 187.74 115.437 189.708 117.261C192.065 119.443 194.187 122.112 195.166 125.353C195.816 127.498 195.939 129.784 196.192 132.028C196.445 134.272 196.897 136.57 198.074 138.408C199.251 140.247 201.328 141.535 203.303 141.038" stroke="#444053" stroke-miterlimit="10"/>
<path d="M315.244 115.823C315.244 115.823 304.413 109.019 303.507 108.327C302.6 107.635 303.507 106.668 303.507 106.668C301.772 105.421 298.172 107.983 298.172 107.983C298.172 107.983 299.482 108.346 300.721 108.785C296.225 107.474 288.703 105.016 284.871 102.252C281.897 100.108 279.297 100.723 277.493 101.794L277.452 101.667C276.994 100.073 277.069 98.3301 276.515 96.7704C275.83 94.859 274.177 93.5096 272.364 93.1082C271.337 92.8788 271.156 92.9973 270.547 92.1257C269.821 91.0859 269.25 90.7074 268.042 90.4169C266.673 90.092 265.304 89.767 263.895 89.8741C262.485 89.9811 261.075 90.5851 260.243 91.7855C259.778 92.4698 259.521 93.2955 259.066 93.9874C256.876 97.3018 251.654 95.7956 248.866 98.5327C247.155 100.222 246.877 102.99 246.494 105.475C246.111 107.96 245.207 110.762 243.017 111.591C241.974 111.974 240.834 111.84 239.732 111.924C238.631 112.008 237.412 112.436 236.93 113.514C236.752 113.947 236.674 114.423 236.704 114.898C236.702 114.929 236.702 114.959 236.704 114.99V115.04C236.75 115.749 236.838 116.454 236.968 117.15C236.968 117.123 236.968 117.096 236.968 117.069C237.091 117.998 237.094 118.859 236.495 119.485C235.277 120.77 232.635 119.596 231.876 121.244C231.771 121.481 231.725 121.745 231.742 122.009C231.748 122.363 231.818 122.712 231.948 123.035C232.078 123.359 232.265 123.649 232.499 123.889C233.077 124.539 233.816 125.036 234.292 125.766C234.488 126.073 234.632 126.418 234.716 126.783C234.721 126.748 234.728 126.714 234.736 126.68C234.86 127.256 234.839 127.86 234.675 128.423C230.668 128.244 224.751 127.831 223.543 126.932C221.696 125.548 213.031 123.209 213.031 123.209L212.932 123.14L212.648 122.957L212.381 122.792L212.33 122.762C212.227 122.7 212.118 122.635 211.988 122.571H211.964L211.621 122.379L211.56 122.349L211.163 122.154L211.094 122.119C210.968 122.062 210.838 122.005 210.704 121.951L210.66 121.932C210.52 121.875 210.376 121.825 210.236 121.775L210.16 121.752C209.882 121.662 209.597 121.602 209.308 121.573H209.274H209.106H209.021H208.877L208.771 121.592C208.734 121.597 208.698 121.605 208.661 121.615C208.592 121.634 208.525 121.66 208.46 121.691C208.317 121.788 208.206 121.935 208.145 122.108L207.529 121.844L196.801 117.215C196.801 117.215 195.508 116.45 194.936 115.969C193.098 114.853 191.128 114.032 189.085 113.53L189.009 113.472V113.51C186.648 113.036 184.643 113.51 185.348 116.832C186.833 123.836 195.001 123.006 195.001 123.006L206.578 128.519L207.337 128.882C207.269 132.751 207.611 136.83 208.477 137.369C208.617 137.458 208.762 137.538 208.911 137.609L209.004 137.659C209.144 137.728 209.284 137.789 209.421 137.839H209.452C209.589 137.892 209.722 137.934 209.849 137.973H209.907C210.044 138.015 210.181 138.045 210.307 138.072C210.74 138.164 211.181 138.202 211.621 138.187H211.731H211.772L211.707 133.553C211.84 133.609 211.969 133.676 212.094 133.752C212.518 134.017 212.922 134.321 213.302 134.662C214.328 135.56 221.138 136.459 221.138 136.459C221.138 136.459 227.639 139.154 228.019 139.712C228.399 140.27 247.004 140.886 247.004 140.886C247.004 140.886 244.458 147.247 251.528 153.612C251.528 153.612 252.736 161.907 251.973 164.189C251.494 165.623 251.387 168.257 251.377 170.015C249.054 170.933 243.507 173.269 242.097 175.218C240.283 177.707 238.85 177.707 238.85 177.707C238.85 177.707 237.033 181.53 234.836 182.478C232.639 183.426 225.566 187.665 224.895 188.804C224.224 189.944 218.301 193.774 218.301 193.774C218.301 193.774 212.183 199.168 211.036 201.137C209.89 203.105 201.862 206.844 201.862 206.844C201.862 206.844 199.665 210.285 200.333 213.897C201 217.51 194.919 215.556 200.206 221.677C201.448 223.114 203.693 224.643 206.489 226.287C206.29 226.421 206.092 226.539 205.897 226.646C205.584 226.822 205.258 226.965 204.921 227.071C201.766 228.003 192.784 244.078 192.784 244.078C192.784 244.078 187.285 251.793 183.031 254.602C182.888 254.698 182.744 254.786 182.604 254.87C182.261 253.968 180.944 253.077 179.603 252.389C178.084 251.626 176.467 251.135 174.812 250.933C173.727 250.787 172.345 250.439 171.465 249.614C170.672 248.866 169.766 248.282 168.789 247.89C167.462 247.423 166.367 247.809 166.907 250.619C167.419 253.411 168.391 256.073 169.775 258.467C169.775 258.467 175.671 264.24 176.211 266.281C176.752 268.322 179.206 270.605 179.589 270.326C179.712 270.234 180.355 269.798 181.166 269.179C182.823 267.952 185.184 266.021 185.321 264.916C185.321 264.89 185.047 264.947 184.636 264.978C184.691 264.863 184.756 264.729 184.835 264.572C185.611 263.043 187.545 259.576 189.82 258.383L198.902 248.658C198.902 248.658 208.555 243.058 210.194 238.91C210.879 237.178 213.274 234.651 215.861 232.296L216.429 231.78C224.122 236.016 232.256 240.955 235.903 246.792C241.149 255.203 252.989 258.303 258.539 259.316C258.573 259.798 258.601 260.26 258.618 260.692C258.714 262.495 258.628 264.305 258.361 266.086C258.074 267.952 258.149 282.475 258.149 282.475C258.149 282.475 258.745 289.94 257.023 292.326C256.141 293.553 255.456 296.477 255.001 299.027C254.974 299.18 254.95 299.333 254.922 299.486C254.125 299.891 253.485 300.774 253.136 302.357C253.136 302.357 251.672 303.427 252.024 307.678C252.11 308.707 252.137 309.59 252.178 310.354C252.311 312.766 252.548 313.913 254.892 313.886C257.971 313.852 264.415 310.327 264.415 310.327C264.454 309.605 264.431 308.881 264.346 308.164C264.221 306.777 263.797 305.444 263.111 304.28L263.135 304.207L263.207 304.02C263.268 303.852 263.327 303.664 263.381 303.473L263.402 303.423C263.534 302.986 263.608 302.528 263.621 302.066V297.208C263.621 297.208 263.812 290.155 265.332 286.42C266.564 283.411 269.842 269.358 270.068 262.221C270.096 261.552 270.084 260.882 270.033 260.214C270.221 260.152 270.385 260.024 270.502 259.849C270.619 259.674 270.683 259.462 270.684 259.243C270.588 256.544 268.678 257.791 269.633 252.5C270.588 247.209 271.259 240.676 272.976 237.564C274.186 235.27 275.24 232.878 276.131 230.408C276.131 230.408 279.762 216.715 281.292 213.396C282.821 210.078 288.652 188.502 279.382 178.441L278.876 176.25C278.876 176.25 278.876 176.216 278.907 176.178C278.961 176.044 279.112 175.669 279.307 175.149C279.471 174.721 279.649 174.19 279.854 173.62C279.964 173.291 280.07 172.947 280.176 172.6C280.33 172.083 280.467 171.556 280.573 171.07L280.624 170.818C283.588 171.583 285.377 169.22 286.099 167.978C286.5 167.722 286.664 167.477 286.462 167.263C285.316 166.017 286.339 163.322 286.339 163.322L286.397 151.566C286.397 151.566 287.735 151.287 288.057 147.14C288.235 144.667 289.175 142.34 290.716 140.553C293.583 137.032 301.542 133.209 301.542 133.209C307.271 131.114 315.819 121.955 315.819 121.955C320.404 117.735 315.244 115.823 315.244 115.823ZM302.692 120.567C300.909 120.98 296.896 123.205 296.896 123.205C296.896 123.205 294.48 123.886 292.307 124.799C290.134 125.713 287.338 124.325 287.338 124.325C285.874 122.127 280.905 125.281 279.755 126.042C278.886 126.619 278.161 126.424 277.332 125.617C277.037 125.321 276.761 125 276.508 124.658C276.267 124.343 275.98 124.077 275.659 123.87C276.033 123.137 276.504 122.471 277.055 121.894C278.263 120.579 279.694 119.52 280.912 118.212C282.13 116.905 283.167 115.257 283.276 113.403C283.276 113.323 283.276 113.243 283.276 113.163C283.306 112.003 283.049 110.856 282.534 109.848C283.54 110.092 284.56 110.264 285.586 110.364C288.498 110.563 292.088 112.195 294.23 113.323L294.671 113.556L294.435 113.648L294.521 113.77L294.435 113.801L294.456 113.832L294.627 114.08L294.651 114.111C294.733 114.229 294.836 114.374 294.959 114.543L294.996 114.592C295.123 114.764 295.267 114.952 295.424 115.15L295.465 115.204C295.626 115.407 295.807 115.617 295.982 115.827L296.03 115.881C296.194 116.068 296.372 116.263 296.54 116.439C296.775 116.683 297.022 116.914 297.279 117.131L297.306 117.15C297.505 117.315 297.713 117.466 297.929 117.601L297.991 117.639C298.087 117.696 298.186 117.747 298.288 117.792C299.999 118.557 300.899 116.756 300.899 116.756C301.145 116.832 301.382 116.937 301.607 117.069C303.356 118.044 304.273 120.212 302.692 120.567Z" fill="url(#paint0_linear)"/>
<path d="M302.213 110.104V112.234L294.206 114.715C294.206 114.715 293.474 114.252 292.334 113.644C290.233 112.516 286.753 110.877 283.913 110.678C279.536 110.36 265.15 105.525 269.479 104.435C273.808 103.346 273.469 104.435 273.469 104.435C273.469 104.435 277.675 98.4447 283.218 102.554C287.427 105.681 296.204 108.415 300.181 109.55C301.44 109.89 302.213 110.104 302.213 110.104Z" fill="#BA6B4F"/>
<path d="M266.817 90.6845C265.489 90.3595 264.134 90.0308 262.779 90.1378C261.424 90.2448 260.041 90.8527 259.217 92.0722C258.765 92.7564 258.515 93.6013 258.07 94.2779C255.939 97.6037 250.847 96.0937 248.13 98.8385C246.453 100.532 246.196 103.307 245.823 105.8C245.45 108.292 244.568 111.102 242.432 111.935C241.406 112.318 240.304 112.184 239.233 112.264C238.162 112.344 236.974 112.78 236.495 113.858C235.684 115.724 237.426 118.407 236.091 119.852C234.901 121.137 232.327 119.959 231.588 121.615C231.226 122.425 231.633 123.415 232.194 124.069C232.755 124.723 233.477 125.216 233.943 125.95C234.24 126.424 234.417 126.979 234.455 127.557C234.494 128.135 234.391 128.713 234.16 129.231C233.928 129.749 233.575 130.188 233.139 130.5C232.703 130.813 232.199 130.988 231.681 131.007C230.74 131.042 229.675 130.591 228.923 131.229C228.7 131.458 228.527 131.741 228.419 132.057C228.311 132.373 228.27 132.712 228.3 133.049C228.37 134.21 228.839 135.296 229.61 136.08C230.38 136.863 231.392 137.284 232.433 137.254C234.031 137.139 235.38 135.962 236.697 134.96C238.015 133.959 239.606 133.018 241.146 133.473C241.862 133.746 242.537 134.141 243.144 134.647C245.009 135.975 247.054 136.957 249.201 137.552C251.09 138.076 253.239 138.244 254.844 137.013C256.661 135.622 257.342 132.774 259.292 131.661C261.345 130.495 263.778 131.726 265.893 132.751C268.008 133.775 270.776 134.467 272.367 132.605C274.078 130.598 273.089 127.223 273.976 124.631C274.342 123.659 274.888 122.783 275.577 122.062C276.754 120.739 278.147 119.677 279.341 118.369C280.535 117.062 281.541 115.407 281.644 113.545C281.774 111.305 280.587 109.248 279.307 107.516C278.027 105.785 276.569 104.11 275.97 101.966C275.526 100.368 275.598 98.6206 275.057 97.0571C274.707 96.1193 274.154 95.293 273.448 94.652C272.742 94.011 271.905 93.5751 271.012 93.3834C269.986 93.154 269.835 93.2725 269.24 92.3933C268.966 91.9345 268.608 91.5452 268.191 91.2508C267.774 90.9564 267.305 90.7635 266.817 90.6845Z" fill="#3F3D56"/>
<g opacity="0.1">
<path opacity="0.1" d="M236.352 114.554C236.163 115.472 236.406 116.523 236.54 117.509C236.745 116.649 236.485 115.594 236.352 114.554Z" fill="black"/>
<path opacity="0.1" d="M233.949 126.133C234.141 126.442 234.281 126.788 234.36 127.154C234.466 126.701 234.484 126.228 234.413 125.767C234.342 125.305 234.184 124.866 233.949 124.478C233.484 123.736 232.765 123.251 232.201 122.597C231.975 122.338 231.79 122.038 231.653 121.71C231.632 121.742 231.613 121.775 231.595 121.81C231.232 122.62 231.64 123.61 232.201 124.264C232.762 124.918 233.484 125.392 233.949 126.133Z" fill="black"/>
<path opacity="0.1" d="M279.358 116.886C278.171 118.197 276.778 119.256 275.594 120.579C274.905 121.302 274.359 122.178 273.993 123.152C273.106 125.743 274.099 129.115 272.384 131.122C270.793 132.984 268.025 132.292 265.91 131.267C263.795 130.243 261.362 129.012 259.309 130.178C257.348 131.294 256.667 134.146 254.861 135.53C253.256 136.761 251.097 136.593 249.218 136.069C247.071 135.473 245.026 134.492 243.161 133.163C242.554 132.658 241.88 132.262 241.163 131.99C239.616 131.535 238.028 132.468 236.714 133.481C235.4 134.494 234.049 135.667 232.451 135.774C230.606 135.908 228.83 134.318 228.409 132.334C228.339 132.622 228.308 132.919 228.317 133.217C228.388 134.378 228.858 135.463 229.628 136.247C230.398 137.03 231.409 137.451 232.451 137.422C234.049 137.307 235.397 136.13 236.714 135.128C238.032 134.127 239.623 133.186 241.163 133.641C241.879 133.912 242.554 134.307 243.161 134.811C245.025 136.143 247.071 137.125 249.218 137.72C251.107 138.24 253.256 138.408 254.861 137.181C256.678 135.79 257.359 132.942 259.309 131.829C261.362 130.66 263.795 131.89 265.91 132.915C268.025 133.939 270.793 134.631 272.384 132.77C274.095 130.767 273.106 127.391 273.993 124.799C274.36 123.826 274.906 122.95 275.594 122.226C276.771 120.908 278.164 119.845 279.358 118.537C280.552 117.23 281.559 115.571 281.661 113.713C281.684 113.321 281.666 112.927 281.61 112.539C281.374 114.214 280.45 115.693 279.358 116.886Z" fill="black"/>
</g>
<path d="M281.709 167.462L284.751 167.737C284.751 167.737 282.458 173.521 277.565 170.665C272.672 167.81 281.709 167.462 281.709 167.462Z" fill="#4C4981"/>
<path opacity="0.1" d="M281.709 167.462L284.751 167.737C284.751 167.737 282.458 173.521 277.565 170.665C272.672 167.81 281.709 167.462 281.709 167.462Z" fill="black"/>
<path d="M223.304 226.727C223.304 226.727 219.478 229.693 215.971 232.992C213.459 235.355 211.112 237.889 210.451 239.625C208.853 243.788 199.45 249.423 199.45 249.423L190.601 259.205C188.387 260.402 186.494 263.869 185.745 265.413C185.516 265.884 185.403 266.178 185.403 266.178H181.399L178.98 263.471C178.98 263.471 177.676 256.919 181.772 256.399C182.57 256.246 183.33 255.907 184.003 255.405C188.15 252.588 193.506 244.85 193.506 244.85C193.506 244.85 202.259 228.726 205.332 227.789C205.661 227.684 205.98 227.542 206.283 227.365C209.322 225.652 213.343 220.404 213.343 220.404L223.304 226.727Z" fill="#BA6B4F"/>
<path d="M268.784 263.005C268.565 270.161 265.363 284.256 264.172 287.272C262.68 291.018 262.495 298.094 262.495 298.094V302.984C262.467 303.661 262.33 304.326 262.091 304.949C261.965 305.309 261.82 305.66 261.657 306L253.444 304.44C253.444 304.44 253.663 302.349 254.081 299.926C254.525 297.364 255.193 294.432 256.052 293.205C257.728 290.812 257.147 283.319 257.147 283.319C257.147 283.319 257.075 268.754 257.355 266.881C257.616 265.094 257.7 263.28 257.605 261.472C257.567 260.501 257.489 259.396 257.355 258.142C256.89 253.773 257.355 247.324 257.355 247.324L266.762 247.844L268.343 259.289C268.723 259.954 268.843 261.273 268.784 263.005Z" fill="#BA6B4F"/>
<path opacity="0.1" d="M185.745 265.394C185.516 265.864 185.403 266.159 185.403 266.159H181.399L178.98 263.452C178.98 263.452 177.676 256.9 181.772 256.38C182.57 256.227 183.33 255.888 184.003 255.386C184.568 257.298 182.768 259.259 182.768 259.259C182.768 259.259 182.022 260.054 182.58 263.143C182.942 265.237 184.681 265.444 185.745 265.394Z" fill="black"/>
<path d="M186.224 265.738C186.091 266.847 183.788 268.796 182.176 270.012C181.385 270.62 180.759 271.056 180.639 271.159C180.266 271.438 177.875 269.148 177.348 267.103C176.821 265.058 171.075 259.266 171.075 259.266C169.724 256.854 168.778 254.186 168.283 251.395C167.756 248.578 168.824 248.188 170.114 248.654C171.069 249.052 171.952 249.638 172.721 250.386C173.58 251.215 174.928 251.563 175.986 251.709C177.599 251.914 179.172 252.407 180.646 253.169C181.954 253.861 183.25 254.752 183.569 255.658C184.253 257.638 182.378 259.683 182.378 259.683C182.378 259.683 181.632 260.478 182.19 263.567C182.747 266.656 186.238 265.635 186.224 265.738Z" fill="#444053"/>
<path opacity="0.1" d="M182.176 270.012C181.385 270.62 180.759 271.056 180.639 271.159C180.266 271.438 177.875 269.148 177.348 267.103C176.821 265.058 171.075 259.266 171.075 259.266C169.724 256.854 168.778 254.186 168.283 251.395C167.756 248.578 168.824 248.188 170.114 248.654C170.579 250.879 171.606 255.191 172.909 257.324C174.46 259.851 180.53 267.848 182.176 270.012Z" fill="black"/>
<path opacity="0.1" d="M261.999 304.792L262.091 304.949C261.965 305.309 261.82 305.66 261.657 306L253.444 304.44C253.444 304.44 253.663 302.349 254.081 299.926C257.088 298.488 262.266 303.932 262.266 303.932L261.999 304.792Z" fill="black"/>
<path d="M263.268 311.272C263.268 311.272 256.999 314.808 253.992 314.842C251.706 314.869 251.476 313.718 251.346 311.302C251.309 310.538 251.278 309.632 251.196 308.6C250.854 304.337 252.281 303.248 252.281 303.248C253.927 295.548 262.283 304.333 262.283 304.333L261.999 305.193C262.67 306.368 263.082 307.702 263.203 309.089C263.287 309.812 263.309 310.543 263.268 311.272Z" fill="#444053"/>
<path opacity="0.1" d="M263.268 311.272C263.268 311.272 256.999 314.808 253.992 314.842C251.706 314.869 251.476 313.718 251.346 311.302C252.165 311.879 253.082 312.261 254.039 312.423C254.996 312.585 255.972 312.523 256.907 312.243C259.144 311.584 261.271 310.524 263.203 309.104C263.286 309.823 263.308 310.548 263.268 311.272Z" fill="black"/>
<path d="M275.067 128.343L273.986 141.287L273.763 143.963L269.086 145.328L264.264 146.738L258.676 145.354C258.676 145.354 256.527 139.907 257.259 135.472C257.47 133.9 258.203 132.474 259.313 131.478C259.661 131.177 259.973 130.828 260.24 130.438C260.549 129.987 260.786 129.48 260.941 128.939C261.127 128.273 261.204 127.575 261.167 126.879C261.037 123.438 258.69 120.036 258.69 120.036C258.69 120.036 269.493 114.072 268.935 116.978C268.572 118.866 270.533 121.775 271.953 123.584C272.727 124.566 273.322 125.227 273.322 125.227L275.067 128.343Z" fill="#BA6B4F"/>
<path opacity="0.1" d="M263.022 125.101C268.491 125.101 272.925 120.148 272.925 114.038C272.925 107.928 268.491 102.975 263.022 102.975C257.553 102.975 253.119 107.928 253.119 114.038C253.119 120.148 257.553 125.101 263.022 125.101Z" fill="black"/>
<path d="M263.022 124.684C268.491 124.684 272.925 119.731 272.925 113.621C272.925 107.511 268.491 102.558 263.022 102.558C257.553 102.558 253.119 107.511 253.119 113.621C253.119 119.731 257.553 124.684 263.022 124.684Z" fill="#AD704D"/>
<path d="M279.232 170.153C279.047 172.642 277.363 176.755 277.363 176.755L264.09 182.523L252.965 172.534C252.965 172.534 252.965 172.512 252.965 172.466C253.143 171.349 255.302 157.297 252.209 154.361C248.978 151.303 248.913 141.394 248.913 141.394C248.913 141.394 253.075 134.375 253.896 132.712C254.717 131.049 260.945 128.924 260.945 128.924C260.678 129.448 260.445 129.948 260.243 130.422C259.689 131.663 259.308 132.991 259.114 134.36C258.84 136.516 259.364 137.781 259.713 138.362C259.901 138.665 260.054 138.992 260.168 139.337C261.848 144.422 266.646 142.973 268.531 142.17C269.014 141.964 269.308 141.788 269.308 141.788L274.003 141.275L276.946 140.958C276.946 140.958 278.623 166.953 279.18 168.975C279.264 169.361 279.282 169.76 279.232 170.153Z" fill="#444053"/>
<path d="M260.233 130.434C260.233 130.434 260.233 130.434 260.233 130.453C260.018 130.951 259.826 131.462 259.658 131.982H254.58C255.419 131.37 256.312 130.858 257.246 130.453L260.233 130.434Z" fill="#925978"/>
<path d="M259.357 133.003C259.242 133.458 259.155 133.922 259.097 134.391C259.097 134.444 259.097 134.498 259.08 134.551H252.921C253.263 133.928 253.571 133.385 253.762 133.003H259.357Z" fill="white"/>
<path d="M259.193 137.12H251.449C251.75 136.6 252.055 136.073 252.339 135.591H259.018C259.018 136.107 259.077 136.621 259.193 137.12Z" fill="white"/>
<path d="M260.261 139.708H249.943C250.217 139.249 250.525 138.718 250.854 138.179H259.576C259.621 138.267 259.665 138.351 259.71 138.424C259.898 138.724 260.051 139.05 260.165 139.395C260.189 139.479 260.226 139.586 260.261 139.708Z" fill="white"/>
<path d="M248.927 141.413V142.262H262.17C261.596 141.875 261.11 141.345 260.75 140.714H249.341L248.927 141.413Z" fill="white"/>
<path d="M277.028 142.262H268.364L268.514 142.201C268.997 141.99 269.291 141.818 269.291 141.818L273.986 141.306L276.929 140.985C276.929 140.985 276.959 141.459 277.028 142.262Z" fill="#925978"/>
<path d="M277.182 144.831H249.122C249.067 144.265 249.026 143.745 248.996 143.302H277.055C277.11 143.745 277.144 144.265 277.182 144.831Z" fill="white"/>
<path d="M277.37 147.403H249.464C249.379 146.872 249.304 146.356 249.245 145.874H277.254C277.288 146.348 277.319 146.864 277.37 147.403Z" fill="white"/>
<path d="M277.534 149.972H250.012C249.878 149.464 249.759 148.944 249.67 148.424H277.442C277.462 148.929 277.5 149.445 277.534 149.972Z" fill="white"/>
<path d="M277.712 152.541H250.943C250.704 152.048 250.496 151.537 250.32 151.012H277.606C277.64 151.505 277.678 152.021 277.712 152.541Z" fill="white"/>
<path d="M277.901 155.114H252.777C252.628 154.838 252.441 154.59 252.222 154.38C251.97 154.137 251.74 153.866 251.538 153.57H277.791C277.822 154.086 277.859 154.617 277.901 155.114Z" fill="white"/>
<path d="M278.092 157.675H253.578C253.493 157.155 253.37 156.644 253.211 156.146H277.976C278.013 156.651 278.055 157.171 278.092 157.675Z" fill="white"/>
<path d="M278.287 160.252H253.838C253.81 159.721 253.776 159.204 253.718 158.723H278.171C278.209 159.231 278.246 159.747 278.287 160.252Z" fill="#925978"/>
<path d="M278.496 162.825H253.858C253.858 162.305 253.858 161.789 253.858 161.296H278.356C278.397 161.812 278.455 162.328 278.496 162.825Z" fill="#925978"/>
<path d="M278.739 165.394H253.759C253.793 164.889 253.817 164.369 253.841 163.864H278.585C278.633 164.396 278.681 164.912 278.739 165.394Z" fill="#925978"/>
<path d="M278.992 167.962H253.547C253.595 167.469 253.639 166.953 253.684 166.433H278.821C278.886 167.022 278.941 167.542 278.992 167.962Z" fill="#925978"/>
<path d="M279.232 170.18C279.232 170.298 279.211 170.413 279.194 170.535H253.252C253.314 170.08 253.376 169.557 253.434 169.006H279.156C279.157 169.015 279.157 169.024 279.156 169.033C279.245 169.406 279.271 169.796 279.232 170.18Z" fill="white"/>
<path d="M279.023 171.56C278.917 172.06 278.783 172.592 278.636 173.108H253.581L252.965 172.554C252.965 172.554 252.965 172.527 252.965 172.481C252.985 172.347 253.033 172.03 253.102 171.56H279.023Z" fill="white"/>
<path d="M278.321 174.113C278.137 174.694 277.948 175.226 277.788 175.642H256.442L254.731 174.113H278.321Z" fill="white"/>
<path d="M277.397 176.701L277.363 176.786L273.993 178.246H259.306L257.595 176.717L277.397 176.701Z" fill="white"/>
<path d="M271.635 179.27L268.069 180.815H262.167L260.445 179.27H271.635Z" fill="#925978"/>
<path d="M265.701 181.843L264.086 182.543L263.309 181.843H265.701Z" fill="#925978"/>
<path opacity="0.1" d="M279.232 170.153C277.072 170.723 275.067 171.139 275.067 171.139L263.717 172.317L262.153 159.136C262.153 159.136 264.326 156.223 266.314 155.118C268.189 154.067 270.239 151.406 269.086 145.312C269.021 144.964 268.945 144.601 268.856 144.227C268.696 143.552 268.582 142.864 268.514 142.17C268.039 137.365 270.102 134.349 270.694 133.595C270.79 133.469 270.844 133.408 270.844 133.408L271.563 123.572C271.688 123.564 271.814 123.564 271.94 123.572C272.713 124.555 273.308 125.216 273.308 125.216L275.05 128.339L273.969 141.283L276.912 140.966C276.912 140.966 278.588 166.961 279.146 168.983C279.241 169.363 279.27 169.76 279.232 170.153Z" fill="black"/>
<path d="M288.912 140.97C287.397 142.77 286.477 145.093 286.305 147.556C285.993 151.715 284.69 151.995 284.69 151.995L284.628 163.792C284.628 163.792 283.632 166.498 284.751 167.744C285.87 168.991 275.44 171.147 275.44 171.147L264.09 172.324L262.526 159.143C262.526 159.143 264.699 156.23 266.684 155.125C268.668 154.021 270.845 151.1 269.229 144.234C267.82 138.232 270.393 134.459 271.067 133.603C271.163 133.477 271.218 133.416 271.218 133.416L271.936 123.58C271.936 123.58 273.887 123.427 275.067 125.021C275.314 125.365 275.583 125.688 275.871 125.988C276.679 126.81 277.384 126.99 278.232 126.412C279.351 125.648 284.193 122.482 285.62 124.688C287.047 126.894 288.912 140.97 288.912 140.97Z" fill="#4C4981"/>
<path d="M275.871 125.98L274.701 132.697L271.067 133.592C271.163 133.466 271.217 133.404 271.217 133.404L271.936 123.568C271.936 123.568 273.887 123.415 275.067 125.009C275.314 125.355 275.582 125.679 275.871 125.98Z" fill="#4C4981"/>
<path opacity="0.1" d="M275.871 125.98L274.701 132.697L271.067 133.592C271.163 133.466 271.217 133.404 271.217 133.404L271.936 123.568C271.936 123.568 273.887 123.415 275.067 125.009C275.314 125.355 275.582 125.679 275.871 125.98Z" fill="black"/>
<path opacity="0.1" d="M302.213 110.104V112.234L294.206 114.715C294.206 114.715 293.474 114.252 292.334 113.644C293.2 113.3 297.125 111.733 299.151 110.674C299.9 110.292 300.396 109.978 300.396 109.825C300.396 109.741 300.317 109.649 300.181 109.55C301.44 109.89 302.213 110.104 302.213 110.104Z" fill="black"/>
<path d="M304.184 115.441L298.843 117.108C298.843 117.108 297.973 118.912 296.3 118.148C294.627 117.383 292.536 114.126 292.536 114.126C292.536 114.126 297.224 112.272 299.524 111.091L304.184 115.441Z" fill="#4C4981"/>
<path opacity="0.1" d="M304.184 115.284L298.843 116.951C298.843 116.951 297.973 118.755 296.3 117.991C294.627 117.226 292.536 113.969 292.536 113.969C292.536 113.969 297.224 112.115 299.524 110.934L304.184 115.284Z" fill="white"/>
<path opacity="0.1" d="M213.326 220.369L223.304 226.727C223.304 226.727 219.478 229.693 215.971 232.992C212.337 230.958 208.915 229.085 206.28 227.342C209.305 225.629 213.326 220.369 213.326 220.369Z" fill="black"/>
<path opacity="0.1" d="M268.784 263.005C266.146 263.223 261.941 262.202 261.941 262.202C261.941 262.202 260.23 262.034 257.626 261.472C257.588 260.501 257.509 259.396 257.376 258.142C256.91 253.773 257.376 247.324 257.376 247.324L266.783 247.844L268.364 259.289C268.723 259.954 268.843 261.273 268.784 263.005Z" fill="black"/>
<path d="M279.721 214.035C278.232 217.364 274.694 231.096 274.694 231.096C273.826 233.57 272.796 235.969 271.614 238.275C269.938 241.395 269.284 247.947 268.353 253.253C267.423 258.559 269.284 257.313 269.38 260.015C269.476 262.718 260.438 260.535 260.438 260.535C260.438 260.535 242.278 258.769 235.482 247.538C228.686 236.306 205.876 228.493 200.719 222.357C195.562 216.221 201.496 218.194 200.842 214.555C200.189 210.915 202.331 207.479 202.331 207.479C202.331 207.479 210.153 203.732 211.272 201.744C212.391 199.757 218.352 194.374 218.352 194.374C218.352 194.374 224.128 190.525 224.779 189.382C225.429 188.239 232.307 183.972 234.463 183.036C236.618 182.099 238.36 178.246 238.36 178.246C238.36 178.246 239.76 178.246 241.529 175.749C243.298 173.253 251.586 170.13 251.586 170.13C267.522 179.909 277.37 176.755 277.37 176.755L277.866 178.972C286.893 189.064 281.213 210.705 279.721 214.035Z" fill="#444053"/>
<path opacity="0.1" d="M277.859 178.972C277.859 178.972 265.848 185.425 251.6 170.13C267.522 179.909 277.37 176.755 277.37 176.755L277.859 178.972Z" fill="black"/>
<path opacity="0.1" d="M257.181 190.104C257.181 190.104 243.493 219.754 242.559 220.901C241.625 222.047 256.253 189.898 257.181 190.104Z" fill="black"/>
<path opacity="0.1" d="M264.729 186.882C264.729 186.882 255.418 208.832 255.976 211.539C255.976 211.539 265.01 190.418 264.729 186.882Z" fill="black"/>
<path opacity="0.1" d="M272.179 191.457C272.179 191.457 271.348 203.098 275.344 209.042L272.179 191.457Z" fill="black"/>
<path opacity="0.1" d="M276.744 191.457C276.744 191.457 278.031 201.236 279.249 203.109L276.744 191.457Z" fill="black"/>
<path opacity="0.1" d="M247.127 186.881L232.413 195.934H238.186L247.127 186.881Z" fill="black"/>
<path opacity="0.1" d="M268.795 106.587C268.083 107.276 267.549 108.292 266.639 108.564C265.992 108.755 265.315 108.518 264.671 108.311C263.042 107.788 261.225 107.463 259.696 108.285C257.516 109.458 256.616 112.574 254.436 113.767C253.902 114.062 253.316 114.221 252.719 114.235C252.123 114.248 251.532 114.114 250.987 113.843C250.024 113.356 249.272 112.465 248.893 111.362C248.256 109.481 248.859 107.283 250.036 105.762C251.213 104.24 252.883 103.304 254.573 102.616C258.994 100.819 263.775 100.509 268.476 100.219C268.857 100.155 269.246 100.212 269.599 100.383C270.376 100.865 271.933 103.652 271.796 104.695C271.614 106.068 268.795 105.456 268.795 106.587Z" fill="black"/>
<path d="M268.795 106.171C268.083 106.863 267.549 107.876 266.639 108.147C265.992 108.342 265.315 108.105 264.671 107.895C263.042 107.371 261.225 107.046 259.696 107.868C257.516 109.042 256.616 112.161 254.436 113.35C253.768 113.717 253.023 113.873 252.281 113.801C251.833 113.756 251.396 113.627 250.987 113.419C250.024 112.932 249.272 112.04 248.893 110.938C248.256 109.057 248.859 106.859 250.036 105.341C251.213 103.823 252.883 102.879 254.573 102.191C258.994 100.394 263.775 100.085 268.476 99.7942C268.857 99.7316 269.246 99.7899 269.599 99.9624C270.376 100.444 271.933 103.227 271.796 104.271C271.614 105.685 268.795 105.039 268.795 106.171Z" fill="#3F3D56"/>
<path d="M209.691 123.003L209.007 129.918L206.923 128.901L195.631 123.37C195.631 123.37 187.671 124.203 186.224 117.177C184.777 110.15 195.025 115.823 195.583 116.294C196.141 116.764 197.4 117.536 197.4 117.536L207.854 122.181L209.691 123.003Z" fill="#BA6B4F"/>
<path opacity="0.1" d="M209.692 123.002L209.007 129.918L206.923 128.901C206.998 125.805 207.334 122.918 207.868 122.188L209.692 123.002Z" fill="black"/>
<path opacity="0.1" d="M266.437 159.277L265.941 173.563L252.979 172.454C253.157 171.338 255.316 157.285 252.223 154.349C248.992 151.291 248.927 141.383 248.927 141.383C248.927 141.383 253.075 134.375 253.896 132.712C254.717 131.049 260.945 128.924 260.945 128.924C261.131 128.258 261.207 127.56 261.171 126.864C261.433 127.31 261.654 127.785 261.831 128.282C262.112 130.835 261.407 132.716 259.114 134.36C258.912 134.505 258.7 134.647 258.474 134.788C258.108 135.014 257.711 135.239 257.277 135.457L257.082 135.557C253.17 137.499 252.609 140.343 252.609 140.343C251.429 142.644 251.075 145.36 251.617 147.942C252.531 152.213 266.437 159.277 266.437 159.277Z" fill="black"/>
<path d="M265.691 159.277L265.195 173.563L250.604 172.317C250.604 172.317 250.419 166.965 251.162 164.671C251.904 162.377 250.73 154.063 250.73 154.063C243.839 147.679 246.32 141.298 246.32 141.298C246.32 141.298 228.183 140.675 227.821 140.121C227.458 139.567 221.117 136.856 221.117 136.856C221.117 136.856 214.472 135.958 213.479 135.056C213.113 134.713 212.719 134.408 212.302 134.146C212.182 134.069 212.058 134.002 211.929 133.943L211.991 138.592C211.943 138.596 211.895 138.596 211.847 138.592H211.769C210.72 138.632 209.682 138.357 208.761 137.797C207.149 136.757 207.392 122.743 208.761 122.054C209.02 121.936 209.303 121.892 209.582 121.928C210.701 122.016 212.183 122.899 212.86 123.335L213.134 123.519L213.233 123.587C213.233 123.587 221.675 125.935 223.475 127.322C225.275 128.71 238.018 128.924 238.018 128.924C238.018 128.924 243.791 129.589 244.414 128.584C245.036 127.578 253.413 124.876 254.282 126.126C255.152 127.376 257.123 126.89 257.123 126.89C258.317 124.872 259.374 125.434 260.093 126.382C260.507 126.96 260.84 127.604 261.082 128.293C261.39 131.072 260.527 133.053 257.725 134.792C257.304 135.052 256.842 135.308 256.332 135.557C252.421 137.499 251.863 140.343 251.863 140.343C250.681 142.644 250.326 145.36 250.867 147.943C251.784 152.213 265.691 159.277 265.691 159.277Z" fill="#4C4981"/>
<path opacity="0.1" d="M209.582 121.909C209.427 121.92 209.275 121.963 209.134 122.035C207.765 122.723 207.522 136.738 209.134 137.778C209.94 138.288 210.843 138.578 211.769 138.622H211.847C211.895 138.626 211.943 138.626 211.991 138.622L211.929 133.974C212.058 134.032 212.182 134.1 212.302 134.177V133.974C211.723 132.274 211.497 130.449 211.642 128.637C211.786 126.825 212.298 125.073 213.137 123.515L209.582 121.909Z" fill="black"/>
<path d="M211.929 133.974L211.991 138.622C210.865 138.706 209.742 138.419 208.761 137.797C207.149 136.757 207.392 122.743 208.761 122.054C209.839 121.504 211.994 122.777 212.867 123.335C211.985 124.907 211.442 126.685 211.279 128.531C211.116 130.377 211.339 132.24 211.929 133.974Z" fill="#4C4981"/>
<path opacity="0.1" d="M211.929 133.974L211.991 138.622C210.865 138.706 209.742 138.419 208.761 137.797C207.149 136.757 207.392 122.743 208.761 122.054C209.839 121.504 211.994 122.777 212.867 123.335C211.985 124.907 211.442 126.685 211.279 128.531C211.116 130.377 211.339 132.24 211.929 133.974Z" fill="white"/>
<path d="M257.711 134.788L255.419 132.942L260.079 126.378C260.493 126.956 260.827 127.6 261.068 128.289C261.376 131.061 260.514 133.041 257.711 134.788Z" fill="#4C4981"/>
<path opacity="0.1" d="M257.711 134.639L255.419 132.793L260.079 126.229C260.493 126.807 260.826 127.451 261.068 128.14C261.376 130.916 260.514 132.892 257.711 134.639Z" fill="black"/>
<path opacity="0.1" d="M268.795 105.341C268.083 106.029 267.546 107.042 266.639 107.314C265.992 107.509 265.315 107.272 264.671 107.065C263.039 106.538 261.222 106.213 259.693 107.038C257.516 108.212 256.613 111.328 254.433 112.52C253.765 112.884 253.021 113.039 252.281 112.968C251.532 112.899 250.817 112.594 250.217 112.09C249.618 111.585 249.158 110.9 248.893 110.116C248.763 109.728 248.683 109.321 248.653 108.908C248.596 109.598 248.677 110.295 248.893 110.945C249.27 112.049 250.023 112.941 250.987 113.426C251.396 113.635 251.833 113.764 252.281 113.809C253.022 113.881 253.766 113.725 254.433 113.358C256.606 112.169 257.513 109.049 259.693 107.876C261.222 107.054 263.039 107.379 264.671 107.902C265.315 108.113 265.992 108.35 266.639 108.155C267.546 107.883 268.083 106.87 268.795 106.178C268.795 105.031 271.614 105.674 271.796 104.286C271.811 104.077 271.791 103.867 271.738 103.667C271.303 104.768 268.795 104.275 268.795 105.341Z" fill="black"/>
<path opacity="0.1" d="M264.09 138.126C264.09 138.126 265.636 141.505 264.336 142.908C264.336 142.908 265.363 137.984 266.293 137.938" fill="black"/>
<path d="M189.8 113.809C189.8 113.809 197.917 119.799 192.777 121.699C187.637 123.599 189.8 113.809 189.8 113.809Z" fill="#AD704D"/>
</g>
<defs>
<linearGradient id="paint0_linear" x1="242.248" y1="313.909" x2="242.248" y2="89.8511" gradientUnits="userSpaceOnUse">
<stop stop-color="#4C4981"/>
<stop offset="0.54" stop-color="#808080" stop-opacity="0.12"/>
<stop offset="1" stop-color="#808080" stop-opacity="0.1"/>
</linearGradient>
<clipPath id="clip0">
<rect width="346" height="323" fill="white"/>
</clipPath>
</defs>
</svg>
