<svg xmlns="http://www.w3.org/2000/svg" xmlns:xlink="http://www.w3.org/1999/xlink" width="930.821" height="413.624" viewBox="0 0 930.821 413.624"><defs><clipPath id="a"><circle cx="29.913" cy="29.913" r="29.913" fill="#cbcfff"/></clipPath><clipPath id="b"><path d="M725.842,153.862a41.66,41.66,0,1,1-57.59-12.423A41.664,41.664,0,0,1,725.842,153.862Z" transform="translate(-649.169 -134.781)" fill="#cbcfff"/></clipPath></defs><g transform="translate(-171.522 -40.398)"><g transform="translate(543.606 422.227)"><g transform="translate(0 0)"><g transform="translate(0)"><path d="M103.176-298.694h2.635l11.671,28.221h.084l11.545-28.221h2.637v30.3h-1.841V-296.4h-.083l-11.381,28.009H116.6L105.1-296.4h-.083v28.009h-1.841v-30.3" transform="translate(-50.791 299.68)" fill="#231f1f" fill-rule="evenodd"/><path d="M249.549-250.277c.335-4.329,3.138-8.827,7.906-8.827,4.937,0,7.781,4.244,7.866,8.827Zm17.361,1.4c.293-6.238-2.72-11.627-9.454-11.627-6.483,0-9.581,5.814-9.5,11.8-.085,6.026,3.221,11.034,9.5,11.034,5.1,0,8.45-2.8,9.288-7.894h-1.591a7.462,7.462,0,0,1-7.7,6.493c-5.312,0-7.99-4.668-7.906-9.8Z" transform="translate(-165.326 269.468)" fill="#231f1f" fill-rule="evenodd"/><path d="M363.034-253.247c-.293-3.862-3.388-5.857-7.279-5.857-5.4,0-8.283,4.838-8.283,9.8,0,5.9,2.718,10.227,8.283,10.227a7.432,7.432,0,0,0,7.488-6.79h1.59c-.712,5.219-4.435,8.19-9.078,8.19-6.986,0-9.874-5.559-9.874-11.628s3.515-11.2,9.874-11.2c4.643,0,8.408,2.291,8.869,7.257h-1.59" transform="translate(-242.793 269.468)" fill="#231f1f" fill-rule="evenodd"/><path d="M445.909-250.277c.334-4.329,3.137-8.827,7.907-8.827,4.936,0,7.781,4.244,7.863,8.827Zm17.361,1.4c.294-6.238-2.718-11.627-9.454-11.627-6.485,0-9.581,5.814-9.5,11.8-.083,6.026,3.221,11.034,9.5,11.034,5.1,0,8.45-2.8,9.286-7.894h-1.59a7.461,7.461,0,0,1-7.7,6.493c-5.314,0-7.99-4.668-7.907-9.8Z" transform="translate(-320.664 269.468)" fill="#231f1f" fill-rule="evenodd"/><path d="M545.855-259.995h1.588v4.668h.083a7.968,7.968,0,0,1,7.7-5.178c7.572,0,7.655,6.152,7.655,8.827v13.5h-1.588v-13.793c0-2.25-.251-7.13-6.108-7.13-4.812,0-7.741,3.778-7.741,9.125v11.8h-1.588v-21.813" transform="translate(-400.989 269.468)" fill="#231f1f" fill-rule="evenodd"/><path d="M651.739-246.5a7.536,7.536,0,0,1-8.033,7.426c-3.766,0-5.648-2.123-5.648-4.753,0-3.269,2.133-4.627,5.9-5.051,3.1-.424,6.526-.254,7.782-1.7v4.075Zm1.588-8.319c0-4.5-3.763-5.686-7.53-5.686-5.061,0-7.99,2.419-8.2,7.214h1.588c.209-3.777,2.761-5.814,6.609-5.814,4.9,0,5.982,3.311,5.982,4.286,0,3.565-.291,4.032-7.4,4.541-3.556.3-7.907,1.358-7.907,6.451,0,4.582,3.136,6.153,7.2,6.153,4.1,0,6.987-2.25,7.989-4.838h.085v1.146c0,1.783.376,3.183,2.886,3.183a7.218,7.218,0,0,0,1.3-.171v-1.358a7.225,7.225,0,0,1-1.17.128c-1.424,0-1.424-1.358-1.424-2.631v-12.6Z" transform="translate(-472.672 269.468)" fill="#231f1f" fill-rule="evenodd"/><path d="M736.436-282.38H731.75v15.236c0,3.522,1.632,3.862,4.644,3.777v1.4c-3.263.212-6.4-.255-6.234-5.178V-282.38h-3.972v-1.4h3.972v-6.79h1.59v6.79h4.686v1.4" transform="translate(-543.649 293.253)" fill="#231f1f" fill-rule="evenodd"/><path d="M2.173-282.746H8.79a.513.513,0,0,0,.5-.511v-15.516H7.35v14.057H4.22v-14.057H2.27l0,15.518a1.48,1.48,0,0,1-.1.509" transform="translate(29.111 299.742)" fill="#10a5c5" fill-rule="evenodd"/><path d="M-108.2-302.442v15.516a1.487,1.487,0,0,1-1.473,1.5l-15.946,0h-18.542a1.485,1.485,0,0,1-1.471-1.495v-13.022a1.484,1.484,0,0,1,1.471-1.494l18.549,0a1.486,1.486,0,0,1,1.471,1.5v13.025a1.475,1.475,0,0,1-.1.5h6.582a.5.5,0,0,0,.5-.509l0-15.518H-119.1v14.057h-3.1v-11.563a3.445,3.445,0,0,0-3.419-3.463h-18.542a3.442,3.442,0,0,0-3.414,3.463v13.022a3.444,3.444,0,0,0,3.414,3.465l34.489,0a3.443,3.443,0,0,0,3.414-3.463v-15.521H-108.2" transform="translate(147.575 303.411)" fill="#10a5c5" fill-rule="evenodd"/><path d="M-133.125-289.248a.506.506,0,0,0-.5.509v13.022a.505.505,0,0,0,.5.509h17.509v-.005h1.055a.5.5,0,0,0,.312-.134c.006-.006.017,0,.023-.011a.508.508,0,0,0,.148-.359h0v-13.022a.512.512,0,0,0-.5-.511l-18.549,0Zm17.1,12.063h-15.662v-10.1h15.662v10.1Z" transform="translate(136.539 292.208)" fill="#10a5c5" fill-rule="evenodd"/></g></g></g><g transform="translate(321.829 -63.674)"><path d="M844.8,241.114c48.855,66.588,1.175,145.058-106.491,175.27s-234.549.725-283.4-65.861-1.175-145.055,106.493-175.268S795.954,174.532,844.8,241.114Z" transform="translate(-586.038 45.174)" fill="#cae1fc"/><path d="M1030.89,286.093c53.7,73.212,1.289,159.487-117.065,192.7s-257.835.8-311.538-72.414-1.293-159.483,117.068-192.7S977.19,212.886,1030.89,286.093Z" transform="translate(-271.46 -3.684)" fill="#da97b8" opacity="0.3"/><ellipse cx="163.857" cy="125.706" rx="163.857" ry="125.706" transform="translate(182.466 142.097)" fill="#cbcfff" opacity="0.6"/><g transform="translate(140.715 169.843)"><ellipse cx="129.914" cy="92.269" rx="129.914" ry="92.269" transform="translate(-53 -11)" fill="#fff"/><ellipse cx="134.394" cy="80.636" rx="134.394" ry="80.636" transform="translate(88.44 104.047)" fill="#fff"/></g><g transform="translate(84.33 157.944)"><ellipse cx="15.512" cy="12.546" rx="15.512" ry="12.546" transform="translate(320.542 187.049) rotate(-41.966)" fill="#e12e8b"/><path d="M468.121,59.639c-12.2,0-15.174,13.092-15.174,13.092h25.886S480.321,59.639,468.121,59.639Z" transform="translate(-372.312 17.723)" fill="#e12e8b"/><ellipse cx="15.512" cy="12.546" rx="15.512" ry="12.546" transform="translate(199.143 187.049) rotate(-41.967)" fill="#e12e8b"/><path d="M743.215,114.948a48.609,48.609,0,0,1,18.666-29.915s-34.023-15.53-73.116,17.752q-6.935-.486-14.065-.493-4.019,0-7.979.159.238-2.762.242-5.564c0-51.271-60.878-92.834-135.977-92.834-26.223,0-50.71,5.069-71.479,13.848-2.641,13.429-5.123,26.091-5.419,27.791l-16.233,92.851h-24.4l13.024-83h0l2.648-20.159C407.9,51.76,395.008,73.3,395.008,96.886c0,34.209,27.121,64.074,67.464,80.178a48.607,48.607,0,0,1-18.666,29.914s34.022,15.532,73.114-17.75q6.937.486,14.066.493,4.016,0,7.979-.159-.24,2.762-.244,5.564c0,51.27,60.88,92.834,135.979,92.834S810.678,246.4,810.678,195.125C810.678,160.917,783.558,131.051,743.215,114.948Zm-70,9.908h26.482L696.252,143.9H669.828ZM584.545,32.022s.3-3.869,3.868-3.869h22.614s5.653,2.083,2.082,6.547c-12.794,16.068-20.531,24.7-20.531,24.7s-8.033,8.629-8.033,0Zm31.539,30.291c29.457-3.926,31.837,16.72,31.837,16.72l-19.935,8.927c-.892-11.9-18.447-13.39-19.935-4.76s16.96,4.76,30.944,14.58c13.39,9.819,6.546,40.466-27.523,44.1-33.77,3.637-36.448-18.812-36.448-18.812l20.53-7.737c-.3,10.414,20.829,13.688,21.424,3.869,0-11.9-13.2-3.3-27.077-15.175C574.428,89.745,584.545,67.132,616.084,62.313Zm-96.107,46.475H474.453s-2.083,8.331,6.247,11.306c13.688,4.761,21.721-7.737,21.721-7.737l9.82,18.747c-8.034,11.306-44.633,18.745-58.915-4.167-11.9-26.778,6.547-66.352,43.888-64.566C539.02,65.347,519.977,108.788,519.977,108.788Zm48.8,28.131s-17.853,9.062-31.243,1.623c-8.033-7.141-10.414-8.331-7.735-28.564,1.838-9.031,3.609-18.225,5.2-26.778h-8.176l1.922-18.449h9.607C540.583,52.179,542,43.626,542,43.626h25.292l-3.751,21.125h13.569L573.536,83.2H560.263l-4.282,24.124s-6.249,14.258,12.794,11.283ZM603.885,256.37c-25.59-1.488-31.837-9.819-31.837-9.819l11.9-20.531s11.6,10.712,23.208,8.332,15.176-8.332,16.663-18.151c0,0-8.629,12.2-31.243,7.439s-22.017-30.647-13.388-49.69c8.925-19.043,38.978-30.945,55.938-14.58l1.318-6.843h23.676l-12.2,68.138S641.376,255.18,603.885,256.37Zm51.772-29.456L668.3,152.527h26.391l-13.447,74.387Zm113.662-6.249s-6.547,34.515-44.037,35.7c-25.588-1.488-31.837-9.819-31.837-9.819l11.9-20.531s11.6,10.712,23.208,8.332,15.174-8.332,16.662-18.151c0,0-8.629,12.2-31.241,7.439s-22.018-30.647-13.39-49.69c8.926-19.043,38.978-30.945,55.939-14.58l1.318-6.843h23.675Z" transform="translate(-395.008 -4.052)" fill="#e12e8b"/></g><g transform="translate(104.306 104.072)"><g transform="translate(0 0)"><circle cx="29.913" cy="29.913" r="29.913" fill="#cbcfff"/><g clip-path="url(#a)"><g transform="translate(10.426 16.411)"><path d="M489.756,261.715a77.373,77.373,0,0,0-12.1-5.454L476.207,238.6c-2.8-3.019-8.733,5.058-8.733,5.058l-2.979,12.9L451.3,261.767s-.333,3.832,4.5,7.075h32.046C491.6,266.3,492.184,263.168,489.756,261.715Z" transform="translate(-450.345 -230.674)" fill="#ba6b4f"/><path d="M471.346,252.883c.024-.024-.775-14.358-.775-14.358-2.8-3.019-8.733,5.058-8.733,5.058l-2.516,9.605C462.383,256.737,465.9,257.564,471.346,252.883Z" transform="translate(-444.454 -230.732)" fill="#ecb49f" style="mix-blend-mode:multiply;isolation:isolate"/><path d="M459.186,240.941c-.04.213-.082.421-.128.623a49.415,49.415,0,0,0-.8,5.528c-.281,2.456.4,6.059,1.951,7.814,3.172,3.579,8.2,4.8,12.467-.108,5.58-6.406.437-24.5-8.856-20.41-1.538.676-2.539.659-3.442,2.143A13.378,13.378,0,0,0,459.186,240.941Z" transform="translate(-445.284 -233.711)" fill="#ba6b4f"/><path d="M459.314,241.442c-.581-.831-1.651-1.972-1.673-.113a8.646,8.646,0,0,0,.964,3.362c.6-.274.831-1.051,1.023-1.673Z" transform="translate(-445.688 -228.913)" fill="#ba6b4f"/><path d="M491.031,253.868a59.419,59.419,0,0,0-7.916-3.772c-.628-.177-3.17-1.264-3.17-1.264-8.917,12.76-16.557.548-16.557.548-.042-.005-1.706.44-1.748.434l-10.073,3.976a28.249,28.249,0,0,0-.819,7.047s2.275,7.139,16.549,8.4,24.961-8.4,24.961-8.4C492.408,257.858,492.276,254.615,491.031,253.868Z" transform="translate(-450.748 -222.67)" fill="#445998"/><path d="M477.27,249.3l-.179-.071a10.878,10.878,0,0,1-9.182,6.612c-5.395.5-8.263-1.992-9.72-4.177a11.714,11.714,0,0,1-1.115-2.126l-.179.071a11.948,11.948,0,0,0,1.134,2.169,9.664,9.664,0,0,0,8.5,4.335c.444,0,.907-.021,1.391-.068A11.068,11.068,0,0,0,477.27,249.3Z" transform="translate(-446.235 -222.376)" fill="#fff"/><path d="M462.314,242.561c2.532,0,4.557.416,6.369,2.457-.029-.527-.281-1.016-.323-1.528a2.8,2.8,0,0,1,1.651.493,3.275,3.275,0,0,1-.2-1.4,2.719,2.719,0,0,1,2.162.846c-.062-2.166-.331-4.153-2.178-5.381-2.447-1.625-5.2-1.21-7.6-.031Z" transform="translate(-442.346 -231.375)" fill="#002c43"/><path d="M457.689,242.535s.255-8.018,8.076-8.735c8.482-.777,9.168,6.845,9.4,9.255a73.507,73.507,0,0,1-10.245.616C460.3,243.524,459.647,243.4,457.689,242.535Z" transform="translate(-445.653 -233.745)" fill="#445998"/><path d="M459.306,238.808s-7.254,3.071-1.543,3.812,18.557-3.108,18.557-3.108S462.667,240.471,459.306,238.808Z" transform="translate(-447.207 -230.028)" fill="#7ab6f6"/><path d="M462.527,241.206l-.543,5.846h1.809Z" transform="translate(-442.499 -228.268)" fill="#ecb49f" style="mix-blend-mode:multiply;isolation:isolate"/></g></g></g></g><g transform="translate(143.732 388.745)"><path d="M1551.158,631.506l-37.089-15.885,19.229-44.895,27.818,11.914,5.348,13.128Z" transform="translate(-1514.069 -570.727)" fill="#fff"/><path d="M1608.817,606.06l9.269,3.97-5.348-13.128Z" transform="translate(-1565.692 -584.988)" fill="#7ab6f6"/><g transform="translate(29.159 18.898)"><rect width="1.495" height="16.228" transform="matrix(0.394, -0.919, 0.919, 0.394, 1.468, 1.375)" fill="#7ab6f6"/><path d="M1593.049,627.554l-14.916-6.39.585-1.374,14.916,6.39Z" transform="translate(-1578.133 -616.356)" fill="#7ab6f6"/></g><rect width="7.574" height="7.32" transform="translate(17.011 19.455) rotate(-66.816)" fill="#fa7071"/><path d="M1563.858,603.963l-4.657,1.862-1.113-2.776-1.486.6,1.113,2.779c-.01,0,.585,1.489.585,1.489l6.153-2.463Z" transform="translate(-1537.243 -588.337)" fill="#fff"/><g transform="translate(24.345 30.13)"><rect width="1.493" height="16.228" transform="translate(1.475 1.372) rotate(-66.809)" fill="#7ab6f6"/><path d="M1582.476,652.233l-14.919-6.387.593-1.374,14.916,6.39Z" transform="translate(-1567.557 -641.036)" fill="#7ab6f6"/></g><rect width="7.573" height="7.321" transform="matrix(0.393, -0.919, 0.919, 0.393, 12.2, 30.688)" fill="#fa7071"/><path d="M1553.287,628.645l-4.657,1.862-1.11-2.775-1.489.593,1.111,2.775c-.008.006.585,1.492.585,1.492l6.153-2.46Z" transform="translate(-1531.483 -601.785)" fill="#fff"/><g transform="translate(19.538 41.362)"><path d="M1575.145,669.365l-14.919-6.39.585-1.374,14.918,6.387Z" transform="translate(-1558.755 -661.601)" fill="#7ab6f6"/><rect width="1.494" height="16.228" transform="translate(0 4.807) rotate(-66.815)" fill="#7ab6f6"/></g><path d="M1537.036,657.373l-6.727-2.885,2.979-6.956,6.727,2.879Z" transform="translate(-1522.917 -612.574)" fill="#bfd4f8"/><path d="M1608.817,606.06l9.269,3.97-5.348-13.128Z" transform="translate(-1565.692 -584.988)" fill="#364e57"/></g><g transform="translate(368.643 141.354)"><path d="M725.842,153.862a41.66,41.66,0,1,1-57.59-12.423A41.664,41.664,0,0,1,725.842,153.862Z" transform="translate(-649.169 -134.781)" fill="#cbcfff"/><g clip-path="url(#b)"><g transform="translate(11.59 14.83)"><path d="M689.257,155.544s.581,13.569,2.159,16.184,7.989,4.424,13.53,7.5-12,15.075-28.916,12.612-16.3-10.151-16.3-10.151l15.271-9.5s4.415-4.037,4.106-9.576S686.179,152.464,689.257,155.544Z" transform="translate(-653.013 -135.093)" fill="#ecb49f"/><path d="M681.188,162.175l-.2-4.836c-3.078-3.078-10.46,1.538-10.151,7.073v.114c1.034,1.72,2.344,2.886,4.018,2.96C678.146,167.636,680.047,165.381,681.188,162.175Z" transform="translate(-644.86 -133.775)" fill="#ecb49f" style="mix-blend-mode:multiply;isolation:isolate"/><path d="M668.066,155.392s.923,16.745,9.243,17.02,9.3-8.834,9.841-15.472c.607-7.429-.127-9.683-9.841-10.112C667.945,146.416,668.066,155.392,668.066,155.392Z" transform="translate(-646.887 -140.777)" fill="#ecb49f"/><path d="M692.729,154.173a2.924,2.924,0,0,1,.076.656c.023,2.53-1.783,5.657-4.547,5.619-2.806-.038-3.527-2.579-5.494-3.822-1.214-.765-2.575-.245-3.834.307-3.151,1.38-5.782,4.122-9.428,4.117-1.8,0-3.655-.744-4.263-2.587-.453-1.368-.04-4.375,1.979-3.936a2.769,2.769,0,0,1-1.814-3.845c.855-1.512,2.634-1.347,4.106-1.432a5.007,5.007,0,0,1,3.385-4.483c2.612-1.134,6.763-2.025,9.52-.943A10.241,10.241,0,0,1,688,151.376a14.774,14.774,0,0,1,3.21.864A3.106,3.106,0,0,1,692.729,154.173Z" transform="translate(-649.084 -143.333)" fill="#2e3054"/><path d="M670.841,157.8a8.157,8.157,0,0,0,7.9-.108S674.977,165.634,670.841,157.8Z" transform="translate(-644.85 -132.79)" fill="#fff"/><g transform="translate(0 39.365)"><path d="M716.4,186.369a43.748,43.748,0,0,0-7.368-14.8l-10.2-5.185a8.627,8.627,0,0,0-.98.768,26.185,26.185,0,0,1-6.893,2.575,23.856,23.856,0,0,1-16.816-3.69l-11.024,5.839a43.724,43.724,0,0,0-7.269,14.5s8.551,10.285,24.671,10.746S716.4,186.369,716.4,186.369Z" transform="translate(-655.853 -166.033)" fill="#2a2b7c"/></g><path d="M664.811,167.168l-.477.255c1.614.969,8.735,4.946,16.667,4.946a19.182,19.182,0,0,0,13.727-5.412c-.019-.023-.432-.229-.432-.229C683.343,177.091,667.943,169,664.811,167.168Z" transform="translate(-649.627 -126.158)" fill="#fff"/></g></g></g><g transform="translate(76.915 341.331)"><rect width="40.719" height="50.09" transform="translate(0 17.217) rotate(-17.312)" fill="#fff" opacity="0.8"/><path d="M545.515,214.373a9.811,9.811,0,1,1-12.286-6.449A9.808,9.808,0,0,1,545.515,214.373Z" transform="translate(-499.718 -207.476)" fill="#7ab6f6"/><rect width="24.916" height="1.519" transform="translate(12.729 31.5) rotate(-17.314)" fill="#cbcfff"/><rect width="24.916" height="1.52" transform="translate(14.355 36.722) rotate(-17.311)" fill="#cbcfff"/><rect width="24.919" height="1.519" transform="matrix(0.955, -0.298, 0.298, 0.955, 15.982, 41.945)" fill="#cbcfff"/><rect width="24.917" height="1.519" transform="translate(17.61 47.165) rotate(-17.311)" fill="#cbcfff"/><g transform="translate(32.03 1.932)"><path d="M535.71,217.84l-2.183.7-.379-1.179a2.888,2.888,0,0,1-.185-1.208,4.511,4.511,0,0,1,.484-1.252l.958-1.862a1.79,1.79,0,0,0,.058-1.339,1.7,1.7,0,0,0-.844-1.038,1.675,1.675,0,0,0-1.352-.09,1.824,1.824,0,0,0-1.079.846,1.925,1.925,0,0,0-.182,1.39l-2.336.749a4.141,4.141,0,0,1,.479-3.124,4.5,4.5,0,0,1,2.553-1.9,4.333,4.333,0,0,1,3.1.039,3.443,3.443,0,0,1,1.92,2.271,3.073,3.073,0,0,1-.017,2.134,8.608,8.608,0,0,1-.35.836c-.087.17-.2.391-.352.659s-.275.5-.372.693-.182.36-.238.491a1.922,1.922,0,0,0,.036,1.31Zm.323,4.624a1.565,1.565,0,0,1-1.189-.078,1.4,1.4,0,0,1-.766-.861,1.438,1.438,0,0,1,.109-1.155,1.516,1.516,0,0,1,.907-.761,1.581,1.581,0,0,1,1.186.078,1.4,1.4,0,0,1,.768.863,1.45,1.45,0,0,1-.109,1.152A1.507,1.507,0,0,1,536.033,222.464Z" transform="translate(-528.561 -208.271)" fill="#fff"/></g></g><g transform="translate(187.657 370.999) rotate(65)"><path d="M31.027,34.983a4.081,4.081,0,0,1,.461,3.323A5.138,5.138,0,0,1,29.3,41.214l-.6.387a4.847,4.847,0,0,1-6.749-1.054L.527,7.331a3.453,3.453,0,0,1-.39-2.813,4.345,4.345,0,0,1,1.85-2.463L4.06.718a3.883,3.883,0,0,1,5.408.845Z" transform="translate(57.117 72.232)" fill="#7ab6f6"/><path d="M8.84,0S8.8,6.4,16.163,18.281l-1.824,1.177,1.121-.724L13.636,19.91C5.849,8.3,0,5.7,0,5.7Z" transform="translate(47.798 58.333)" fill="#445998"/><path d="M62.591,15.577A34.009,34.009,0,1,0,52.45,62.593,34.008,34.008,0,0,0,62.591,15.577ZM50.274,59.219A29.995,29.995,0,1,1,59.22,17.754,30,30,0,0,1,50.274,59.219Z" fill="#2a2b7c"/></g><g transform="translate(444.065 430.212)"><g transform="translate(0 0)"><g transform="translate(0 5.807)"><path d="M613.255,290.89a15.592,15.592,0,1,1,3.463-30.794,1.172,1.172,0,1,1-.519,2.286,13.229,13.229,0,1,0,9.848,9.463,1.172,1.172,0,0,1,2.263-.612,15.606,15.606,0,0,1-15.056,19.658Z" transform="translate(-597.662 -259.704)" fill="#fa6082"/></g><g transform="translate(5.736)"><path d="M610.646,281.115a1.178,1.178,0,0,1-.787-.3l-8.5-7.693a1.172,1.172,0,1,1,1.573-1.738l7.63,6.9,19.292-21.538a1.171,1.171,0,1,1,1.745,1.562L611.52,280.726a1.183,1.183,0,0,1-.815.388Z" transform="translate(-600.97 -256.355)" fill="#fa6082"/></g></g></g></g><g transform="translate(-3291.241 -615.245)"><path d="M1515.142,1753.64c0,1.513-15.2,2.739-33.955,2.739s-33.963-1.225-33.963-2.739,15.209-2.739,33.963-2.739S1515.142,1752.13,1515.142,1753.64Z" transform="translate(2114.351 -753.389)" fill="#da97b8" opacity="0.3"/><path d="M1536.746,1632.842c.237,3.808-.979,7.533-.78,11.457,5.391.8,9.91,1.932,15.459,1.624-1.289-3.586-4.139-4.259-7.1-6.4-4.779-3.456-2.492-5.846-4.209-10.785Z" transform="translate(2050.201 -665.059)" fill="#2e3054"/><path d="M1386.052,1635.258c-1.358,1.451-1.027,3.9-2.05,5.645-2.446,4.184-9.078,4.509-11.485,8.485-.474.781,9.64-.018,10.281-.123,2.672-.432,6.851-.242,7.209-3.833.367-3.671-.115-6.968.566-10.738Z" transform="translate(2168.38 -669.365)" fill="#2e3054"/><path d="M1410.363,1226.8s-1.855,3.262-2,12.589-3.257,104.28-3.257,104.28h10.173l12.152-91.279,13.694,92.527,7.833-.556s.6-52.765.3-69.151-6.329-48.873-6.329-48.873S1419.989,1232.258,1410.363,1226.8Z" transform="translate(2144.808 -374.102)" fill="#3d4166"/><path d="M1453.089,1004.1s.484,11.337,1.8,13.518c1.715,2.841,5.308,1.151,6.11,4.783.5,2.27-.874,5.342-2.076,7.2-3.646,5.643-10.183,4.889-16.184,5.936-3.429.6-7.145-.936-8.259-4.514-.884-2.827-.068-7.726,1.924-10.029,1.2-1.391,3.411-1.739,4.776-2.989.02-.017,3.688-3.384,3.431-8S1450.52,1001.527,1453.089,1004.1Z" transform="translate(2123.822 -212.814)" fill="#ecb49f"/><path d="M1477.587,1014.97a103.67,103.67,0,0,1-1.036-10.875c-2.57-2.568-8.736,1.286-8.478,5.91a9.7,9.7,0,0,1-1.5,5.515,6.635,6.635,0,0,0,4.654,1.875C1474.444,1017.47,1476.392,1016.5,1477.587,1014.97Z" transform="translate(2100.359 -212.814)" fill="#ecb49f" style="mix-blend-mode:multiply;isolation:isolate"/><path d="M1457.281,959.192c-.429,5.621.506,16.588,7.333,17.4,6.672.79,8.532-8.291,7.989-13.652-.267-2.62.271-5.914-.959-8.334-1.354-2.663-4.445-3.136-7.016-3.265-4.625-.234-6.992,3.291-7.345,7.81C1457.284,959.161,1457.281,959.177,1457.281,959.192Z" transform="translate(2107.143 -175.253)" fill="#ecb49f"/><path d="M1422.318,1100.419c.361-.046.724-.106,1.092-.179a83.577,83.577,0,0,0,9.714-2.6c3.454-1.151,3.509.516,4.011-3.413.576-4.49,1.286-11,2.242-15.444.9-4.182,2.372-8.24,2.583-12.549.222-4.548-.111-9.494-1.979-13.564-1.183-2.581-1.225-2.947-3.735-2.89a59.188,59.188,0,0,0-6.579,1.052s-2.684,8.054-9.75,7.489-7.913-7.347-7.913-7.347-.6.312-2.84.014c-1.53-.2-2.738-1.395-3.942-2.339-1.734-1.36-1.407-2.2-3.447-1.081-1.2.663-3.058,3.232-3.687,4.464-3.534,6.918,3.187,16.4,3.132,23.58-.056,7.261,2.269,16.683,2.923,23.949C1410.983,1098.957,1415.328,1101.3,1422.318,1100.419Z" transform="translate(2150.623 -244.466)" fill="#fff"/><path d="M1454.138,1216.744c-1.571.465-3.378.747-4.938,1.066-2.484.522-4.988.928-7.5,1.253a60.843,60.843,0,0,1-10.7.558,37.365,37.365,0,0,1-9.466-2.07c-.139,1.358.3,3.065.277,4.527,2.216.044,4.323.876,6.512,1.187a63.627,63.627,0,0,0,9.208.712c4.132.007,8.13-1.208,12.094-2.249,1.255-.327,4.108-.41,5.071-1.31.68-.64-.009-3.848.219-3.929C1454.664,1216.583,1454.409,1216.666,1454.138,1216.744Z" transform="translate(2132.942 -366.981)" fill="#2e3054"/><path d="M1702.778,947.508a11.242,11.242,0,0,0-3.144,7.894,10.236,10.236,0,0,0,.845,4.5c.566,1.306,1.867,2.63,2.163,3.932-1.87.129-3.453.16-5.006,1.683-4.92,4.839-5.152,16.255,1.79,19.265a5.114,5.114,0,0,0,3.8.263c-2.345-1.593-5.325,3.46-3.371,6.1,2.3,3.094,7.958,3.208,11.218,3.382,3.742.2,9.384.926,12.43-1.905,2.33-2.17,3.557-6.733,4.065-9.889.94,2.494,1.914,5.623,4.323,6.547,2.335.892,5.143-.663,6.456-2.916s.773-5.321-.528-7.311c-.635-.963-4.379-6.114-5.422-5.653,4.678-2.072,4.689-7.887,3.729-13.291-2.871-16.168-22.675-24.219-33.16-12.811C1702.906,947.367,1702.843,947.441,1702.778,947.508Z" transform="translate(1935.874 -168.475)" fill="#2e3054"/><path d="M1741.574,974.557c1.144,1.149.225,8.733.584,10.621.965,5.012,6.024,5.8,7.6,9.788.653,1.655-.233,4.242-.7,5.719-1.037,3.3-3.154,8.068-6.839,8.986-1.966.49-4.9.467-7.059.76a13.808,13.808,0,0,1-8.172-.944c-5.106-2.536-6.347-7.96-4.476-13.087,1.326-3.632,3.487-3.388,6.052-5.6,2.7-2.328,3.972-6.363,3.784-9.815C1732.075,975.954,1738.782,971.763,1741.574,974.557Z" transform="translate(1915.894 -191.404)" fill="#e1965e"/><path d="M1770.116,984.5l-.184-4.392c-2.793-2.8-10.228-1.5-9.947,3.528,0,.035,0,.88,0,.914.932,1.564,3.216,5.243,4.719,5.03C1767.907,989.122,1769.082,987.411,1770.116,984.5Z" transform="translate(1888.214 -195.018)" fill="#ecb49f" style="mix-blend-mode:multiply;isolation:isolate"/><path d="M1746.9,933.316s2.065,15.525,8.008,15.946,7.872-8.414,8.339-14.519c.523-6.834-.108-8.907-8.428-9.3C1746.8,925.061,1746.9,933.316,1746.9,933.316Z" transform="translate(1897.669 -156.527)" fill="#e1965e"/><path d="M1759.058,926.063c-.068.483-.194,1.007-.306,1.551,2.116-.046,2.06,3.361,1.373,4.564-.116.2-.889.843-.892.984,0,.434.843.386.73,1.077a1.966,1.966,0,0,1-2.452,1.389c-.752-.285-.593-1.156-.7-1.83a5.7,5.7,0,0,0-2.048-3.645c-.879-.86-2.458-2.062-2.577-3.328-1.629,2.9-5.178,3.387-8.17,2.715-.422,1.748-.1,2.7-1.831,3.723-1.674.99-1.964.125-3.339-.8a3.973,3.973,0,0,1,1.552-3.563c-2.042-1.972-.318-5.068,1.624-7.142a10.173,10.173,0,0,1,8.605-3.333,8.487,8.487,0,0,1,4.8,1.96c.876.86,1.81,1.391,1.916,3.316C1759.043,923.907,1759.235,924.839,1759.058,926.063Z" transform="translate(1903.536 -151.439)" fill="#2e3054"/><path d="M1746.875,1031.434l-1.295,1.291s2.267,2.871,8.74,3.017,9.873-3.3,9.873-3.3l-1.78-1.148S1753.185,1036.744,1746.875,1031.434Z" transform="translate(1898.624 -233.071)" fill="#fff"/><path d="M1839.1,885.341a8.555,8.555,0,0,1,1.033-3.163c1.3-2.782,2.935-5.414,4.131-8.234,1.518-3.574,2.639-7.29,4.238-10.823.654-1.448,1.5-2.867,2.081-4.367,1.07-2.752.414-5.514.56-8.415.023-.458,1.04.985,1.073,1.054a6.471,6.471,0,0,1,.277,2.857c1.4-.818,1.361-2.737,2.032-4.039.769-1.5,2.021-4.71,2.649-4.62s-1.151,4.5-1.68,6.335a22.516,22.516,0,0,1,1.869-2.75c.577-1,1.9-3.34,2.439-3.134s-1.8,5.106-2.424,7.028a28.606,28.606,0,0,1,3.714-4.105c.293,2.225-2,3.544-2.372,5.52a9.573,9.573,0,0,0,3.045-1.651c-1.389,3.781-5.175,5.61-6.983,9.225-2.786,5.568-3.982,12.066-5.8,18.061-.712,2.346-1.489,4.724-2.374,7-.365.93-1.1,3.8-2.272,3.892-.562.045-1.184-.937-1.629-1.283a16.481,16.481,0,0,1-2.357-1.536A3.915,3.915,0,0,1,1839.1,885.341Z" transform="translate(1831.005 -98.799)" fill="#e1965e"/><path d="M1631.444,883.624a9.265,9.265,0,0,1-.75-1.087c-1.818-3.258-4.011-6.309-5.741-9.614-1.806-3.457-3.22-7.081-5.109-10.491-.771-1.4-1.745-2.749-2.447-4.2-1.287-2.67-.8-5.477-1.158-8.36-.055-.456-1,1.058-1.03,1.133a6.286,6.286,0,0,0-.089,2.867c-1.492-.709-1.589-2.629-2.368-3.879a51.465,51.465,0,0,0-3.046-4.415c-.059,2.01,1.494,4.4,2.166,6.2a22.024,22.024,0,0,0-2.116-2.606,8.187,8.187,0,0,0-2.26-2.561c.181,2.015,1.742,4.575,2.519,6.445a28.994,28.994,0,0,0-4.1-3.822c-.149,2.241,2.3,3.387,2.821,5.336a10.052,10.052,0,0,1-3.249-1.425c1.692,3.67,5.712,5.219,7.824,8.693,3.254,5.353,4.936,11.752,7.216,17.6a29.963,29.963,0,0,0,4.042,7.572,12.431,12.431,0,0,1,2.033,2.879c2.031-1.322,3.449-3.963,5.815-4.777A7.36,7.36,0,0,0,1631.444,883.624Z" transform="translate(1999.923 -98.788)" fill="#e1965e"/><path d="M1710.7,1013.833c.644-2.267,1.846-4.422,2.452-6.638a25.42,25.42,0,0,0,.817-4.773c.427-4.883,2.331-9.174,4.641-13.437,1.192-2.206,4.941-10.722,4.941-10.722s-3.08-1.737-2.741-1.058c.8,1.6-2.586-2.4-3.951-3.492-2.019,7.012-4.933,14.542-12.331,17.555-8.23,3.352-13.083-.653-18.347-6.741-1.979-2.289-3.906-4.622-5.968-6.834-1.8-1.922-3.125-4.166-4.923-6.055-.712.685-6.652,3.594-6.38,4.443,1.343,3.733,4.428,8.065,6.519,11.641,1.917,3.29,5.411,6.936,5.991,10.623.323,2.071-.2,4.351.21,6.324a29.555,29.555,0,0,0,2.308,5.6c.808,1.8,2.159,4.08,2.492,5.986a9.8,9.8,0,0,1-.017,4.877c-.331,1.368-.541,3.2-.844,4.572-.389,1.762-2.333,3.568-.127,3.877,4.453.629,9.008.934,13.494,1.247,3.311.229,6.7,1.043,10.032.521,1.416-.223,3.681,1.057,3.592-.412a51.787,51.787,0,0,0-1.272-5.447C1710.278,1022.112,1709.7,1017.313,1710.7,1013.833Z" transform="translate(1954.07 -189.939)" fill="#2a2b7c"/><path d="M1785.567,1429.5s.719,52.9,2.909,57.336,12.975,7.569,13.521,6.63-4.671-4.764-5.964-7.234-2.9-3.232-2.311-9.715,6.434-58.233,6.434-58.233l-14.536,10.351Z" transform="translate(1869.711 -512.886)" fill="#e1965e"/><path d="M1717.465,1460.9s-7.283,53.742-9.289,56.209-9.452,7.682-12.121,6.8,3.573-5.524,5.123-7.829,3.213-2.883,3.3-9.385-1.909-43.516-1.909-43.516l14.939-3.148Z" transform="translate(1934.906 -543.074)" fill="#e1965e"/><path d="M1698.235,1657.281c-1.992,2.017-3.856,4.072-2.177,4.635,2.669.883,10.11-4.338,12.12-6.8a16.361,16.361,0,0,0,1.212-4.219C1703.858,1658.143,1698.936,1657.425,1698.235,1657.281Z" transform="translate(1934.902 -681.081)" fill="#2e3054"/><path d="M1807.916,1664.9c.3-.526-1.164-1.921-2.748-3.494-1.661.172-6.215-.027-11.416-6.022a11.686,11.686,0,0,0,.643,2.886C1796.578,1662.7,1807.37,1665.843,1807.916,1664.9Z" transform="translate(1863.793 -684.328)" fill="#2e3054"/><path d="M1666.273,1166.856s-18.056,40.717-22.947,59.888,7.531,24.457,14.3,24.844,18.8,10.352,30.456,1.149,18.167.136,26.062-6.381,3.514-22.513-3.63-36.316-18.158-42.851-18.158-42.851S1674.918,1169.538,1666.273,1166.856Z" transform="translate(1973.363 -331.093)" fill="#fa7071"/><path d="M1568.021,888.724c.267-.614-.358-1.267-.212-1.7.851-2.463,2.64-5.015,3.366-7.536,1.171-4.05,2.543-8.4,4.1-12.3a33.362,33.362,0,0,0,2.2-8.927c.182-1.468-.245-5.042.734-6.033.848.4.828,5.256,2.119,1.822.99-2.615,2.787-7.35,3.726-7.355s-1.143,4.13-.505,4.643,2.969-4.9,3.626-4.543-2.028,4.945-1.426,5.342c1.032.685,2.032-3.165,2.84-2.854s-1.1,3.018-1.2,4.51c1.381.093,2.273-3.28,2.9-1.934s-3.388,4.668-4.375,6.31a22.938,22.938,0,0,0-3.169,9.985,85.169,85.169,0,0,1-3.7,17.452c-1.221,4.024-3.686,7.989-5.208,11.764-1.679.092-6.079-1.394-7.077-2.9C1566,893.337,1567.157,890.714,1568.021,888.724Z" transform="translate(2028.098 -99.604)" fill="#ecb49f"/><path d="M1543.958,955.909c.941-1.769,6.084-12.843,7.605-16.9,1.76-4.7,4.469-9.748,5.5-14.668l4.456-21.306-7.59-3.057s-9.486,26.366-9.648,26.816a89.065,89.065,0,0,1-4.58,11.429,25.668,25.668,0,0,1-1.836,3.563c-1.224,1.7-3.024,2.459-2.2,4.83.629,1.8,2.572,2.819,3.616,4.315,1.316,1.885.74,4.055,1.131,6.14s1.142,3.775.9,6.01A21.154,21.154,0,0,1,1543.958,955.909Z" transform="translate(2050.555 -138.122)" fill="#fff"/><path d="M1338.361,888.052c-.267-.615.358-1.267.212-1.7-.851-2.463-2.639-5.016-3.366-7.536-1.171-4.051-2.544-8.4-4.1-12.3a33.369,33.369,0,0,1-2.2-8.927c-.182-1.468.245-5.042-.734-6.033-.848.4-.828,5.257-2.119,1.822-.99-2.614-2.787-7.35-3.725-7.355s1.142,4.13.5,4.643-2.969-4.9-3.626-4.544,2.029,4.945,1.426,5.342c-1.032.685-2.032-3.165-2.84-2.854s1.1,3.018,1.2,4.51c-1.381.093-2.273-3.28-2.9-1.934s3.388,4.668,4.375,6.31a22.935,22.935,0,0,1,3.169,9.985,85.191,85.191,0,0,0,3.7,17.451c1.22,4.024,3.686,7.989,5.208,11.764,1.679.092,6.079-1.395,7.077-2.9C1340.38,892.664,1339.226,890.041,1338.361,888.052Z" transform="translate(2209.213 -99.117)" fill="#ecb49f"/><path d="M1355.694,955.721c-.993-2.2-1.782-4.579-2.563-6.426-1.518-3.583-2.744-7.321-4.11-10.964-1.76-4.7-4.469-9.748-5.5-14.667,0-.009-4.456-21.307-4.456-21.307l7.591-3.057,9.648,26.816a88.982,88.982,0,0,0,4.58,11.428c1.327,2.565,2.27,3.956,1.838,7.065-.378,2.713-1.879,5.508-2.55,8.259-.457,1.875-.117,6.431-1.344,7.663A14.746,14.746,0,0,1,1355.694,955.721Z" transform="translate(2192.554 -137.636)" fill="#fff"/><path d="M1763.935,989.481a7.971,7.971,0,0,0,7.718-.107S1767.975,997.135,1763.935,989.481Z" transform="translate(1885.352 -202.764)" fill="#fff"/><path d="M1474.56,1020.919h6.146s.187,2-3.167,2.2C1474.331,1023.307,1474.56,1020.919,1474.56,1020.919Z" transform="translate(2094.589 -225.573)" fill="#fff"/><path d="M1456.168,952.775a12.516,12.516,0,0,0-.573,7.559c1.379-.262,1.4-3.479,2.391-4.619,1.394-1.607,3.1-1.264,4.7-.345,2.734,1.567,7.067,4.4,10.038,1.647a5.525,5.525,0,0,1-1.454-.808,3.118,3.118,0,0,0,2.183-.674,10.926,10.926,0,0,0-7.6-8.8c-3.125-.852-7.466-.59-9.645,2.325-1.648,2.2-1.611,8.054.518,9.9Z" transform="translate(2108.698 -171.627)" fill="#2e3054"/></g><g transform="translate(-3074.526 -592.075)"><path d="M2198.852,1682.981c0,1.47-14.7,2.659-32.84,2.659s-32.853-1.189-32.853-2.659,14.717-2.656,32.853-2.656S2198.852,1681.518,2198.852,1682.981Z" transform="translate(1844.823 -695.46)" fill="#a8bcff" opacity="0.3"/><path d="M2145.366,1735.306c0,1.473-14.7,2.66-32.841,2.66s-32.853-1.187-32.853-2.66,14.719-2.652,32.853-2.652S2145.366,1733.843,2145.366,1735.306Z" transform="translate(1883.06 -732.869)" fill="#da97b8" opacity="0.2"/><path d="M2356.253,1200.184a4.464,4.464,0,0,0,4.323-.058S2358.516,1204.473,2356.253,1200.184Z" transform="translate(1685.336 -352.173)" fill="#fff"/><path d="M2023.038,990.856s.5,11.671,1.855,13.917c1.764,2.924,5.465,1.185,6.291,4.925.518,2.337-.9,5.5-2.138,7.41-3.756,5.809-10.484,5.033-16.662,6.111-3.53.614-7.356-.963-8.5-4.647-.911-2.91-.07-7.954,1.981-10.324,1.236-1.432,3.511-1.79,4.917-3.077.02-.018,3.8-3.483,3.532-8.231S2020.393,988.211,2023.038,990.856Z" transform="translate(1937.503 -201.963)" fill="#ecb49f"/><path d="M2048.436,1007.612l-.217-4.734c-3.334-3.009-11.324,1.505-10.993,6.924,0,.038,0,.073.007.112a5.565,5.565,0,0,0,4.344,2.9C2045.143,1012.954,2047.2,1010.748,2048.436,1007.612Z" transform="translate(1913.411 -210.474)" fill="#ecb49f" style="mix-blend-mode:multiply;isolation:isolate"/><path d="M2026.561,949.562s.743,15.912,7.5,16.174,7.538-8.394,7.978-14.7c.494-7.061-.1-9.2-7.978-9.607C2026.462,941.038,2026.561,949.562,2026.561,949.562Z" transform="translate(1921.028 -167.224)" fill="#ecb49f"/><path d="M2038.345,942.969c-.067.454-.185.953-.292,1.467,2-.044,1.95,3.181,1.3,4.321-.111.194-.842.8-.842.933-.005.409.795.363.69,1.018a1.858,1.858,0,0,1-2.323,1.313c-.711-.268-.561-1.091-.66-1.733a5.4,5.4,0,0,0-1.939-3.447c-.837-.814-2.329-1.953-2.442-3.152-1.542,2.745-4.9,3.205-7.734,2.569-.4,1.655-.1,2.558-1.732,3.526-1.585.937-1.86.117-3.162-.76-.3-1.333,1.566-1.573,2.329-2.156-1.931-1.866-1.157-6.016.675-7.98a9.641,9.641,0,0,1,8.148-3.152,8.021,8.021,0,0,1,4.545,1.854c.828.812,1.711,1.318,1.81,3.141C2038.327,940.926,2038.51,941.81,2038.345,942.969Z" transform="translate(1926.308 -163.142)" fill="#2e3054"/><path d="M2036.763,1000.592s-3.572-1.784-6.546-.394c0,0-1.188,10.114,6.546,10.114,8.929,0,6.945-10.314,6.945-10.314A9.541,9.541,0,0,0,2036.763,1000.592Z" transform="translate(1918.462 -208.826)" fill="#2e3054"/><path d="M2041.065,1006.512a7.02,7.02,0,0,0,6.79-.092S2044.621,1013.247,2041.065,1006.512Z" transform="translate(1910.659 -213.695)" fill="#fff"/><path d="M2340.844,999.6s.5,11.67,1.859,13.919c1.762,2.923,5.461,1.185,6.287,4.925.52,2.334-.9,5.5-2.137,7.408-3.756,5.808-10.482,5.033-16.663,6.111-3.529.616-7.354-.962-8.5-4.646-.906-2.91-.069-7.954,1.981-10.325,1.237-1.432,3.513-1.79,4.917-3.076.021-.021,3.8-3.485,3.533-8.231C2331.852,1000.918,2338.2,996.952,2340.844,999.6Z" transform="translate(1710.306 -208.211)" fill="#ad704d"/><path d="M2361.833,1011.178a5.909,5.909,0,0,0,5.786-3.612c-.432-3.826-.613-7.97-.613-7.97-2.644-2.644-8.992,1.322-8.726,6.084a9.014,9.014,0,0,1-.36,3.007A5.04,5.04,0,0,0,2361.833,1011.178Z" transform="translate(1684.144 -208.211)" fill="#ecb49f" style="mix-blend-mode:multiply;isolation:isolate"/><path d="M2344.36,958.309s.747,15.91,7.5,16.172,7.536-8.394,7.976-14.7c.5-7.059-.1-9.2-7.976-9.606C2344.263,949.781,2344.36,958.309,2344.36,958.309Z" transform="translate(1693.838 -173.477)" fill="#ad704d"/><path d="M2358.883,1015.253a7.009,7.009,0,0,0,6.788-.092S2362.432,1021.988,2358.883,1015.253Z" transform="translate(1683.456 -219.944)" fill="#fff"/><path d="M2181.12,869.076c1.291.209,2.487.179,3.011-.607.455-.682.544-2.43.763-3.31.78-3.119,1.325-6.375,2.681-9.317.767-1.663,3.04-4.4,2.629-5.185s-1.7,1.661-2.175,2.671c.528-1.276,2.5-4.874,1.623-5.036s-2.564,2.877-2.48,4.3c.5-2.178,1.56-6.62.709-6.632s-2.878,4.971-3.774,6.8c.343-1.67,1.118-3.464.857-5.2-2.651,2.008-1.648,6.194-3.723,8.12-.36-1.072.4-3.815-.761-3.792s-1.12,8.246-1.576,9.25c-.488,1.07-.283,2.039-.437,3.2-.215,1.639-1.083,2.2-1.29,3.874C2178.036,868.283,2179.639,868.834,2181.12,869.076Z" transform="translate(1813.354 -98.986)" fill="#e7a588"/><path d="M1897.539,869.587c-1.29.209-2.487.179-3.01-.607-.455-.683-.544-2.43-.764-3.31-.778-3.119-1.324-6.376-2.681-9.317-.768-1.663-3.04-4.4-2.629-5.185s1.7,1.661,2.175,2.672c-.529-1.276-2.5-4.874-1.623-5.036s2.564,2.877,2.48,4.3c-.5-2.178-1.56-6.62-.709-6.632s2.877,4.971,3.774,6.8c-.342-1.67-1.118-3.464-.857-5.2,2.651,2.008,1.649,6.194,3.723,8.119.36-1.071-.4-3.815.76-3.791s1.12,8.246,1.577,9.25c.488,1.07.283,2.039.437,3.2.215,1.639,1.083,2.2,1.29,3.874C1900.624,868.794,1899.021,869.345,1897.539,869.587Z" transform="translate(2019.794 -99.351)" fill="#e7a588"/><path d="M2441.744,907.668a17.093,17.093,0,0,0,.63-1.914c1.106-2.642,3.094-5.433,4.073-8.147,1.577-4.361,2.808-8.891,4.8-13.065a36.807,36.807,0,0,0,3.055-9.642c.3-1.594.085-5.551,1.23-6.57.909.5.537,5.829,2.2,2.156,1.269-2.8,3.583-7.881,4.613-7.815s-1.55,4.452-.89,5.063,3.611-5.169,4.31-4.732-2.579,5.284-1.948,5.764c1.082.829,2.457-3.328,3.323-2.924s-1.431,3.23-1.637,4.866c1.515.191,2.733-3.447,3.319-1.924s-4.052,4.887-5.252,6.616a25.223,25.223,0,0,0-4.19,10.74,93.977,93.977,0,0,1-5.313,18.9c-1.628,4.328-4.618,8.508-6.558,12.546-1.848-.024-6.573-1.967-7.562-3.687C2439.195,912.589,2440.651,909.791,2441.744,907.668Z" transform="translate(1625.653 -110.931)" fill="#ad704d"/><path d="M2217.545,896.3c-.324-.658-1-1.385-1.183-1.853-1.057-2.663-1.821-5.4-2.748-8.135-1.5-4.389-3.222-9.1-5.134-13.311a36.766,36.766,0,0,1-2.875-9.7c-.271-1.6.019-5.551-1.106-6.591-.919.48-.646,5.818-2.243,2.115-1.216-2.824-3.435-7.946-4.465-7.9s1.466,4.48.795,5.078-3.513-5.235-4.221-4.812,2.48,5.331,1.841,5.8c-1.1.808-2.393-3.374-3.268-2.986s1.37,3.257,1.546,4.9c-1.519.162-2.668-3.5-3.283-1.986s3.96,4.963,5.127,6.713a25.2,25.2,0,0,1,3.987,10.816,93.965,93.965,0,0,0,4.959,18.995c1.546,4.357,4.458,8.593,6.321,12.666,1.848.011,6.609-1.844,7.63-3.545C2220,901.269,2218.6,898.445,2217.545,896.3Z" transform="translate(1803.37 -102.534)" fill="#ad704d"/><path d="M2139.28,1631.207c-.143,1.2.982,2.744,1.24,3.812.433,1.795-.034,3.649.329,5.388.554,2.647,1.623,2.852,4.344,3.432a37.1,37.1,0,0,0,10.248.874c.906-.073,3.692-.037,3.863-1.4.137-1.118-5.307-2.758-6.269-3.429-2.645-1.849-4.771-4.828-3.992-8.157,1.58-6.739-8.47-4.468-9.695-.819A1.4,1.4,0,0,0,2139.28,1631.207Z" transform="translate(1840.456 -657.624)" fill="#3d4166"/><path d="M1936.26,1626.9v10.7c-1.725.7-18.4,5.03-19.034,2.721-.923-3.356,3.286-3.416,5.187-4.023a7.018,7.018,0,0,0,4.784-4.453c.639-2.26-1.328-4.761-.428-6.9C1928.134,1621.7,1934.4,1625.679,1936.26,1626.9Z" transform="translate(1999.283 -654.98)" fill="#3d4166"/><path d="M1944.793,984.054a45.781,45.781,0,0,0,10.035-1.5,33.676,33.676,0,0,1,5.021-1.156c1.345-.086,2.287.543,3.186-.1a2.15,2.15,0,0,0,.261-.225c.586-.593,1.011-3.885,1.154-4.783,1-6.272,1.6-12.631,2.22-18.935.429-4.329-.328-8.3,2.437-11.992,1.182-1.577,9.429-13.275,14.054-21.448s8.648-29.188,8.365-30.043c-.186-.559-2.134-1.628-3.739-2.43-.842-.418-3.8-2.734-4.113-1.868-.6,1.664-2.988,11.029-5.419,20.375s-12.245,25.423-15.891,23.741-6.168-.748-6.168-.748c-3.774,5.942-16.061,2.617-15.688,0,0,0-2.523-.935-6.167.748s-13.459-14.393-15.891-23.741-4.818-18.711-5.42-20.375c-.315-.865-3.271,1.451-4.115,1.868-1.6.8-3.551,1.871-3.738,2.43-.285.856,3.738,21.873,8.367,30.043s12.872,19.871,14.054,21.448c2.764,3.694,2.011,7.662,2.437,11.992.619,6.3,1.219,12.663,2.218,18.935.142.9.569,4.19,1.156,4.783a1.784,1.784,0,0,0,.262.225c.9.639,1.839.01,3.189.1a34.011,34.011,0,0,1,5.02,1.156,45.687,45.687,0,0,0,10.029,1.5Z" transform="translate(2007.815 -130.032)" fill="#fff"/><path d="M2282.379,1053.776a30.565,30.565,0,0,1,5.017-1.309c1.345-.1,2.288.613,3.182-.113a1.935,1.935,0,0,0,.261-.252c.827-.955.612-4.526.735-5.714.4-3.9.772-7.793,1.186-11.686a63.162,63.162,0,0,1,2.03-9.464c.9-3.532.411-7.06,2.018-10.457,1.137-2.4,2.335-4.646,3.64-6.986,2.12-3.8,9.309-12.408,10.962-21.744a32.026,32.026,0,0,0-9.505-3.395c-.724,4.547-10.465,16.844-13.162,17.741a26.474,26.474,0,0,1-6.493.972s-1.142,5.435-6.18,6.175-8.4-1.873-6.871-5.944c-1.907-.8-5.3-.3-8-1.2s-12.541-13.047-13.267-17.595a36.7,36.7,0,0,0-10.182,3.637c1.652,9.336,9.625,17.555,11.744,21.356,1.3,2.34,2.5,4.587,3.638,6.986,1.614,3.4,1.118,6.925,2.021,10.457a63.254,63.254,0,0,1,2.031,9.464c.411,3.893,1.1,8.756,1.507,12.652.124,1.188-.414,3.793.416,4.748a1.985,1.985,0,0,0,.256.252c.9.726,1.839.013,3.187.113a30.546,30.546,0,0,1,5.012,1.309Z" transform="translate(1770.049 -196.706)" fill="#7ab6f6"/><path d="M1956.133,1199.243c0,11.827-17.954,108.38-17.33,128.663,4.872,1.06,10.362,0,14.9,1.766-.044-6.5,11.933-88.585,18.32-93.229,1.468,2.394,19.2,83.83,21.922,93.13,1.3-.283,14.33.235,14.343.1.764-8.854-16.184-122.485-20-130.8Z" transform="translate(1983.776 -351.275)" fill="#2e3054"/><path d="M2032.022,1201.811v-1.127a13.614,13.614,0,0,0-.612-1.814l-32.152.373c0,.624-.053,1.5-.147,2.567Z" transform="translate(1940.652 -351.275)" fill="#0b1238"/><path d="M2338.1,938.242a3.488,3.488,0,0,1-1.035,1.1c-.329.183-1.012-.124-1.4.029a6.053,6.053,0,0,0-2.578,1.348c-4.895,5.308,1.381,11.143,7.018,10.53,2.62-.284,4.47-2.78,7.149-2.745.005,2.479,1.677,4.368,4.34,3.709,6.765-1.673,3.389-12.5-.932-14.814-2.72-1.456-9.287-2.278-11.7-.188A5.745,5.745,0,0,0,2338.1,938.242Z" transform="translate(1703.161 -163.314)" fill="#2e3054"/><path d="M2342.414,1203.5c-1.559.451-3.352.718-4.9,1.038-2.462.5-4.94.893-7.431,1.212a61.427,61.427,0,0,1-10.6.54,37.739,37.739,0,0,1-9.381-2.01c-.133,1.318.3,2.977.276,4.4,2.192.043,4.291.846,6.461,1.153a65.109,65.109,0,0,0,9.116.692c4.1.005,8.056-1.171,11.984-2.184,1.242-.32,4.071-.4,5.021-1.275.671-.62,0-3.732.22-3.813C2342.938,1203.336,2342.677,1203.421,2342.414,1203.5Z" transform="translate(1718.342 -354.404)" fill="#2e3054"/><path d="M2423.5,1631.606c.215,3.457-.871,6.849-.692,10.419,4.787.73,8.8,1.763,13.728,1.48-1.143-3.256-3.672-3.877-6.3-5.823-4.243-3.143-2.218-5.322-3.742-9.816Z" transform="translate(1637.771 -657.958)" fill="#2e3054"/><path d="M2240.838,1641.551c-.246,4.466-6.684,6.327-8.68,9.8,2.074.93,9.337.511,11.354-1.023,2.782-2.11.711-7.435,3.929-10.49Z" transform="translate(1774.05 -666.515)" fill="#2e3054"/><path d="M2270.575,1213.031l-16.415,123.335,8.3.3,25.783-83.535,13.039,85.318,7.7-.591s.595-56.486.3-74.026.593-41.915-6.223-52.318C2303.056,1211.512,2280.035,1218.877,2270.575,1213.031Z" transform="translate(1758.32 -360.312)" fill="#2a2b7c"/><path d="M2344.312,1047.112s-.69,5.237,4.357,5.378,7.85-3.785,8.974-6.17l1.4.282s-2.527,7.991-10.095,7.43-6.168-5.468-5.747-7.151Z" transform="translate(1694.936 -242.219)" fill="#2e3054"/><path d="M2029.132,1039.743l1.3-.968,6.692,4.364,5.527-4.364,2.037,2.037-4.947,6.837-2.837-2.618-2.618,2.4Z" transform="translate(1919.191 -236.825)" fill="#c7e6fe"/><path d="M2041.811,1056.888l-2.148,2.918,1.88,2.021-4.3,34.577,4.565,6.96,5.908-7.409-4.028-34.128,1.344-2.021-1.613-2.469Z" transform="translate(1913.39 -249.774)" fill="#fa7071"/></g><g transform="translate(632 46.16)"><g transform="translate(0 1.906)"><path d="M2581.645,744.459a25.487,25.487,0,1,1-25.487-25.487A25.484,25.484,0,0,1,2581.645,744.459Z" transform="translate(-2530.671 -718.972)" fill="#f1a09d"/><path d="M2583.857,752.6a19.553,19.553,0,1,1-19.556-19.553A19.554,19.554,0,0,1,2583.857,752.6Z" transform="translate(-2538.814 -727.112)" fill="#fff"/><path d="M2585.957,760.368a13.888,13.888,0,1,1-13.888-13.89A13.885,13.885,0,0,1,2585.957,760.368Z" transform="translate(-2546.583 -734.882)" fill="#f1a09d"/><path d="M2588.173,768.509a7.957,7.957,0,1,1-7.961-7.956A7.961,7.961,0,0,1,2588.173,768.509Z" transform="translate(-2554.726 -743.023)" fill="#fff"/><path d="M2589.971,775.171a3.1,3.1,0,1,1-3.1-3.1A3.1,3.1,0,0,1,2589.971,775.171Z" transform="translate(-2561.383 -749.685)" fill="#f1a09d"/></g><g transform="translate(24)"><path d="M2594.031,772l-6.435,2.665,2.668-6.431Z" transform="translate(-2587.597 -745.559)" fill="#2a2b7c"/><path d="M2616.144,722.153l.652.651-23,23-.653-.649Z" transform="translate(-2590.805 -718.906)" fill="#2a2b7c"/><path d="M2642.159,724l3.379.262L2640.6,729.2l-3.381-.258Z" transform="translate(-2616.297 -719.973)" fill="#7ab6f6"/><path d="M2640.267,717.828l-.256-3.375-4.936,4.936.257,3.379Z" transform="translate(-2615.058 -714.452)" fill="#7ab6f6"/></g></g><g transform="translate(1013.074 327.054)"><path d="M1269.957,1677.579c7.063-.055,23.921-.75,21.388-12.718-1.979.1-4.79-.759-6.688-.345,11.723-4.96,11.576-17.843,10.99-30.013-5.2,3.64-11.527,11.3-12.951,18.17-6.268-6.471-7.92,2.556-9.486,8.174-2.181,7.852-3.808,12.823-11,17.646Z" transform="translate(-1230.929 -1604.932)" fill="#ffc5c0"/><path d="M1268.282,1723.714c0,2.248-10.688,4.075-23.871,4.075s-23.867-1.828-23.867-4.075,10.688-4.076,23.867-4.076S1268.282,1721.466,1268.282,1723.714Z" transform="translate(-1208.273 -1651.219)" fill="#a8bcff" opacity="0.3"/><path d="M1253.7,1644.309c-1.88-.664,7.995-28.287,8.008-30.924.029-12.209-6.473-14.715-8.643-1.49,2.644-11.623.4-35.116-9.664-42.2-5.991,5.323-5.135,16.954-3.451,24.535C1241.943,1603.268,1246.263,1641.676,1253.7,1644.309Z" transform="translate(-1218.152 -1569.697)" fill="#7ab6f6"/><path d="M1226.9,1676.894c-5.849-19.164-8.648-38.67-33.236-36.506-.455,9.136,8.409,13.8,15.213,16.656-5.4-.849-9.621,2.1-6.552,7.074,2.305,3.732,10.928,3.883,14.46,4.6-8.6,5.775,6.613,11.67,11.094,12.364Z" transform="translate(-1193.652 -1608.041)" fill="#2a2b7c"/></g><g transform="translate(185.075 332.095)"><path d="M2742.719,1739.73c0,1.443-11.339,2.615-25.331,2.615s-25.334-1.172-25.334-2.615,11.344-2.623,25.334-2.623S2742.719,1738.279,2742.719,1739.73Z" transform="translate(-2691.372 -1683.873)" fill="#b0bcd8"/><path d="M2734.539,1659.661c-1.271-12.714-3.735-26.008-2.429-38.9.361-3.523,3.358-19.263,9.033-15.638,4.554,2.916,1.556,13.556,1.525,17.975a134.607,134.607,0,0,1-5.691,35.75Z" transform="translate(-2715.115 -1604.584)" fill="#7ab6f6"/><g transform="translate(19.24 27.19)"><path d="M2738.253,1702.269l.075-.537a76.741,76.741,0,0,1,2.637-11.166c.446-1.573.92-3.19,1.323-4.755.134-.522.278-1.343.458-2.3.8-4.477,2.017-11.243,5.582-11.243a3.381,3.381,0,0,1,1.481.377c5.01,2.461,2.328,11.973-.1,18.184a4.528,4.528,0,0,1,2.083-.582,2.485,2.485,0,0,1,2.2,1.191c.651,1.088.509,2.669-.388,4.34-1.35,2.517-4.107,3.8-6.537,4.938l-.558.242Zm10.076-29.18c-2.88,0-4.122,6.871-4.792,10.573-.172.965-.32,1.809-.461,2.356-.408,1.574-.875,3.2-1.333,4.772a82.792,82.792,0,0,0-2.536,10.506l7.122-1.124.4-.187c2.43-1.134,4.943-2.308,6.167-4.587.748-1.388.9-2.714.407-3.54a1.683,1.683,0,0,0-1.508-.788,4.425,4.425,0,0,0-2.684,1.134l-1.216.948.592-1.422c1.932-4.709,5.9-15.924.967-18.351A2.575,2.575,0,0,0,2748.329,1673.089Z" transform="translate(-2738.253 -1672.272)" fill="#2a2b7c"/></g><path d="M2711.287,1689.378c1.785-8.2-2.268-21.486-5.507-29.368-1.057-2.573-6.8-11.1-10.436-9.351-3.451,1.667,1.338,10.758,2.659,12.869a6.447,6.447,0,0,0-4.886-2.258c-3.553.062-2.795.745-2.442,3.658.555,4.493,3.961,6.991,7.079,9.648-2.321-.872-6.014-.716-5.886,2.667S2711.287,1689.378,2711.287,1689.378Z" transform="translate(-2690.355 -1632.01)" fill="#2a2b7c"/></g><g transform="translate(792 83.6)"><path d="M2569.879,573.555l-8.577-6.111-3.649,11.947,19.109,5.836,3.649-11.948Z" transform="translate(-2551.792 -557.986)" fill="#b0bcd8"/><path d="M2559.046,553.509l-18.612-13.255,22.843-.6,18.613,13.257Z" transform="translate(-2540.433 -539.657)" fill="#b0bcd8"/><path d="M2599.782,557.385c-.149.487-1.161.607-2.26.272s-1.867-1-1.717-1.487,1.157-.609,2.254-.274S2599.93,556.9,2599.782,557.385Z" transform="translate(-2576.945 -550.244)" fill="#fff"/><g transform="translate(21.138 6.073)"><g transform="translate(13.04 17.718)"><path d="M2644.946,616.645l.86-6.462-.92-.282-.229-.069-.92-.281-2.9,5.839Z" transform="translate(-2640.837 -609.551)" fill="#8ca7f6"/></g><path d="M2651.594,605.668a1.5,1.5,0,1,1-.983-1.923A1.528,1.528,0,0,1,2651.594,605.668Z" transform="translate(-2632.951 -587.961)" fill="#8ca7f6"/><path d="M2618.109,578.911l3.718-13.606-19.3-7.065.271-.741,19.626,7.184a.387.387,0,0,1,.232.471l-3.814,13.959Z" transform="translate(-2602.531 -557.499)" fill="#8ca7f6"/></g></g></g></svg>