<svg width="466" height="510" viewBox="0 0 466 510" fill="none" xmlns="http://www.w3.org/2000/svg">
<path d="M466 507.312H151.536V508.882H466V507.312Z" fill="#3F3D56"/>
<path d="M407.313 240.279C407.919 241.102 408.368 242.064 408.632 243.101C408.896 244.138 408.969 245.228 408.846 246.3C408.723 247.372 408.407 248.402 407.918 249.324C407.43 250.245 406.779 251.038 406.009 251.65L373.465 277.52L359.134 288.581C358.32 289.209 357.333 289.464 356.366 289.297C355.398 289.129 354.519 288.551 353.899 287.674V287.674C353.538 287.163 353.277 286.567 353.134 285.928C352.992 285.288 352.97 284.621 353.072 283.971C353.174 283.321 353.396 282.705 353.724 282.165C354.052 281.624 354.477 281.172 354.97 280.841L368.851 271.51L393.075 244.798L377.502 225.433L389.037 215.416L407.313 240.279Z" fill="#7C5C5C"/>
<path d="M330.784 483.864H322.823L318.095 407.737L338.282 407.069L330.784 483.864Z" fill="#7C5C5C"/>
<path d="M331.361 508.572C329.238 509.694 327.46 500.606 325.669 502.644C320.661 508.342 312.992 509.583 306.307 507.095L308.646 507.065C308.243 506.914 307.87 506.671 307.55 506.349C307.231 506.027 306.971 505.634 306.786 505.192C306.602 504.75 306.496 504.27 306.477 503.78C306.458 503.29 306.524 502.8 306.673 502.341V502.341C306.851 501.791 307.142 501.3 307.52 500.909C307.899 500.518 308.353 500.24 308.845 500.097L314.172 498.556L322.535 481.527L331.072 480.859C332.976 483.669 334.304 486.941 334.957 490.431C335.611 493.92 335.572 497.536 334.845 501.006C334.07 504.667 332.874 507.773 331.361 508.572Z" fill="#2F2E41"/>
<path d="M383.79 483.864H375.829L371.101 407.737L391.864 403.063L383.79 483.864Z" fill="#7C5C5C"/>
<path d="M384.366 508.572C382.244 509.694 380.466 500.606 378.675 502.644C373.667 508.342 365.998 509.583 359.312 507.095L361.652 507.065C361.249 506.915 360.876 506.671 360.556 506.349C360.236 506.027 359.976 505.634 359.792 505.192C359.607 504.75 359.502 504.27 359.483 503.78C359.463 503.29 359.53 502.8 359.679 502.341C359.857 501.791 360.148 501.3 360.526 500.909C360.904 500.518 361.359 500.24 361.851 500.097L367.177 498.556L375.54 481.527L384.655 480.192L384.885 480.627C386.647 483.915 387.783 487.6 388.217 491.437C388.652 495.274 388.374 499.173 387.403 502.876C386.645 505.688 385.614 507.913 384.366 508.572Z" fill="#2F2E41"/>
<path d="M392.816 217.138C385.495 218.317 380.427 222.959 378.363 232.219L364.906 203.453C364.108 201.625 363.906 199.525 364.336 197.538C364.767 195.551 365.801 193.811 367.25 192.635C368.788 191.388 370.68 190.868 372.537 191.183C374.395 191.498 376.079 192.623 377.243 194.329L392.816 217.138Z" fill="#D27B9A"/>
<path d="M406.917 399.724C374.198 416.485 340.714 418.547 306.56 407.737C319.032 351.731 333.758 301.089 333.668 259.489L367.12 256.151L372.271 265.605C384.491 288.036 392.927 312.946 397.13 339.016L406.917 399.724Z" fill="#2F2E41"/>
<path d="M352.124 173.346C361.68 173.346 369.427 164.376 369.427 153.312C369.427 142.248 361.68 133.279 352.124 133.279C342.568 133.279 334.821 142.248 334.821 153.312C334.821 164.376 342.568 173.346 352.124 173.346Z" fill="#7C5C5C"/>
<path d="M371.157 188.704L349.817 190.04L346.356 168.003L363.659 164.665L371.157 188.704Z" fill="#A0616A"/>
<path d="M368.851 259.489L345.471 260.252L333.668 262.161C327.874 240.002 322.996 217.893 334.821 199.389L348.664 183.362L369.427 182.695L369.702 182.877C373 185.064 375.555 188.486 376.948 192.58C378.341 196.674 378.487 201.196 377.363 205.399C372.21 224.785 368.901 243.092 368.851 259.489Z" fill="#D27B9A"/>
<path d="M333.091 321.593L331.641 344.541C331.563 345.77 331.104 346.925 330.349 347.794C329.594 348.662 328.593 349.186 327.531 349.268V349.268C326.919 349.315 326.306 349.214 325.729 348.972C325.153 348.729 324.626 348.35 324.183 347.859C323.741 347.367 323.391 346.775 323.157 346.118C322.923 345.462 322.81 344.756 322.824 344.046L323.286 321.593L337.705 258.154L338.282 219.423L354.431 218.755L353.278 263.496L333.091 321.593Z" fill="#7C5C5C"/>
<path d="M356.162 222.094C349.315 218.87 342.92 219.95 337.128 226.768L337.922 194.067C338.022 192.021 338.755 190.087 339.987 188.617C341.219 187.146 342.867 186.24 344.63 186.062V186.062C346.5 185.874 348.362 186.521 349.834 187.87C351.306 189.22 352.277 191.17 352.547 193.322L356.162 222.094Z" fill="#D27B9A"/>
<path d="M388.749 242.461H335.686C348.065 204.51 352.057 169.204 335.686 138.955C335.967 129.869 346.032 121.993 353.848 122.863C363.08 123.891 375.484 131.745 377.214 142.294L388.749 242.461Z" fill="#2D2B44"/>
<path d="M219.641 121.195H217.22V44.4297C217.22 38.5951 216.228 32.8176 214.299 27.4272C212.371 22.0367 209.544 17.1388 205.981 13.0131C202.417 8.88744 198.187 5.61477 193.531 3.38197C188.875 1.14918 183.885 -1.74847e-05 178.846 1.99521e-10H108.61H38.3744C33.335 -1.28834e-05 28.3449 1.14919 23.6891 3.38199C19.0333 5.61479 14.803 8.88745 11.2396 13.0131C7.6762 17.1388 4.84956 22.0367 2.92106 27.4272C0.992573 32.8177 -5.56382e-06 38.5951 0 44.4297V465.57C-3.97416e-06 471.405 0.992572 477.182 2.92106 482.573C4.84956 487.963 7.6762 492.861 11.2396 496.987C14.803 501.113 19.0333 504.385 23.6891 506.618C28.3449 508.851 33.335 510 38.3744 510H178.846C183.885 510 188.875 508.851 193.531 506.618C198.187 504.385 202.417 501.113 205.981 496.987C209.544 492.861 212.371 487.963 214.299 482.573C216.228 477.182 217.22 471.405 217.22 465.57V175.838H219.641V121.195Z" fill="#3F3D56"/>

<path d="M56 20.5C56 13.5964 61.5964 8 68.5 8H150.5C157.404 8 163 13.5964 163 20.5V20.5C163 27.4036 157.404 33 150.5 33H68.5C61.5964 33 56 27.4036 56 20.5V20.5Z" fill="#3F3D56"/>
</svg>
