<svg width="293" height="287" viewBox="0 0 293 287" fill="none" xmlns="http://www.w3.org/2000/svg">
<path d="M12.698 144.704C15.8715 136.024 17.6663 128.463 16.7069 127.817C15.7475 127.171 12.3972 133.684 9.22379 142.365C6.05036 151.045 4.25552 158.606 5.2149 159.252C6.17428 159.898 9.52459 153.385 12.698 144.704Z" fill="#E0E0E0"/>
<path d="M173.679 253.216C176.852 244.535 178.897 237.142 178.245 236.703C177.593 236.264 174.492 242.945 171.318 251.626C168.145 260.307 166.101 267.7 166.753 268.139C167.405 268.578 170.506 261.896 173.679 253.216Z" fill="#E0E0E0"/>
<path d="M87.1722 209.332L81.191 202.628L64.7283 229.688L70.7095 236.391L87.1722 209.332Z" fill="#F55F44"/>
<path opacity="0.05" d="M73.4178 238.55L81.9137 241.261L87.8315 207.1L79.3357 204.389L73.4178 238.55Z" fill="black"/>
<path d="M74.3629 238.852L81.9137 241.261L87.8315 207.1L80.2807 204.691L74.3629 238.852Z" fill="#F55F44"/>
<path d="M16.9941 127.031L4.92749 160.038L166.479 268.83L178.545 235.823L16.9941 127.031Z" fill="url(#paint0_linear)"/>
<path d="M166.766 268.044C163.604 265.986 2.89859 157.693 5.21474 159.252C14.1344 140.775 16.7068 127.817 16.7068 127.817L178.258 236.609C178.258 236.609 172.585 250.122 166.766 268.044Z" fill="#F5F5F5"/>
<path opacity="0.05" d="M100.667 184.357L87.3494 175.389L75.8573 206.824L89.1752 215.793L100.667 184.357Z" fill="black"/>
<path d="M100.088 183.967L87.9285 175.779L76.4364 207.214L88.5962 215.403L100.088 183.967Z" fill="#F55F44"/>
<path opacity="0.05" d="M97.7721 182.408L89.6655 176.948L78.1735 208.384L86.28 213.843L97.7721 182.408Z" fill="black"/>
<path d="M97.1931 182.018L90.2446 177.338L78.7526 208.774L85.701 213.453L97.1931 182.018Z" fill="#F55F44"/>
<path d="M96.2573 283.407C96.8525 283.407 97.335 282.752 97.335 281.944C97.335 281.136 96.8525 280.481 96.2573 280.481C95.6621 280.481 95.1796 281.136 95.1796 281.944C95.1796 282.752 95.6621 283.407 96.2573 283.407Z" fill="#DBDBDB"/>
<g opacity="0.5">
<path opacity="0.5" d="M11.9332 240.984H10.8281V249.483H11.9332V240.984Z" fill="#47E6B1"/>
<path opacity="0.5" d="M14.5117 245.984V244.484H8.24942V245.984H14.5117Z" fill="#47E6B1"/>
</g>
<g opacity="0.5">
<path opacity="0.5" d="M290.421 134.991H289.316V143.491H290.421V134.991Z" fill="#47E6B1"/>
<path opacity="0.5" d="M293 139.991V138.491H286.738V139.991H293Z" fill="#47E6B1"/>
</g>
<g opacity="0.5">
<path opacity="0.5" d="M18.5639 29.498H17.4587V37.9975H18.5639V29.498Z" fill="#47E6B1"/>
<path opacity="0.5" d="M21.1423 34.4977V32.9978H14.88V34.4977H21.1423Z" fill="#47E6B1"/>
</g>
<g opacity="0.5">
<path opacity="0.5" d="M257.268 16.4989H256.163V24.9983H257.268V16.4989Z" fill="#47E6B1"/>
<path opacity="0.5" d="M259.847 21.4986V19.9987H253.584V21.4986H259.847Z" fill="#47E6B1"/>
</g>
<path opacity="0.5" d="M4.52714 126.72C4.22259 126.54 3.97745 126.214 3.83837 125.805C3.69929 125.395 3.67599 124.931 3.7729 124.499C3.78858 124.433 3.79846 124.365 3.80233 124.296C3.81119 124.098 3.77294 123.902 3.69322 123.736C3.61351 123.57 3.49658 123.444 3.35975 123.375C3.22292 123.307 3.07348 123.3 2.93355 123.356C2.79362 123.412 2.67066 123.527 2.58286 123.685C2.55267 123.741 2.52746 123.802 2.50775 123.866C2.37512 124.279 2.13513 124.612 1.83347 124.801C1.53181 124.99 1.18954 125.021 0.87182 124.89C0.82311 124.868 0.772717 124.855 0.721692 124.85C0.576124 124.838 0.431573 124.89 0.30945 124.998C0.187327 125.106 0.094128 125.265 0.0436549 125.45C-0.00681833 125.636 -0.0118789 125.839 0.0292204 126.029C0.0703197 126.219 0.155392 126.386 0.271841 126.505C0.313158 126.546 0.357893 126.58 0.405117 126.607C0.709662 126.787 0.954807 127.113 1.09388 127.522C1.23296 127.931 1.25626 128.396 1.15935 128.827C1.14367 128.893 1.13379 128.962 1.12991 129.031C1.12105 129.228 1.15932 129.425 1.23903 129.59C1.31875 129.756 1.43568 129.883 1.5725 129.951C1.70933 130.02 1.85877 130.027 1.9987 129.971C2.13863 129.915 2.26159 129.8 2.34939 129.641C2.37958 129.585 2.40479 129.525 2.4245 129.461C2.55714 129.047 2.79712 128.715 3.09878 128.526C3.40044 128.337 3.74271 128.305 4.06043 128.437C4.10915 128.458 4.15953 128.472 4.21056 128.477C4.35613 128.489 4.50068 128.437 4.62281 128.329C4.74493 128.221 4.83814 128.062 4.88861 127.876C4.93908 127.69 4.94414 127.488 4.90304 127.298C4.86194 127.108 4.77686 126.941 4.66041 126.822C4.61909 126.781 4.57436 126.747 4.52714 126.72Z" fill="#4D8AF0"/>
<path opacity="0.5" d="M67.887 28.2263C67.5825 28.0463 67.3373 27.7205 67.1982 27.3111C67.0592 26.9017 67.0359 26.4371 67.1328 26.0059C67.1485 25.9398 67.1583 25.8714 67.1622 25.8022C67.1711 25.6046 67.1328 25.4084 67.0531 25.2426C66.9734 25.0769 66.8564 24.9504 66.7196 24.8819C66.5828 24.8134 66.4334 24.8065 66.2934 24.8623C66.1535 24.9181 66.0305 25.0335 65.9427 25.1916C65.9125 25.2477 65.8873 25.3084 65.8676 25.3725C65.735 25.7858 65.495 26.1185 65.1933 26.3073C64.8917 26.4961 64.5494 26.5277 64.2317 26.3962C64.183 26.3749 64.1326 26.3615 64.0816 26.3562C63.936 26.3442 63.7914 26.3961 63.6693 26.5043C63.5472 26.6125 63.454 26.7712 63.4035 26.9569C63.353 27.1426 63.348 27.3454 63.3891 27.5354C63.4302 27.7253 63.5153 27.8922 63.6317 28.0113C63.673 28.0523 63.7178 28.0865 63.765 28.1133C64.0695 28.2933 64.3147 28.619 64.4537 29.0284C64.5928 29.4379 64.6161 29.9024 64.5192 30.3336C64.5035 30.3997 64.4937 30.4681 64.4898 30.5374C64.4809 30.735 64.5192 30.9311 64.5989 31.0969C64.6786 31.2627 64.7955 31.3891 64.9324 31.4577C65.0692 31.5262 65.2186 31.533 65.3586 31.4772C65.4985 31.4215 65.6215 31.306 65.7093 31.1479C65.7395 31.0919 65.7647 31.0311 65.7844 30.967C65.917 30.5537 66.157 30.221 66.4587 30.0322C66.7603 29.8435 67.1026 29.8118 67.4203 29.9434C67.469 29.9647 67.5194 29.9781 67.5704 29.9833C67.716 29.9954 67.8606 29.9434 67.9827 29.8352C68.1048 29.727 68.198 29.5683 68.2485 29.3826C68.299 29.1969 68.304 28.9941 68.2629 28.8042C68.2218 28.6143 68.1367 28.4474 68.0203 28.3282C67.979 28.2872 67.9342 28.253 67.887 28.2263Z" fill="#4D8AF0"/>
<path opacity="0.5" d="M145.245 283.709C144.94 283.529 144.695 283.204 144.556 282.794C144.417 282.385 144.394 281.92 144.491 281.489C144.506 281.423 144.516 281.354 144.52 281.285C144.529 281.088 144.491 280.891 144.411 280.726C144.331 280.56 144.214 280.433 144.077 280.365C143.941 280.296 143.791 280.29 143.651 280.345C143.511 280.401 143.388 280.517 143.301 280.675C143.27 280.731 143.245 280.791 143.225 280.856C143.093 281.269 142.853 281.602 142.551 281.79C142.249 281.979 141.907 282.011 141.589 281.879C141.541 281.858 141.49 281.845 141.439 281.839C141.294 281.827 141.149 281.879 141.027 281.987C140.905 282.096 140.812 282.254 140.761 282.44C140.711 282.626 140.706 282.828 140.747 283.018C140.788 283.208 140.873 283.375 140.989 283.494C141.031 283.535 141.076 283.57 141.123 283.596C141.427 283.776 141.672 284.102 141.812 284.511C141.951 284.921 141.974 285.385 141.877 285.817C141.861 285.883 141.851 285.951 141.848 286.02C141.839 286.218 141.877 286.414 141.957 286.58C142.036 286.746 142.153 286.872 142.29 286.941C142.427 287.009 142.576 287.016 142.716 286.96C142.856 286.905 142.979 286.789 143.067 286.631C143.097 286.575 143.122 286.514 143.142 286.45C143.275 286.037 143.515 285.704 143.816 285.515C144.118 285.327 144.46 285.295 144.778 285.426C144.827 285.448 144.877 285.461 144.928 285.466C145.074 285.478 145.218 285.426 145.34 285.318C145.463 285.21 145.556 285.051 145.606 284.866C145.657 284.68 145.662 284.477 145.621 284.287C145.58 284.097 145.495 283.93 145.378 283.811C145.337 283.77 145.292 283.736 145.245 283.709Z" fill="#4D8AF0"/>
<path opacity="0.5" d="M279.739 224.985C280.959 224.985 281.949 223.642 281.949 221.985C281.949 220.329 280.959 218.985 279.739 218.985C278.518 218.985 277.528 220.329 277.528 221.985C277.528 223.642 278.518 224.985 279.739 224.985Z" fill="#F55F44"/>
<path opacity="0.5" d="M231.114 243.984C232.334 243.984 233.324 242.641 233.324 240.984C233.324 239.327 232.334 237.984 231.114 237.984C229.893 237.984 228.903 239.327 228.903 240.984C228.903 242.641 229.893 243.984 231.114 243.984Z" fill="#4D8AF0"/>
<path opacity="0.5" d="M38.0874 273.482C39.3081 273.482 40.2976 272.139 40.2976 270.482C40.2976 268.825 39.3081 267.482 38.0874 267.482C36.8667 267.482 35.8772 268.825 35.8772 270.482C35.8772 272.139 36.8667 273.482 38.0874 273.482Z" fill="#47E6B1"/>
<path opacity="0.5" d="M151.546 5.9996C152.766 5.9996 153.756 4.65655 153.756 2.9998C153.756 1.34306 152.766 0 151.546 0C150.325 0 149.335 1.34306 149.335 2.9998C149.335 4.65655 150.325 5.9996 151.546 5.9996Z" fill="#F55F44"/>
<path d="M75.4771 178.738L66.6362 196.737C66.6362 196.737 69.5832 215.236 134.785 214.736C199.986 214.236 205.144 196.737 205.144 196.737L192.987 172.739L155.782 138.241L75.4771 178.738Z" fill="#EA4C84"/>
<path opacity="0.15" d="M75.4771 178.738L66.6362 196.737C66.6362 196.737 69.5832 215.236 134.785 214.736C199.986 214.236 205.144 196.737 205.144 196.737L192.987 172.739L155.782 138.241L75.4771 178.738Z" fill="black"/>
<path d="M263.53 111.993L147.493 181.488L6.03906 111.993L135.706 31.9979L199.356 71.8303L201.637 73.2602L263.53 111.993Z" fill="#EA4C84"/>
<path opacity="0.15" d="M263.53 111.993L147.493 181.488L6.03906 111.993L135.706 31.9979L199.356 71.8303L201.637 73.2602L263.53 111.993Z" fill="black"/>
<path d="M204.038 128.651L201.828 128.831L199.356 71.8302L201.637 73.2601L204.038 128.651Z" fill="#F5F5F5"/>
<path d="M76.9506 111.743L66.6362 196.737C66.6362 196.737 140.679 164.239 205.144 196.737L195.566 106.743C195.566 106.743 108.999 92.2439 76.9506 111.743Z" fill="#EA4C84"/>
<path d="M203.854 145.99C209.754 145.99 214.537 141.514 214.537 135.991C214.537 130.469 209.754 125.992 203.854 125.992C197.954 125.992 193.172 130.469 193.172 135.991C193.172 141.514 197.954 145.99 203.854 145.99Z" fill="#F5F5F5"/>
<defs>
<linearGradient id="paint0_linear" x1="85.7031" y1="214.434" x2="104.761" y2="186.135" gradientUnits="userSpaceOnUse">
<stop stop-color="#808080" stop-opacity="0.25"/>
<stop offset="0.53514" stop-color="#808080" stop-opacity="0.12"/>
<stop offset="1" stop-color="#808080" stop-opacity="0.1"/>
</linearGradient>
</defs>
</svg>
